<?xml version="1.0" encoding="UTF-8" standalone="no"?>
<!-- Creator: CorelDRAW -->

<svg
   xmlns:dc="http://purl.org/dc/elements/1.1/"
   xmlns:cc="http://creativecommons.org/ns#"
   xmlns:rdf="http://www.w3.org/1999/02/22-rdf-syntax-ns#"
   xmlns:svg="http://www.w3.org/2000/svg"
   xmlns="http://www.w3.org/2000/svg"
   xmlns:sodipodi="http://sodipodi.sourceforge.net/DTD/sodipodi-0.dtd"
   xmlns:inkscape="http://www.inkscape.org/namespaces/inkscape"
   xml:space="preserve"
   width="32px"
   height="32px"
   style="shape-rendering:geometricPrecision; text-rendering:geometricPrecision; image-rendering:optimizeQuality; fill-rule:evenodd; clip-rule:evenodd"
   viewBox="0 0 32 32"
   version="1.1"
   id="svg3700"
   sodipodi:docname="switch-real-iotik.svg"
   inkscape:version="0.92.1 r15371"><metadata
   id="metadata3704"><rdf:RDF><cc:Work
       rdf:about=""><dc:format>image/svg+xml</dc:format><dc:type
         rdf:resource="http://purl.org/dc/dcmitype/StillImage" /><dc:title></dc:title></cc:Work></rdf:RDF></metadata><sodipodi:namedview
   pagecolor="#ffffff"
   bordercolor="#666666"
   borderopacity="1"
   objecttolerance="10"
   gridtolerance="10"
   guidetolerance="10"
   inkscape:pageopacity="0"
   inkscape:pageshadow="2"
   inkscape:window-width="1920"
   inkscape:window-height="1017"
   id="namedview3702"
   showgrid="false"
   inkscape:zoom="36.857941"
   inkscape:cx="13.622422"
   inkscape:cy="17.673011"
   inkscape:window-x="-8"
   inkscape:window-y="-8"
   inkscape:window-maximized="1"
   inkscape:current-layer="Layer_x0020_1" />
 <defs
   id="defs3687">
  <style
   type="text/css"
   id="style3680">
   <![CDATA[
    .str1 {stroke:#366F9E;stroke-width:1.28}
    .str0 {stroke:#4E8DBF;stroke-width:1.28}
    .fil0 {fill:none}
    .fil2 {fill:#FEFEFE;fill-rule:nonzero}
    .fil1 {fill:url(#id0)}
   ]]>
  </style>
  <linearGradient
   id="id0"
   gradientUnits="userSpaceOnUse"
   x1="16"
   y1="30.208"
   x2="16"
   y2="1.792">
   <stop
   offset="0"
   style="stop-color:#69A7D6"
   id="stop3682" />
   <stop
   offset="1"
   style="stop-color:#2B699C"
   id="stop3684" />
  </linearGradient>
 </defs>
 <g
   id="Layer_x0020_1">
  <metadata
   id="CorelCorpID_0Corel-Layer" />
  <circle
   class="fil0 str0"
   cx="16"
   cy="16"
   r="15.36"
   id="circle3690" />
  <circle
   class="fil1 str1"
   cx="16"
   cy="16"
   r="14.208"
   id="circle3692" />
  <path
   class="fil2"
   d="m 15.459662,13.9891 v 5.71507 c 0.529307,0 1.058404,0 1.587599,0 V 13.9891 H 18.581 c 0,-0.285824 0,-0.569856 0,-0.850304 0,-0.28224 0,-0.562688 0,-0.843136 h -4.664 c 0,0.280448 0,0.560896 0,0.843136 0,0.280448 0,0.56448 0,0.850304 z"
   id="path3694"
   inkscape:connector-curvature="0"
   style="fill:#fefefe;fill-rule:nonzero;stroke-width:0.91106015" />
  
  <path
   id="12"
   class="fil2"
   d="m 21.775819,18.0426 v -4.09587 h 0.73539 c 0,-0.208128 0,-0.39872 0,-0.57152 0,-0.172928 0,-0.343936 0,-0.515072 0,-0.171136 0,-0.359808 0,-0.56448 -0.511225,0 -1.020962,0 -1.529103,0 -0.508356,0 -1.01809,0 -1.529318,0 0,0.204672 0,0.393344 0,0.56448 0,0.171136 0,0.342144 0,0.515072 0,0.1728 0,0.363392 0,0.57152 h 0.735496 V 18.0426 H 19.39 c 0,0.155136 0,0.298112 0,0.432128 0,0.134016 0,0.262784 0,0.38976 0,0.128768 0,0.259328 0,0.395136 0,0.135808 0,0.284032 0,0.444544 0.533641,0 1.064305,0 1.592108,0 0.529073,0 1.058254,0 1.591892,0 0,-0.160512 0,-0.308736 0,-0.444544 0,-0.135808 0,-0.266368 0,-0.395136 0,-0.126976 0,-0.255744 0,-0.38976 0,-0.134016 0,-0.276992 0,-0.432128 h -0.798178 z"
   inkscape:connector-curvature="0"
   style="fill:#fefefe;fill-rule:nonzero;stroke-width:0.9110415" />
  <path
   id="123"
   class="fil2"
   d="m 25.015276,19.7042 v -2.82586 c 0.103153,0 0.20482,-0.0017 0.306486,-0.0052 0.10156,-0.0052 0.204714,-0.01766 0.312329,-0.03699 l 1.381264,2.8681 h 1.784738 v -0.29632 l -1.704,-3.25978 c 0.248057,-0.188672 0.449903,-0.395136 0.605323,-0.617344 0.155421,-0.222208 0.275041,-0.458624 0.358754,-0.70912 0.0852,-0.252288 0.14501,-0.51328 0.179324,-0.786688 0.03442,-0.2752 0.05535,-0.55744 0.0613,-0.848512 0.0059,-0.290944 0.0075,-0.587392 0.0059,-0.890752 -0.277909,0 -0.554543,0 -0.827991,0 -0.275147,0 -0.548701,0 -0.822254,0 0.0031,0.278784 0.0016,0.553856 -0.0044,0.823808 -0.0045,0.269824 -0.02847,0.523904 -0.07033,0.761984 -0.04037,0.23808 -0.113565,0.448 -0.219799,0.631424 -0.104535,0.18176 -0.257088,0.324608 -0.454365,0.428672 -0.198765,0.104064 -0.457445,0.157056 -0.775724,0.15872 h -0.116645 v -2.80461 c -0.278016,0 -0.551569,0 -0.822042,0 -0.272067,0 -0.541158,0 -0.810144,0 v 7.40851 c 0.268986,0 0.538077,0 0.810144,0 0.270473,0 0.544026,0 0.822042,0 z"
   inkscape:connector-curvature="0"
   style="fill:#fefefe;fill-rule:nonzero;stroke-width:0.9110195" />
 <path
   inkscape:connector-curvature="0"
   style="clip-rule:evenodd;fill:#fefefe;fill-rule:evenodd;stroke-width:0.9110415;image-rendering:optimizeQuality;shape-rendering:geometricPrecision;text-rendering:geometricPrecision"
   id="12-4"
   class="fil2"
   d="m 5.8018188,18.042432 v -4.09587 h 0.7353903 c 0,-0.208128 0,-0.39872 0,-0.57152 0,-0.172928 0,-0.343936 0,-0.515072 0,-0.171136 0,-0.359808 0,-0.56448 -0.5112248,0 -1.0209623,0 -1.5291029,0 -0.5083563,0 -1.0180905,0 -1.5293186,0 0,0.204672 0,0.393344 0,0.56448 0,0.171136 0,0.342144 0,0.515072 0,0.1728 0,0.363392 0,0.57152 h 0.7354966 v 4.09587 H 3.416 c 0,0.155136 0,0.298112 0,0.432128 0,0.134016 0,0.262784 0,0.38976 0,0.128768 0,0.259328 0,0.395136 0,0.135808 0,0.284032 0,0.444544 0.5336414,0 1.0643047,0 1.5921079,0 0.5290731,0 1.058254,0 1.5918921,0 0,-0.160512 0,-0.308736 0,-0.444544 0,-0.135808 0,-0.266368 0,-0.395136 0,-0.126976 0,-0.255744 0,-0.38976 0,-0.134016 0,-0.276992 0,-0.432128 H 5.8018221 Z" /><text
   xml:space="preserve"
   style="font-style:normal;font-variant:normal;font-weight:bold;font-stretch:condensed;font-size:8.19763947px;line-height:1.25;font-family:Arial;-inkscape-font-specification:'Arial Bold Condensed';letter-spacing:0px;word-spacing:0px;fill:#ffffff;fill-opacity:1;stroke:none;stroke-width:0.20494097"
   x="7.6286216"
   y="18.932846"
   id="text3723"
   transform="scale(0.999958,1.000042)"><tspan
     sodipodi:role="line"
     id="tspan3721"
     x="7.6286216"
     y="18.932846"
     style="font-style:normal;font-variant:normal;font-weight:bold;font-stretch:condensed;font-family:Arial;-inkscape-font-specification:'Arial Bold Condensed';fill:#ffffff;stroke-width:0.20494097">O</tspan></text>
<text
   xml:space="preserve"
   style="font-style:normal;font-variant:normal;font-weight:bold;font-stretch:condensed;font-size:10.0089922px;line-height:1.25;font-family:Arial;-inkscape-font-specification:'Arial Bold Condensed';letter-spacing:0px;word-spacing:0px;fill:#ffffff;fill-opacity:1;stroke:none;stroke-width:0.2502248"
   x="7.0473471"
   y="19.58182"
   id="text4538"><tspan
     sodipodi:role="line"
     id="tspan4536"
     x="7.0473471"
     y="19.58182"
     style="fill:#ffffff;stroke-width:0.2502248">O</tspan></text>
</g>
</svg>