<?xml version="1.0" encoding="UTF-8" standalone="no"?>
<!-- Creator: CorelDRAW X6 -->

<svg
   xmlns:dc="http://purl.org/dc/elements/1.1/"
   xmlns:cc="http://creativecommons.org/ns#"
   xmlns:rdf="http://www.w3.org/1999/02/22-rdf-syntax-ns#"
   xmlns:svg="http://www.w3.org/2000/svg"
   xmlns="http://www.w3.org/2000/svg"
   xmlns:sodipodi="http://sodipodi.sourceforge.net/DTD/sodipodi-0.dtd"
   xmlns:inkscape="http://www.inkscape.org/namespaces/inkscape"
   xml:space="preserve"
   width="150px"
   height="150px"
   version="1.1"
   style="shape-rendering:geometricPrecision; text-rendering:geometricPrecision; image-rendering:optimizeQuality; fill-rule:evenodd; clip-rule:evenodd"
   viewBox="0 0 15000 15000"
   id="svg4521"
   sodipodi:docname="usbUpload.svg"
   inkscape:version="0.92.1 r15371"><metadata
   id="metadata4525"><rdf:RDF><cc:Work
       rdf:about=""><dc:format>image/svg+xml</dc:format><dc:type
         rdf:resource="http://purl.org/dc/dcmitype/StillImage" /><dc:title /></cc:Work></rdf:RDF></metadata><sodipodi:namedview
   pagecolor="#ffffff"
   bordercolor="#666666"
   borderopacity="1"
   objecttolerance="10"
   gridtolerance="10"
   guidetolerance="10"
   inkscape:pageopacity="0"
   inkscape:pageshadow="2"
   inkscape:window-width="1920"
   inkscape:window-height="1017"
   id="namedview4523"
   showgrid="false"
   showguides="false"
   inkscape:zoom="3.9315137"
   inkscape:cx="3.8019847"
   inkscape:cy="43.115355"
   inkscape:window-x="1016"
   inkscape:window-y="-8"
   inkscape:window-maximized="1"
   inkscape:current-layer="Layer_x0020_1" />
 <defs
   id="defs4509">
  <style
   type="text/css"
   id="style4485">
   <![CDATA[
    .str1 {stroke:#8BB832;stroke-width:79.375}
    .str0 {stroke:#666666;stroke-width:127}
    .fil2 {fill:url(#id0)}
    .fil0 {fill:url(#id1)}
    .fil3 {fill:url(#id2)}
    .fil1 {fill:url(#id3)}
   ]]>
  </style>
  <linearGradient
   id="id0"
   gradientUnits="userSpaceOnUse"
   x1="2737.98"
   y1="1286.61"
   x2="12263"
   y2="1286.61">
   <stop
   offset="0"
   style="stop-color:#6699FF"
   id="stop4487" />
   <stop
   offset="1"
   style="stop-color:#6666CC"
   id="stop4489" />
  </linearGradient>
  <linearGradient
   id="id1"
   gradientUnits="userSpaceOnUse"
   x1="7489.56"
   y1="13975.2"
   x2="7489.56"
   y2="640.185">
   <stop
   offset="0"
   style="stop-color:#E6E6E6"
   id="stop4492" />
   <stop
   offset="1"
   style="stop-color:white"
   id="stop4494" />
  </linearGradient>
  <linearGradient
   id="id2"
   gradientUnits="userSpaceOnUse"
   x1="7396.82"
   y1="12287.2"
   x2="7396.82"
   y2="2489.91">
   <stop
   offset="0"
   style="stop-color:#666666;stop-opacity:1"
   id="stop4497" />
   <stop
   offset="1"
   style="stop-color:#666666;stop-opacity:1"
   id="stop4499" />
  </linearGradient>
  <linearGradient
   id="id3"
   gradientUnits="userSpaceOnUse"
   x1="11970.7"
   y1="13958.4"
   x2="10302.5"
   y2="11576">
   <stop
   offset="0"
   style="stop-color:#B3B3B3"
   id="stop4502" />
   <stop
   offset="0.568627"
   style="stop-color:#E6E6E6"
   id="stop4504" />
   <stop
   offset="1"
   style="stop-color:#E6E6E6"
   id="stop4506" />
  </linearGradient>
 </defs>
 <g
   id="Layer_x0020_1">
  <metadata
   id="CorelCorpID_0Corel-Layer" />
  <polygon
   class="fil0 str0"
   points="2462,640 12517,640 12517,11554 11100,12326 9802,13945 9686,13975 2462,13975 "
   id="polygon4512" />
  <path
   class="fil1 str0"
   d="M9753 13964c998,-173 2410,-1536 2767,-2393 0,0 -2662,3 -2702,30 -40,26 -64,2363 -64,2363z"
   id="path4514" />
  <rect
   class="fil2"
   x="2738"
   y="784"
   width="9525"
   height="1005"
   id="rect4516" />
  
 <path
   d="m 7395.586,2531.0756 -623.247,1079.2313 h 444.595 V 9126.5544 L 6082.164,8052.4781 c -73.269,-91.4075 -124.667,-211.0062 -127.514,-334.0337 0,-497.6963 -0.13,-793.2524 -0.345,-902.0437 210.1,-73.7437 361.749,-271.83 361.749,-507.3162 0,-297.9063 -241.742,-539.67 -539.755,-539.67 -298.144,0 -539.799,241.7412 -539.799,539.67 0,235.4862 151.562,433.5725 361.49,507.3162 l -0.15,891.4749 c 0,241.6125 132.56,494.785 287.962,655.925 -4.615,-4.4 -9.533,-8.9737 0.09,0.2588 3.84,3.4075 1203.832,1139.5575 1203.832,1139.5575 73.162,91.2137 124.237,210.7475 127.169,333.6887 v 624.0234 c -412.241,82.717 -722.83,446.752 -722.83,883.431 0,497.869 403.571,901.44 901.29,901.44 497.869,0 901.461,-403.571 901.461,-901.44 0,-436.765 -310.847,-800.801 -723.433,-883.517 v -613.0886 c 0,-1.5738 0.09,-3.1488 0,-4.745 V 8487.3669 c 3.127,-122.7038 54.266,-242.0863 127.513,-333.2138 0,0 1199.908,-1135.8924 1203.79,-1139.4074 9.642,-9.1025 4.615,-4.5725 0.09,-0.087 155.38,-161.14 287.855,-414.42 287.855,-656.075 l -0.195,-859.1225 h 361.857 v -1079.51 H 8474.885 V 5499.462 h 361.382 c 0,0 -0.41,226.2762 -0.41,869.6475 -2.825,123.0487 -54.158,242.7775 -127.427,334.1412 L 7573.445,7777.5644 V 3610.3069 h 445.306 z"
   id="path1334"
   inkscape:connector-curvature="0"
   style="fill:#666666;fill-opacity:1;stroke-width:250;stroke:#666666;stroke-opacity:1;stroke-miterlimit:4;stroke-dasharray:none" /></g>
</svg>