<?xml version="1.0" encoding="UTF-8" standalone="no"?>
<!-- Creator: CorelDRAW X6 -->

<svg
   xmlns:osb="http://www.openswatchbook.org/uri/2009/osb"
   xmlns:dc="http://purl.org/dc/elements/1.1/"
   xmlns:cc="http://creativecommons.org/ns#"
   xmlns:rdf="http://www.w3.org/1999/02/22-rdf-syntax-ns#"
   xmlns:svg="http://www.w3.org/2000/svg"
   xmlns="http://www.w3.org/2000/svg"
   xmlns:sodipodi="http://sodipodi.sourceforge.net/DTD/sodipodi-0.dtd"
   xmlns:inkscape="http://www.inkscape.org/namespaces/inkscape"
   xml:space="preserve"
   width="150px"
   height="150px"
   version="1.1"
   style="shape-rendering:geometricPrecision; text-rendering:geometricPrecision; image-rendering:optimizeQuality; fill-rule:evenodd; clip-rule:evenodd"
   viewBox="0 0 15000 15000"
   id="svg4521"
   sodipodi:docname="activate.svg"
   inkscape:version="0.92.1 r15371"><metadata
   id="metadata4525"><rdf:RDF><cc:Work
       rdf:about=""><dc:format>image/svg+xml</dc:format><dc:type
         rdf:resource="http://purl.org/dc/dcmitype/StillImage" /><dc:title></dc:title></cc:Work></rdf:RDF></metadata><sodipodi:namedview
   pagecolor="#ffffff"
   bordercolor="#666666"
   borderopacity="1"
   objecttolerance="10"
   gridtolerance="10"
   guidetolerance="10"
   inkscape:pageopacity="0"
   inkscape:pageshadow="2"
   inkscape:window-width="1920"
   inkscape:window-height="1017"
   id="namedview4523"
   showgrid="false"
   showguides="false"
   inkscape:zoom="2.78"
   inkscape:cx="131.64725"
   inkscape:cy="104.50577"
   inkscape:window-x="1016"
   inkscape:window-y="-8"
   inkscape:window-maximized="1"
   inkscape:current-layer="Layer_x0020_1" />
 <defs
   id="defs4509"><linearGradient
   id="linearGradient13019"
   osb:paint="solid"><stop
     style="stop-color:#d1c313;stop-opacity:1;"
     offset="0"
     id="stop13017" /></linearGradient>
  <style
   type="text/css"
   id="style4485">
   <![CDATA[
    .str1 {stroke:#8BB832;stroke-width:79.375}
    .str0 {stroke:#666666;stroke-width:127}
    .fil2 {fill:url(#id0)}
    .fil0 {fill:url(#id1)}
    .fil3 {fill:url(#id2)}
    .fil1 {fill:url(#id3)}
   ]]>
  </style>
  <linearGradient
   id="id0"
   gradientUnits="userSpaceOnUse"
   x1="2737.98"
   y1="1286.61"
   x2="12263"
   y2="1286.61">
   <stop
   offset="0"
   style="stop-color:#6699FF"
   id="stop4487" />
   <stop
   offset="1"
   style="stop-color:#6666CC"
   id="stop4489" />
  </linearGradient>
  <linearGradient
   id="id1"
   gradientUnits="userSpaceOnUse"
   x1="7489.56"
   y1="13975.2"
   x2="7489.56"
   y2="640.185">
   <stop
   offset="0"
   style="stop-color:#E6E6E6"
   id="stop4492" />
   <stop
   offset="1"
   style="stop-color:white"
   id="stop4494" />
  </linearGradient>
  <linearGradient
   id="id2"
   gradientUnits="userSpaceOnUse"
   x1="7396.82"
   y1="12287.2"
   x2="7396.82"
   y2="2489.91">
   <stop
   offset="0"
   style="stop-color:#666666;stop-opacity:1"
   id="stop4497" />
   <stop
   offset="1"
   style="stop-color:#666666;stop-opacity:1"
   id="stop4499" />
  </linearGradient>
  <linearGradient
   id="id3"
   gradientUnits="userSpaceOnUse"
   x1="11970.7"
   y1="13958.4"
   x2="10302.5"
   y2="11576">
   <stop
   offset="0"
   style="stop-color:#B3B3B3"
   id="stop4502" />
   <stop
   offset="0.568627"
   style="stop-color:#E6E6E6"
   id="stop4504" />
   <stop
   offset="1"
   style="stop-color:#E6E6E6"
   id="stop4506" />
  </linearGradient>
 <clipPath
   id="id0-6"><path
     inkscape:connector-curvature="0"
     d="m 1613,9377 h 6795 c 524,0 952,-428 952,-952 V 1630 c 0,-524 -428,-952 -952,-952 H 1613 c -524,0 -952,428 -952,952 v 6795 c 0,524 428,952 952,952 z"
     id="path8356" /></clipPath></defs>
 <g
   id="Layer_x0020_1">
  <metadata
   id="CorelCorpID_0Corel-Layer" />
  
  
  
  
 <g
   id="g13026"><path
     inkscape:connector-curvature="0"
     id="path9792"
     d="M 8534.2367,6396.0128 C 9322.6854,4834.4681 9286.5156,3100.4016 7982.3227,1795.9484 6272.1958,85.821564 3444.1893,174.29435 1849.8577,2061.8872 464.2178,3702.2767 584.95713,6193.0458 2112.4137,7702.0272 3274.2695,8849.8314 4876.1474,9102.7595 6326.0602,8603.9291 l 735.8853,750.7176 H 8370.0417 V 10395.503 H 9410.898 v 1040.856 h 1301.07 v 1301.071 h 780.643 v 722.354 c 0,209.993 10.148,272.184 143.377,405.153 100.964,100.963 234.714,162.634 377.051,173.563 h 2081.712 V 11696.573 Z M 4854.2894,4556.0391 c -508.1981,508.1981 -1331.7756,508.1981 -1839.9737,0 -508.1981,-508.1981 -508.1981,-1331.7756 0,-1839.9737 508.1981,-508.1981 1331.7756,-508.1981 1839.9737,0 507.9378,507.9378 507.9378,1331.7756 0,1839.9737 z"
     style="fill:#fbe805;fill-opacity:1;stroke:#d1c313;stroke-opacity:1;stroke-width:500;stroke-miterlimit:4;stroke-dasharray:none" /><path
     inkscape:connector-curvature="0"
     id="path9794"
     d="m 7849.8737,7533.1482 -1460.0611,1135.5742 672.3932,685.9243 h 1308.0961 v 1040.8563 h 1040.8563 v 1040.856 h 1301.0708 v 1301.071 h 780.642 v 722.354 c 0,209.993 10.148,272.184 143.378,405.153 100.963,100.963 234.713,162.634 377.05,173.563 h 2081.712 v -260.214 z"
     style="fill:#d1c313;fill-opacity:1" /><path
     inkscape:connector-curvature="0"
     id="path9796"
     d="m 3946.6627,1808.4387 c -1005.9876,0 -1821.4985,815.5109 -1821.4985,1821.4985 0,1005.9876 815.5109,1821.4985 1821.4985,1821.4985 1005.9876,0 1821.4985,-815.5109 1821.4985,-1821.4985 0,-1005.9876 -815.5109,-1821.4985 -1821.4985,-1821.4985 z m 0,3122.5688 c -718.4511,0 -1301.0704,-582.6193 -1301.0704,-1301.0703 0,-718.451 582.6193,-1301.0704 1301.0704,-1301.0704 718.451,0 1301.0703,582.6194 1301.0703,1301.0704 0,718.451 -582.359,1301.0703 -1301.0703,1301.0703 z"
     style="fill:#d1c313;fill-opacity:1" /></g></g>
</svg>