<?xml version="1.0" encoding="UTF-8" standalone="no"?>
<!-- Creator: CorelDRAW X6 -->

<svg
   xmlns:dc="http://purl.org/dc/elements/1.1/"
   xmlns:cc="http://creativecommons.org/ns#"
   xmlns:rdf="http://www.w3.org/1999/02/22-rdf-syntax-ns#"
   xmlns:svg="http://www.w3.org/2000/svg"
   xmlns="http://www.w3.org/2000/svg"
   xmlns:sodipodi="http://sodipodi.sourceforge.net/DTD/sodipodi-0.dtd"
   xmlns:inkscape="http://www.inkscape.org/namespaces/inkscape"
   xml:space="preserve"
   width="150px"
   height="150px"
   version="1.1"
   style="shape-rendering:geometricPrecision; text-rendering:geometricPrecision; image-rendering:optimizeQuality; fill-rule:evenodd; clip-rule:evenodd"
   viewBox="0 0 15000 15000"
   id="svg4521"
   sodipodi:docname="uploadProgramSmal.svg"
   inkscape:version="0.92.1 r15371"><metadata
   id="metadata4525"><rdf:RDF><cc:Work
       rdf:about=""><dc:format>image/svg+xml</dc:format><dc:type
         rdf:resource="http://purl.org/dc/dcmitype/StillImage" /><dc:title></dc:title></cc:Work></rdf:RDF></metadata><sodipodi:namedview
   pagecolor="#ffffff"
   bordercolor="#666666"
   borderopacity="1"
   objecttolerance="10"
   gridtolerance="10"
   guidetolerance="10"
   inkscape:pageopacity="0"
   inkscape:pageshadow="2"
   inkscape:window-width="1920"
   inkscape:window-height="1017"
   id="namedview4523"
   showgrid="false"
   showguides="false"
   inkscape:zoom="5.56"
   inkscape:cx="75"
   inkscape:cy="75"
   inkscape:window-x="-8"
   inkscape:window-y="-8"
   inkscape:window-maximized="1"
   inkscape:current-layer="Layer_x0020_1" />
 <defs
   id="defs4509">
  <style
   type="text/css"
   id="style4485">
   <![CDATA[
    .str1 {stroke:#8BB832;stroke-width:79.375}
    .str0 {stroke:#666666;stroke-width:127}
    .fil2 {fill:url(#id0)}
    .fil0 {fill:url(#id1)}
    .fil3 {fill:url(#id2)}
    .fil1 {fill:url(#id3)}
   ]]>
  </style>
  <linearGradient
   id="id0"
   gradientUnits="userSpaceOnUse"
   x1="2737.98"
   y1="1286.61"
   x2="12263"
   y2="1286.61">
   <stop
   offset="0"
   style="stop-color:#6699FF"
   id="stop4487" />
   <stop
   offset="1"
   style="stop-color:#6666CC"
   id="stop4489" />
  </linearGradient>
  <linearGradient
   id="id1"
   gradientUnits="userSpaceOnUse"
   x1="7489.56"
   y1="13975.2"
   x2="7489.56"
   y2="640.185">
   <stop
   offset="0"
   style="stop-color:#E6E6E6"
   id="stop4492" />
   <stop
   offset="1"
   style="stop-color:white"
   id="stop4494" />
  </linearGradient>
  <linearGradient
   id="id2"
   gradientUnits="userSpaceOnUse"
   x1="7396.82"
   y1="12287.2"
   x2="7396.82"
   y2="2489.91">
   <stop
   offset="0"
   style="stop-color:#666666;stop-opacity:1"
   id="stop4497" />
   <stop
   offset="1"
   style="stop-color:#666666;stop-opacity:1"
   id="stop4499" />
  </linearGradient>
  <linearGradient
   id="id3"
   gradientUnits="userSpaceOnUse"
   x1="11970.7"
   y1="13958.4"
   x2="10302.5"
   y2="11576">
   <stop
   offset="0"
   style="stop-color:#B3B3B3"
   id="stop4502" />
   <stop
   offset="0.568627"
   style="stop-color:#E6E6E6"
   id="stop4504" />
   <stop
   offset="1"
   style="stop-color:#E6E6E6"
   id="stop4506" />
  </linearGradient>
 </defs>
 <g
   id="Layer_x0020_1">
  <metadata
   id="CorelCorpID_0Corel-Layer" />
  <polygon
   class="fil0 str0"
   points="2462,640 12517,640 12517,11554 11100,12326 9802,13945 9686,13975 2462,13975 "
   id="polygon4512" />
  <path
   class="fil1 str0"
   d="M9753 13964c998,-173 2410,-1536 2767,-2393 0,0 -2662,3 -2702,30 -40,26 -64,2363 -64,2363z"
   id="path4514" />
  <rect
   class="fil2"
   x="2738"
   y="784"
   width="9525"
   height="1005"
   id="rect4516" />
  <path
   class="fil3 str1"
   d="M8369 11233l-1753 2c-156,0 -283,-127 -283,-282l-6 -4568 -1513 6c-625,3 -577,63 -122,-364 746,-697 1491,-1393 2237,-2090 551,-515 375,-529 921,-25 765,706 1530,1406 2296,2115 451,418 397,340 -213,343l-1287 5 6 4575c0,156 -127,283 -282,283z"
   id="path4518"
   style="stroke:#666666;stroke-opacity:0" />
 </g>
</svg>