<?xml version="1.0" encoding="UTF-8" standalone="no"?>
<!-- Generator: Adobe Illustrator 21.1.0, SVG Export Plug-In . SVG Version: 6.00 Build 0)  -->

<svg
   xmlns:dc="http://purl.org/dc/elements/1.1/"
   xmlns:cc="http://creativecommons.org/ns#"
   xmlns:rdf="http://www.w3.org/1999/02/22-rdf-syntax-ns#"
   xmlns:svg="http://www.w3.org/2000/svg"
   xmlns="http://www.w3.org/2000/svg"
   xmlns:xlink="http://www.w3.org/1999/xlink"
   xmlns:sodipodi="http://sodipodi.sourceforge.net/DTD/sodipodi-0.dtd"
   xmlns:inkscape="http://www.inkscape.org/namespaces/inkscape"
   version="1.1"
   id="Слой_1"
   x="0px"
   y="0px"
   viewBox="0 0 100 100"
   style="enable-background:new 0 0 100 100;"
   xml:space="preserve"
   sodipodi:docname="blynkPropertyBlock.svg"
   inkscape:version="0.92.3 (2405546, 2018-03-11)"><metadata
   id="metadata341"><rdf:RDF><cc:Work
       rdf:about=""><dc:format>image/svg+xml</dc:format><dc:type
         rdf:resource="http://purl.org/dc/dcmitype/StillImage" /><dc:title></dc:title></cc:Work></rdf:RDF></metadata><defs
   id="defs339"><linearGradient
     id="id2-4"
     gradientUnits="userSpaceOnUse"
     x1="5126.96"
     y1="6192.7402"
     x2="5126.96"
     y2="5531.5898"
     gradientTransform="matrix(0.01002112,0,0,0.01002112,-0.29065591,0.07972389)"><stop
       offset="0"
       style="stop-color:#d40055;stop-opacity:1"
       id="stop19118" /><stop
       offset="1"
       style="stop-color:#ff0066;stop-opacity:1"
       id="stop19120" /></linearGradient><radialGradient
     id="id3"
     gradientUnits="userSpaceOnUse"
     cx="4764.8174"
     cy="2349.6577"
     r="1900.5542"
     fx="4764.8174"
     fy="2349.6577"
     gradientTransform="matrix(0.00922928,0,0,0.0108809,-0.29065591,0.07972389)"><stop
       offset="0"
       style="stop-color:white"
       id="stop19123" /><stop
       offset="0.121569"
       style="stop-color:#ff2a7f;stop-opacity:1"
       id="stop19125" /><stop
       offset="0.419608"
       style="stop-color:#ff0066;stop-opacity:1"
       id="stop19127" /><stop
       offset="1"
       style="stop-color:#d40055;stop-opacity:1"
       id="stop19129" /></radialGradient><linearGradient
     inkscape:collect="always"
     xlink:href="#id3-7"
     id="linearGradient14123"
     gradientUnits="userSpaceOnUse"
     x1="2671.7"
     y1="7526.5698"
     x2="7491.29"
     y2="643.47699"
     gradientTransform="matrix(0.01177876,0,0,0.01177876,80.000357,2.0780291)" /><linearGradient
     id="id3-7"
     gradientUnits="userSpaceOnUse"
     x1="2671.7"
     y1="7526.5698"
     x2="7491.29"
     y2="643.47699"><stop
       offset="0"
       style="stop-color:#CCCCCC"
       id="stop13210" /><stop
       offset="0.0509804"
       style="stop-color:#606060"
       id="stop13212" /><stop
       offset="0.25098"
       style="stop-color:#B3B3B3"
       id="stop13214" /><stop
       offset="0.431373"
       style="stop-color:#E6E6E6"
       id="stop13216" /><stop
       offset="0.631373"
       style="stop-color:#CCCCCC"
       id="stop13218" /><stop
       offset="0.788235"
       style="stop-color:#999999"
       id="stop13220" /><stop
       offset="0.94902"
       style="stop-color:#676767"
       id="stop13222" /><stop
       offset="1"
       style="stop-color:#CCCCCC"
       id="stop13224" /></linearGradient><linearGradient
     id="id2-4-0"
     gradientUnits="userSpaceOnUse"
     x1="3590.6799"
     y1="1906.92"
     x2="6627.4702"
     y2="6243.9102"
     gradientTransform="matrix(0.01177876,0,0,0.01177876,80.000357,2.0780291)"><stop
       offset="0"
       style="stop-color:#4D4D4D"
       id="stop13199" /><stop
       offset="0.309804"
       style="stop-color:gray"
       id="stop13201" /><stop
       offset="0.521569"
       style="stop-color:#999999"
       id="stop13203" /><stop
       offset="0.74902"
       style="stop-color:gray"
       id="stop13205" /><stop
       offset="1"
       style="stop-color:#4D4D4D"
       id="stop13207" /></linearGradient><linearGradient
     id="id4"
     gradientUnits="userSpaceOnUse"
     xlink:href="#id3-7"
     x1="3912.46"
     y1="5770.9702"
     x2="6305.6899"
     y2="2353.0801"
     gradientTransform="matrix(0.01177876,0,0,0.01177876,80.000357,2.0780291)" /></defs><sodipodi:namedview
   pagecolor="#ffffff"
   bordercolor="#666666"
   borderopacity="1"
   objecttolerance="10"
   gridtolerance="10"
   guidetolerance="10"
   inkscape:pageopacity="0"
   inkscape:pageshadow="2"
   inkscape:window-width="1920"
   inkscape:window-height="1017"
   id="namedview337"
   showgrid="false"
   inkscape:zoom="2.36"
   inkscape:cx="50"
   inkscape:cy="50"
   inkscape:window-x="-8"
   inkscape:window-y="-8"
   inkscape:window-maximized="1"
   inkscape:current-layer="Слой_1" />
<style
   type="text/css"
   id="style2">
	.st0{fill:#61ABD8;}
	.st1{clip-path:url(#SVGID_2_);}
	.st2{fill-opacity:0;}
	.st3{clip-path:url(#SVGID_4_);}
	.st4{fill:#5FAAD7;}
	.st5{fill:#63ACD8;}
	.st6{fill:#64ACD8;}
	.st7{fill:#66ADD9;}
	.st8{fill:#67AED9;}
	.st9{fill:#69AFDA;}
	.st10{fill:#6BB0DA;}
	.st11{fill:#6CB1DA;}
	.st12{fill:#6EB2DB;}
	.st13{fill:#6FB2DB;}
	.st14{fill:#71B3DC;}
	.st15{fill:#73B4DC;}
	.st16{fill:#74B5DC;}
	.st17{fill:#76B6DD;}
	.st18{fill:#77B7DD;}
	.st19{fill:#79B8DE;}
	.st20{fill:#7AB8DE;}
	.st21{fill:#7CB9DE;}
	.st22{fill:#7EBADF;}
	.st23{fill:#7FBBDF;}
	.st24{fill:none;}
</style>
<g
   id="_124858440">
	<g
   id="_343530368">
		<path
   class="st0"
   d="M14.2,0.4h71.3c7.8,0,14.2,6.3,14.2,14.2v71.3c0,7.8-6.3,14.2-14.2,14.2H14.2C6.4,100,0,93.7,0,85.9V14.5    C0,6.7,6.4,0.4,14.2,0.4z"
   id="path4" />
		<g
   id="g332">
			<g
   id="g16">
				<defs
   id="defs7">
					<path
   id="SVGID_1_"
   d="M15.6,94.1h68.5c5.3,0,9.6-4.3,9.6-9.6V15.9c0-5.3-4.3-9.6-9.6-9.6H15.6c-5.3,0-9.6,4.3-9.6,9.6v68.5       C6,89.8,10.3,94.1,15.6,94.1z" />
				</defs>
				<clipPath
   id="SVGID_2_">
					<use
   xlink:href="#SVGID_1_"
   style="overflow:visible;"
   id="use9" />
				</clipPath>
				<g
   class="st1"
   clip-path="url(#SVGID_2_)"
   id="g14">
					<polygon
   class="st2"
   points="6,6.3 93.7,6.3 93.7,94.1 6,94.1      "
   id="polygon12" />
				</g>
			</g>
			<g
   id="g328">
				<defs
   id="defs19">
					<path
   id="SVGID_3_"
   d="M15.6,94.1h68.5c5.3,0,9.6-4.3,9.6-9.6V15.9c0-5.3-4.3-9.6-9.6-9.6H15.6c-5.3,0-9.6,4.3-9.6,9.6v68.5       C6,89.8,10.3,94.1,15.6,94.1z" />
				</defs>
				<clipPath
   id="SVGID_4_">
					<use
   xlink:href="#SVGID_3_"
   style="overflow:visible;"
   id="use21" />
				</clipPath>
				<g
   class="st3"
   clip-path="url(#SVGID_4_)"
   id="g326">
					<g
   id="g324">
						<polygon
   id="_x31_"
   class="st4"
   points="6,6.3 93.7,6.3 93.7,94.1 6,94.1 6,6.3 6.3,6.6 93.4,6.6 93.4,93.8 6.3,93.8 6.3,6.6               " />
						<polygon
   id="_1"
   class="st4"
   points="6.2,6.5 93.6,6.5 93.6,93.9 6.2,93.9 6.2,6.5 6.4,6.8 93.3,6.8 93.3,93.6 6.4,93.6         6.4,6.8       " />
						<polygon
   id="_2"
   class="st4"
   points="6.3,6.6 93.4,6.6 93.4,93.8 6.3,93.8 6.3,6.6 6.6,6.9 93.1,6.9 93.1,93.5 6.6,93.5         6.6,6.9       " />
						<polygon
   id="_3"
   class="st0"
   points="6.4,6.8 93.3,6.8 93.3,93.6 6.4,93.6 6.4,6.8 6.7,7.1 93,7.1 93,93.3 6.7,93.3 6.7,7.1               " />
						<polygon
   id="_4"
   class="st0"
   points="6.6,6.9 93.1,6.9 93.1,93.5 6.6,93.5 6.6,6.9 6.9,7.2 92.8,7.2 92.8,93.2 6.9,93.2         6.9,7.2       " />
						<polygon
   id="_5"
   class="st0"
   points="6.7,7.1 93,7.1 93,93.3 6.7,93.3 6.7,7.1 7,7.4 92.7,7.4 92.7,93 7,93 7,7.4       " />
						<polygon
   id="_6"
   class="st0"
   points="6.9,7.2 92.8,7.2 92.8,93.2 6.9,93.2 6.9,7.2 7.2,7.5 92.6,7.5 92.6,92.9 7.2,92.9         7.2,7.5       " />
						<polygon
   id="_7"
   class="st5"
   points="7,7.4 92.7,7.4 92.7,93 7,93 7,7.4 7.3,7.7 92.4,7.7 92.4,92.8 7.3,92.8 7.3,7.7               " />
						<polygon
   id="_8"
   class="st5"
   points="7.2,7.5 92.6,7.5 92.6,92.9 7.2,92.9 7.2,7.5 7.5,7.8 92.3,7.8 92.3,92.6 7.5,92.6         7.5,7.8       " />
						<polygon
   id="_9"
   class="st5"
   points="7.3,7.7 92.4,7.7 92.4,92.8 7.3,92.8 7.3,7.7 7.6,7.9 92.1,7.9 92.1,92.5 7.6,92.5         7.6,7.9       " />
						<polygon
   id="_10"
   class="st6"
   points="7.5,7.8 92.3,7.8 92.3,92.6 7.5,92.6 7.5,7.8 7.8,8.1 92,8.1 92,92.3 7.8,92.3 7.8,8.1               " />
						<polygon
   id="_11"
   class="st6"
   points="7.6,7.9 92.1,7.9 92.1,92.5 7.6,92.5 7.6,7.9 7.9,8.2 91.8,8.2 91.8,92.2 7.9,92.2         7.9,8.2       " />
						<polygon
   id="_12"
   class="st6"
   points="7.8,8.1 92,8.1 92,92.3 7.8,92.3 7.8,8.1 8.1,8.4 91.7,8.4 91.7,92 8.1,92 8.1,8.4               " />
						<polygon
   id="_13"
   class="st7"
   points="7.9,8.2 91.8,8.2 91.8,92.2 7.9,92.2 7.9,8.2 8.2,8.5 91.5,8.5 91.5,91.9 8.2,91.9         8.2,8.5       " />
						<polygon
   id="_14"
   class="st7"
   points="8.1,8.4 91.7,8.4 91.7,92 8.1,92 8.1,8.4 8.3,8.7 91.4,8.7 91.4,91.7 8.3,91.7 8.3,8.7               " />
						<polygon
   id="_15"
   class="st7"
   points="8.2,8.5 91.5,8.5 91.5,91.9 8.2,91.9 8.2,8.5 8.5,8.8 91.2,8.8 91.2,91.6 8.5,91.6         8.5,8.8       " />
						<polygon
   id="_16"
   class="st7"
   points="8.3,8.7 91.4,8.7 91.4,91.7 8.3,91.7 8.3,8.7 8.6,9 91.1,9 91.1,91.4 8.6,91.4 8.6,9               " />
						<polygon
   id="_17"
   class="st8"
   points="8.5,8.8 91.2,8.8 91.2,91.6 8.5,91.6 8.5,8.8 8.8,9.1 90.9,9.1 90.9,91.3 8.8,91.3         8.8,9.1       " />
						<polygon
   id="_18"
   class="st8"
   points="8.6,9 91.1,9 91.1,91.4 8.6,91.4 8.6,9 8.9,9.3 90.8,9.3 90.8,91.2 8.9,91.2 8.9,9.3               " />
						<polygon
   id="_19"
   class="st9"
   points="8.8,9.1 90.9,9.1 90.9,91.3 8.8,91.3 8.8,9.1 9.1,9.4 90.7,9.4 90.7,91 9.1,91 9.1,9.4               " />
						<polygon
   id="_20"
   class="st9"
   points="8.9,9.3 90.8,9.3 90.8,91.2 8.9,91.2 8.9,9.3 9.2,9.6 90.5,9.6 90.5,90.8 9.2,90.8         9.2,9.6       " />
						<polygon
   id="_21"
   class="st9"
   points="9.1,9.4 90.7,9.4 90.7,91 9.1,91 9.1,9.4 9.4,9.7 90.4,9.7 90.4,90.7 9.4,90.7 9.4,9.7               " />
						<polygon
   id="_22"
   class="st9"
   points="9.2,9.6 90.5,9.6 90.5,90.8 9.2,90.8 9.2,9.6 9.5,9.8 90.2,9.8 90.2,90.6 9.5,90.6         9.5,9.8       " />
						<polygon
   id="_23"
   class="st10"
   points="9.4,9.7 90.4,9.7 90.4,90.7 9.4,90.7 9.4,9.7 9.6,10 90.1,10 90.1,90.4 9.6,90.4         9.6,10       " />
						<polygon
   id="_24"
   class="st10"
   points="9.5,9.8 90.2,9.8 90.2,90.6 9.5,90.6 9.5,9.8 9.8,10.1 89.9,10.1 89.9,90.3 9.8,90.3         9.8,10.1       " />
						<polygon
   id="_25"
   class="st11"
   points="9.6,10 90.1,10 90.1,90.4 9.6,90.4 9.6,10 9.9,10.3 89.8,10.3 89.8,90.1 9.9,90.1         9.9,10.3       " />
						<polygon
   id="_26"
   class="st11"
   points="9.8,10.1 89.9,10.1 89.9,90.3 9.8,90.3 9.8,10.1 10.1,10.4 89.6,10.4 89.6,90 10.1,90         10.1,10.4       " />
						<polygon
   id="_27"
   class="st11"
   points="9.9,10.3 89.8,10.3 89.8,90.1 9.9,90.1 9.9,10.3 10.2,10.6 89.5,10.6 89.5,89.8         10.2,89.8 10.2,10.6       " />
						<polygon
   id="_28"
   class="st11"
   points="10.1,10.4 89.6,10.4 89.6,90 10.1,90 10.1,10.4 10.4,10.7 89.3,10.7 89.3,89.7         10.4,89.7 10.4,10.7       " />
						<polygon
   id="_29"
   class="st12"
   points="10.2,10.6 89.5,10.6 89.5,89.8 10.2,89.8 10.2,10.6 10.5,10.9 89.2,10.9 89.2,89.5         10.5,89.5 10.5,10.9       " />
						<polygon
   id="_30"
   class="st12"
   points="10.4,10.7 89.3,10.7 89.3,89.7 10.4,89.7 10.4,10.7 10.7,11 89,11 89,89.4 10.7,89.4         10.7,11       " />
						<polygon
   id="_31"
   class="st12"
   points="10.5,10.9 89.2,10.9 89.2,89.5 10.5,89.5 10.5,10.9 10.8,11.2 88.9,11.2 88.9,89.3         10.8,89.3 10.8,11.2       " />
						<polygon
   id="_32"
   class="st12"
   points="10.7,11 89,11 89,89.4 10.7,89.4 10.7,11 11,11.3 88.8,11.3 88.8,89.1 11,89.1         11,11.3       " />
						<polygon
   id="_33"
   class="st13"
   points="10.8,11.2 88.9,11.2 88.9,89.3 10.8,89.3 10.8,11.2 11.1,11.5 88.6,11.5 88.6,88.9         11.1,88.9 11.1,11.5       " />
						<polygon
   id="_34"
   class="st13"
   points="11,11.3 88.8,11.3 88.8,89.1 11,89.1 11,11.3 11.3,11.6 88.5,11.6 88.5,88.8         11.3,88.8 11.3,11.6       " />
						<polygon
   id="_35"
   class="st13"
   points="11.1,11.5 88.6,11.5 88.6,88.9 11.1,88.9 11.1,11.5 11.4,11.8 88.3,11.8 88.3,88.7         11.4,88.7 11.4,11.8       " />
						<polygon
   id="_36"
   class="st14"
   points="11.3,11.6 88.5,11.6 88.5,88.8 11.3,88.8 11.3,11.6 11.6,11.9 88.2,11.9 88.2,88.5         11.6,88.5 11.6,11.9       " />
						<polygon
   id="_37"
   class="st14"
   points="11.4,11.8 88.3,11.8 88.3,88.7 11.4,88.7 11.4,11.8 11.7,12 88,12 88,88.4 11.7,88.4         11.7,12       " />
						<polygon
   id="_38"
   class="st14"
   points="11.6,11.9 88.2,11.9 88.2,88.5 11.6,88.5 11.6,11.9 11.8,12.2 87.9,12.2 87.9,88.2         11.8,88.2 11.8,12.2       " />
						<polygon
   id="_39"
   class="st14"
   points="11.7,12 88,12 88,88.4 11.7,88.4 11.7,12 12,12.3 87.7,12.3 87.7,88.1 12,88.1         12,12.3       " />
						<polygon
   id="_40"
   class="st15"
   points="11.8,12.2 87.9,12.2 87.9,88.2 11.8,88.2 11.8,12.2 12.1,12.5 87.6,12.5 87.6,87.9         12.1,87.9 12.1,12.5       " />
						<polygon
   id="_41"
   class="st15"
   points="12,12.3 87.7,12.3 87.7,88.1 12,88.1 12,12.3 12.3,12.6 87.4,12.6 87.4,87.8         12.3,87.8 12.3,12.6       " />
						<polygon
   id="_42"
   class="st16"
   points="12.1,12.5 87.6,12.5 87.6,87.9 12.1,87.9 12.1,12.5 12.4,12.8 87.3,12.8 87.3,87.6         12.4,87.6 12.4,12.8       " />
						<polygon
   id="_43"
   class="st16"
   points="12.3,12.6 87.4,12.6 87.4,87.8 12.3,87.8 12.3,12.6 12.6,12.9 87.2,12.9 87.2,87.5         12.6,87.5 12.6,12.9       " />
						<polygon
   id="_44"
   class="st16"
   points="12.4,12.8 87.3,12.8 87.3,87.6 12.4,87.6 12.4,12.8 12.7,13.1 87,13.1 87,87.3         12.7,87.3 12.7,13.1       " />
						<polygon
   id="_45"
   class="st16"
   points="12.6,12.9 87.2,12.9 87.2,87.5 12.6,87.5 12.6,12.9 12.9,13.2 86.9,13.2 86.9,87.2         12.9,87.2 12.9,13.2       " />
						<polygon
   id="_46"
   class="st17"
   points="12.7,13.1 87,13.1 87,87.3 12.7,87.3 12.7,13.1 13,13.4 86.7,13.4 86.7,87 13,87         13,13.4       " />
						<polygon
   id="_47"
   class="st17"
   points="12.9,13.2 86.9,13.2 86.9,87.2 12.9,87.2 12.9,13.2 13.2,13.5 86.6,13.5 86.6,86.9         13.2,86.9 13.2,13.5       " />
						<polygon
   id="_48"
   class="st18"
   points="13,13.4 86.7,13.4 86.7,87 13,87 13,13.4 13.3,13.6 86.4,13.6 86.4,86.8 13.3,86.8         13.3,13.6       " />
						<polygon
   id="_49"
   class="st18"
   points="13.2,13.5 86.6,13.5 86.6,86.9 13.2,86.9 13.2,13.5 13.5,13.8 86.3,13.8 86.3,86.6         13.5,86.6 13.5,13.8       " />
						<polygon
   id="_50"
   class="st18"
   points="13.3,13.6 86.4,13.6 86.4,86.8 13.3,86.8 13.3,13.6 13.6,13.9 86.1,13.9 86.1,86.5         13.6,86.5 13.6,13.9       " />
						<polygon
   id="_51"
   class="st18"
   points="13.5,13.8 86.3,13.8 86.3,86.6 13.5,86.6 13.5,13.8 13.8,14.1 86,14.1 86,86.3         13.8,86.3 13.8,14.1       " />
						<polygon
   id="_52"
   class="st19"
   points="13.6,13.9 86.1,13.9 86.1,86.5 13.6,86.5 13.6,13.9 13.9,14.2 85.8,14.2 85.8,86.2         13.9,86.2 13.9,14.2       " />
						<polygon
   id="_53"
   class="st19"
   points="13.8,14.1 86,14.1 86,86.3 13.8,86.3 13.8,14.1 14,14.4 85.7,14.4 85.7,86 14,86         14,14.4       " />
						<polygon
   id="_54"
   class="st20"
   points="13.9,14.2 85.8,14.2 85.8,86.2 13.9,86.2 13.9,14.2 14.2,14.5 85.5,14.5 85.5,85.9         14.2,85.9 14.2,14.5       " />
						<polygon
   id="_55"
   class="st20"
   points="14,14.4 85.7,14.4 85.7,86 14,86 14,14.4 14.3,14.7 85.4,14.7 85.4,85.7 14.3,85.7         14.3,14.7       " />
						<polygon
   id="_56"
   class="st20"
   points="14.2,14.5 85.5,14.5 85.5,85.9 14.2,85.9 14.2,14.5 14.5,14.8 85.3,14.8 85.3,85.6         14.5,85.6 14.5,14.8       " />
						<polygon
   id="_57"
   class="st20"
   points="14.3,14.7 85.4,14.7 85.4,85.7 14.3,85.7 14.3,14.7 14.6,15 85.1,15 85.1,85.4         14.6,85.4 14.6,15       " />
						<polygon
   id="_58"
   class="st21"
   points="14.5,14.8 85.3,14.8 85.3,85.6 14.5,85.6 14.5,14.8 14.8,15.1 85,15.1 85,85.3         14.8,85.3 14.8,15.1       " />
						<polygon
   id="_59"
   class="st21"
   points="14.6,15 85.1,15 85.1,85.4 14.6,85.4 14.6,15 14.9,15.3 84.8,15.3 84.8,85.2         14.9,85.2 14.9,15.3       " />
						<polygon
   id="_60"
   class="st21"
   points="14.8,15.1 85,15.1 85,85.3 14.8,85.3 14.8,15.1 15.1,15.4 84.7,15.4 84.7,85 15.1,85         15.1,15.4       " />
						<polygon
   id="_61"
   class="st21"
   points="14.9,15.3 84.8,15.3 84.8,85.2 14.9,85.2 14.9,15.3 15.2,15.5 84.5,15.5 84.5,84.9         15.2,84.9 15.2,15.5       " />
						<polygon
   id="_62"
   class="st22"
   points="15.1,15.4 84.7,15.4 84.7,85 15.1,85 15.1,15.4 15.4,15.7 84.4,15.7 84.4,84.7         15.4,84.7 15.4,15.7       " />
						<polygon
   id="_63"
   class="st22"
   points="15.2,15.5 84.5,15.5 84.5,84.9 15.2,84.9 15.2,15.5 15.5,15.8 84.2,15.8 84.2,84.6         15.5,84.6 15.5,15.8       " />
						<polygon
   id="_64"
   class="st23"
   points="15.4,15.7 84.4,15.7 84.4,84.7 15.4,84.7 15.4,15.7 15.6,16 84.1,16 84.1,84.4         15.6,84.4 15.6,16       " />
						<polygon
   id="_65"
   class="st23"
   points="15.5,15.8 84.2,15.8 84.2,84.6 15.5,84.6 15.5,15.8 15.8,16.1 83.9,16.1 83.9,84.3         15.8,84.3 15.8,16.1       " />
						<polygon
   id="_66"
   class="st23"
   points="15.6,16 84.1,16 84.1,84.4 15.6,84.4 15.6,16 15.9,16.3 83.8,16.3 83.8,84.1         15.9,84.1 15.9,16.3       " />
						<polygon
   id="_67"
   class="st23"
   points="15.8,16.1 83.9,16.1 83.9,84.3 15.8,84.3 15.8,16.1 16.1,16.4 83.6,16.4 83.6,84         16.1,84 16.1,16.4       " />
						<polygon
   id="_68"
   class="st23"
   points="15.9,16.3 83.8,16.3 83.8,84.1 15.9,84.1 15.9,16.3 16.2,16.6 83.5,16.6 83.5,83.8         16.2,83.8 16.2,16.6       " />
						<polygon
   id="_69"
   class="st23"
   points="16.1,16.4 83.6,16.4 83.6,84 16.1,84 16.1,16.4 16.4,16.7 83.3,16.7 83.3,83.7         16.4,83.7 16.4,16.7       " />
						<polygon
   id="_70"
   class="st23"
   points="16.2,16.6 83.5,16.6 83.5,83.8 16.2,83.8 16.2,16.6 16.5,16.9 83.2,16.9 83.2,83.5         16.5,83.5 16.5,16.9       " />
						<polygon
   id="_71"
   class="st23"
   points="16.4,16.7 83.3,16.7 83.3,83.7 16.4,83.7 16.4,16.7 16.7,17 83.1,17 83.1,83.4         16.7,83.4 16.7,17       " />
						<polygon
   id="_72"
   class="st23"
   points="16.5,16.9 83.2,16.9 83.2,83.5 16.5,83.5 16.5,16.9 16.8,17.2 82.9,17.2 82.9,83.3         16.8,83.3 16.8,17.2       " />
						<polygon
   id="_73"
   class="st23"
   points="16.7,17 83.1,17 83.1,83.4 16.7,83.4 16.7,17 17,17.3 82.8,17.3 82.8,83.1 17,83.1         17,17.3       " />
						<polygon
   id="_74"
   class="st23"
   points="16.8,17.2 82.9,17.2 82.9,83.3 16.8,83.3 16.8,17.2 17.1,17.4 82.6,17.4 82.6,83         17.1,83 17.1,17.4       " />
						<polygon
   id="_75"
   class="st23"
   points="17,17.3 82.8,17.3 82.8,83.1 17,83.1 17,17.3 17.3,17.6 82.5,17.6 82.5,82.8         17.3,82.8 17.3,17.6       " />
						<polygon
   id="_76"
   class="st23"
   points="17.1,17.4 82.6,17.4 82.6,83 17.1,83 17.1,17.4 17.4,17.8 82.3,17.8 82.3,82.7         17.4,82.7 17.4,17.8       " />
						<polygon
   id="_77"
   class="st23"
   points="17.3,17.6 82.5,17.6 82.5,82.8 17.3,82.8 17.3,17.6 17.5,17.9 82.2,17.9 82.2,82.5         17.5,82.5 17.5,17.9       " />
						<polygon
   id="_78"
   class="st23"
   points="17.4,17.8 82.3,17.8 82.3,82.7 17.4,82.7 17.4,17.8 17.7,18 82,18 82,82.4 17.7,82.4         17.7,18       " />
						<polygon
   id="_79"
   class="st23"
   points="17.5,17.9 82.2,17.9 82.2,82.5 17.5,82.5 17.5,17.9 17.8,18.2 81.9,18.2 81.9,82.2         17.8,82.2 17.8,18.2       " />
						<polygon
   id="_80"
   class="st23"
   points="17.7,18 82,18 82,82.4 17.7,82.4 17.7,18 18,18.3 81.7,18.3 81.7,82.1 18,82.1         18,18.3       " />
						<polygon
   id="_81"
   class="st23"
   points="17.8,18.2 81.9,18.2 81.9,82.2 17.8,82.2 17.8,18.2 18.1,18.5 81.6,18.5 81.6,81.9         18.1,81.9 18.1,18.5       " />
						<polygon
   id="_82"
   class="st23"
   points="18,18.3 81.7,18.3 81.7,82.1 18,82.1 18,18.3 18.3,18.6 81.4,18.6 81.4,81.8         18.3,81.8 18.3,18.6       " />
						<polygon
   id="_83"
   class="st23"
   points="18.1,18.5 81.6,18.5 81.6,81.9 18.1,81.9 18.1,18.5 18.4,18.8 81.3,18.8 81.3,81.6         18.4,81.6 18.4,18.8       " />
						<polygon
   id="_84"
   class="st23"
   points="18.3,18.6 81.4,18.6 81.4,81.8 18.3,81.8 18.3,18.6 18.6,18.9 81.2,18.9 81.2,81.5         18.6,81.5 18.6,18.9       " />
						<polygon
   id="_85"
   class="st23"
   points="18.4,18.8 81.3,18.8 81.3,81.6 18.4,81.6 18.4,18.8 18.7,19.1 81,19.1 81,81.3         18.7,81.3 18.7,19.1       " />
						<polygon
   id="_86"
   class="st23"
   points="18.6,18.9 81.2,18.9 81.2,81.5 18.6,81.5 18.6,18.9 18.9,19.2 80.9,19.2 80.9,81.2         18.9,81.2 18.9,19.2       " />
						<polygon
   id="_87"
   class="st23"
   points="18.7,19.1 81,19.1 81,81.3 18.7,81.3 18.7,19.1 19,19.4 80.7,19.4 80.7,81.1 19,81.1         19,19.4       " />
						<polygon
   id="_88"
   class="st23"
   points="18.9,19.2 80.9,19.2 80.9,81.2 18.9,81.2 18.9,19.2 19.2,19.5 80.6,19.5 80.6,80.9         19.2,80.9 19.2,19.5       " />
						<polygon
   id="_89"
   class="st23"
   points="19,19.4 80.7,19.4 80.7,81.1 19,81.1 19,19.4 19.3,19.6 80.4,19.6 80.4,80.8         19.3,80.8 19.3,19.6       " />
						<polygon
   id="_90"
   class="st23"
   points="19.2,19.5 80.6,19.5 80.6,80.9 19.2,80.9 19.2,19.5 19.4,19.8 80.3,19.8 80.3,80.6         19.4,80.6 19.4,19.8       " />
						<polygon
   id="_91"
   class="st23"
   points="19.3,19.6 80.4,19.6 80.4,80.8 19.3,80.8 19.3,19.6 19.6,19.9 80.1,19.9 80.1,80.5         19.6,80.5 19.6,19.9       " />
						<polygon
   id="_92"
   class="st23"
   points="19.4,19.8 80.3,19.8 80.3,80.6 19.4,80.6 19.4,19.8 19.7,20.1 80,20.1 80,80.3         19.7,80.3 19.7,20.1       " />
						<polygon
   id="_93"
   class="st23"
   points="19.6,19.9 80.1,19.9 80.1,80.5 19.6,80.5 19.6,19.9 19.9,20.2 79.8,20.2 79.8,80.2         19.9,80.2 19.9,20.2       " />
						<polygon
   id="_94"
   class="st23"
   points="19.7,20.1 80,20.1 80,80.3 19.7,80.3 19.7,20.1 20,20.4 79.7,20.4 79.7,80 20,80         20,20.4       " />
						<polygon
   id="_95"
   class="st23"
   points="19.9,20.2 79.8,20.2 79.8,80.2 19.9,80.2 19.9,20.2 20.2,20.5 79.5,20.5 79.5,79.9         20.2,79.9 20.2,20.5       " />
						<polygon
   id="_96"
   class="st23"
   points="20,20.4 79.7,20.4 79.7,80 20,80 20,20.4 20.3,20.7 79.4,20.7 79.4,79.7 20.3,79.7         20.3,20.7       " />
						<polygon
   id="_97"
   class="st23"
   points="20.2,20.5 79.5,20.5 79.5,79.9 20.2,79.9 20.2,20.5 20.5,20.8 79.3,20.8 79.3,79.6         20.5,79.6 20.5,20.8       " />
						<polygon
   id="_98"
   class="st23"
   points="20.3,20.7 79.4,20.7 79.4,79.7 20.3,79.7 20.3,20.7 20.6,21 79.1,21 79.1,79.4         20.6,79.4 20.6,21       " />
						<polygon
   id="_99"
   class="st23"
   points="20.5,20.8 79.3,20.8 79.3,79.6 20.5,79.6 20.5,20.8 20.8,21.1 79,21.1 79,79.3         20.8,79.3 20.8,21.1       " />
						<polygon
   id="_100"
   class="st23"
   points="20.6,21 79.1,21 79.1,79.4 20.6,79.4 20.6,21 20.9,21.3 78.8,21.3 78.8,79.2         20.9,79.2 20.9,21.3       " />
						<polygon
   id="_101"
   class="st23"
   points="20.8,21.1 79,21.1 79,79.3 20.8,79.3 20.8,21.1 21.1,21.4 78.7,21.4 78.7,79 21.1,79         21.1,21.4       " />
						<polygon
   id="_102"
   class="st23"
   points="20.9,21.3 78.8,21.3 78.8,79.2 20.9,79.2 20.9,21.3 21.2,21.5 78.5,21.5 78.5,78.9         21.2,78.9 21.2,21.5       " />
						<polygon
   id="_103"
   class="st23"
   points="21.1,21.4 78.7,21.4 78.7,79 21.1,79 21.1,21.4 21.4,21.7 78.4,21.7 78.4,78.7         21.4,78.7 21.4,21.7       " />
						<polygon
   id="_104"
   class="st23"
   points="21.2,21.5 78.5,21.5 78.5,78.9 21.2,78.9 21.2,21.5 21.5,21.8 78.2,21.8 78.2,78.6         21.5,78.6 21.5,21.8       " />
						<polygon
   id="_105"
   class="st23"
   points="21.4,21.7 78.4,21.7 78.4,78.7 21.4,78.7 21.4,21.7 21.6,22 78.1,22 78.1,78.4         21.6,78.4 21.6,22       " />
						<polygon
   id="_106"
   class="st23"
   points="21.5,21.8 78.2,21.8 78.2,78.6 21.5,78.6 21.5,21.8 21.8,22.1 77.9,22.1 77.9,78.3         21.8,78.3 21.8,22.1       " />
						<polygon
   id="_107"
   class="st23"
   points="21.6,22 78.1,22 78.1,78.4 21.6,78.4 21.6,22 21.9,22.3 77.8,22.3 77.8,78.1         21.9,78.1 21.9,22.3       " />
						<polygon
   id="_108"
   class="st23"
   points="21.8,22.1 77.9,22.1 77.9,78.3 21.8,78.3 21.8,22.1 22.1,22.4 77.7,22.4 77.7,78         22.1,78 22.1,22.4       " />
						<polygon
   id="_109"
   class="st23"
   points="21.9,22.3 77.8,22.3 77.8,78.1 21.9,78.1 21.9,22.3 22.2,22.6 77.5,22.6 77.5,77.8         22.2,77.8 22.2,22.6       " />
						<polygon
   id="_110"
   class="st23"
   points="22.1,22.4 77.7,22.4 77.7,78 22.1,78 22.1,22.4 22.4,22.7 77.3,22.7 77.3,77.7         22.4,77.7 22.4,22.7       " />
						<polygon
   id="_111"
   class="st23"
   points="22.2,22.6 77.5,22.6 77.5,77.8 22.2,77.8 22.2,22.6 22.5,22.9 77.2,22.9 77.2,77.5         22.5,77.5 22.5,22.9       " />
						<polygon
   id="_112"
   class="st23"
   points="22.4,22.7 77.3,22.7 77.3,77.7 22.4,77.7 22.4,22.7 22.7,23 77.1,23 77.1,77.4         22.7,77.4 22.7,23       " />
						<polygon
   id="_113"
   class="st23"
   points="22.5,22.9 77.2,22.9 77.2,77.5 22.5,77.5 22.5,22.9 22.8,23.2 76.9,23.2 76.9,77.3         22.8,77.3 22.8,23.2       " />
						<polygon
   id="_114"
   class="st23"
   points="22.7,23 77.1,23 77.1,77.4 22.7,77.4 22.7,23 23,23.3 76.8,23.3 76.8,77.1 23,77.1         23,23.3       " />
						<polygon
   id="_115"
   class="st23"
   points="22.8,23.2 76.9,23.2 76.9,77.3 22.8,77.3 22.8,23.2 23.1,23.4 76.6,23.4 76.6,77         23.1,77 23.1,23.4       " />
						<polygon
   id="_116"
   class="st23"
   points="23,23.3 76.8,23.3 76.8,77.1 23,77.1 23,23.3 23.3,23.6 76.5,23.6 76.5,76.8         23.3,76.8 23.3,23.6       " />
						<polygon
   id="_117"
   class="st23"
   points="23.1,23.4 76.6,23.4 76.6,77 23.1,77 23.1,23.4 23.4,23.7 76.3,23.7 76.3,76.7         23.4,76.7 23.4,23.7       " />
						<polygon
   id="_118"
   class="st23"
   points="23.3,23.6 76.5,23.6 76.5,76.8 23.3,76.8 23.3,23.6 23.5,23.9 76.2,23.9 76.2,76.5         23.5,76.5 23.5,23.9       " />
						<polygon
   id="_119"
   class="st23"
   points="23.4,23.7 76.3,23.7 76.3,76.7 23.4,76.7 23.4,23.7 23.7,24 76,24 76,76.4 23.7,76.4         23.7,24       " />
						<polygon
   id="_120"
   class="st23"
   points="23.5,23.9 76.2,23.9 76.2,76.5 23.5,76.5 23.5,23.9 23.8,24.2 75.9,24.2 75.9,76.2         23.8,76.2 23.8,24.2       " />
						<polygon
   id="_121"
   class="st23"
   points="23.7,24 76,24 76,76.4 23.7,76.4 23.7,24 24,24.3 75.7,24.3 75.7,76.1 24,76.1         24,24.3       " />
						<polygon
   id="_122"
   class="st23"
   points="23.8,24.2 75.9,24.2 75.9,76.2 23.8,76.2 23.8,24.2 24.1,24.5 75.6,24.5 75.6,75.9         24.1,75.9 24.1,24.5       " />
						<polygon
   id="_123"
   class="st23"
   points="24,24.3 75.7,24.3 75.7,76.1 24,76.1 24,24.3 24.3,24.6 75.4,24.6 75.4,75.8         24.3,75.8 24.3,24.6       " />
						<polygon
   id="_124"
   class="st23"
   points="24.1,24.5 75.6,24.5 75.6,75.9 24.1,75.9 24.1,24.5 24.4,24.8 75.3,24.8 75.3,75.7         24.4,75.7 24.4,24.8       " />
						<polygon
   id="_125"
   class="st23"
   points="24.3,24.6 75.4,24.6 75.4,75.8 24.3,75.8 24.3,24.6 24.6,24.9 75.2,24.9 75.2,75.5         24.6,75.5 24.6,24.9       " />
						<polygon
   id="_126"
   class="st23"
   points="24.4,24.8 75.3,24.8 75.3,75.7 24.4,75.7 24.4,24.8 24.7,25.1 75,25.1 75,75.3         24.7,75.3 24.7,25.1       " />
						<polygon
   id="_127"
   class="st23"
   points="24.6,24.9 75.2,24.9 75.2,75.5 24.6,75.5 24.6,24.9 24.9,25.2 74.9,25.2 74.9,75.2         24.9,75.2 24.9,25.2       " />
						<polygon
   id="_128"
   class="st23"
   points="24.7,25.1 75,25.1 75,75.3 24.7,75.3 24.7,25.1 25,25.4 74.7,25.4 74.7,75.1 25,75.1         25,25.4       " />
						<polygon
   id="_129"
   class="st23"
   points="24.9,25.2 74.9,25.2 74.9,75.2 24.9,75.2 24.9,25.2 25.1,25.5 74.6,25.5 74.6,74.9         25.1,74.9 25.1,25.5       " />
						<polygon
   id="_130"
   class="st23"
   points="25,25.4 74.7,25.4 74.7,75.1 25,75.1 25,25.4 25.3,25.6 74.4,25.6 74.4,74.8         25.3,74.8 25.3,25.6       " />
						<polygon
   id="_131"
   class="st23"
   points="25.1,25.5 74.6,25.5 74.6,74.9 25.1,74.9 25.1,25.5 25.4,25.8 74.3,25.8 74.3,74.6         25.4,74.6 25.4,25.8       " />
						<polygon
   id="_132"
   class="st23"
   points="25.3,25.6 74.4,25.6 74.4,74.8 25.3,74.8 25.3,25.6 25.6,25.9 74.1,25.9 74.1,74.5         25.6,74.5 25.6,25.9       " />
						<polygon
   id="_133"
   class="st23"
   points="25.4,25.8 74.3,25.8 74.3,74.6 25.4,74.6 25.4,25.8 25.7,26.1 74,26.1 74,74.3         25.7,74.3 25.7,26.1       " />
						<polygon
   id="_134"
   class="st23"
   points="25.6,25.9 74.1,25.9 74.1,74.5 25.6,74.5 25.6,25.9 25.9,26.2 73.8,26.2 73.8,74.2         25.9,74.2 25.9,26.2       " />
						<polygon
   id="_135"
   class="st23"
   points="25.7,26.1 74,26.1 74,74.3 25.7,74.3 25.7,26.1 26,26.4 73.7,26.4 73.7,74 26,74         26,26.4       " />
						<polygon
   id="_136"
   class="st23"
   points="25.9,26.2 73.8,26.2 73.8,74.2 25.9,74.2 25.9,26.2 26.2,26.5 73.5,26.5 73.5,73.9         26.2,73.9 26.2,26.5       " />
						<polygon
   id="_137"
   class="st23"
   points="26,26.4 73.7,26.4 73.7,74 26,74 26,26.4 26.3,26.7 73.4,26.7 73.4,73.8 26.3,73.8         26.3,26.7       " />
						<polygon
   id="_138"
   class="st23"
   points="26.2,26.5 73.5,26.5 73.5,73.9 26.2,73.9 26.2,26.5 26.5,26.8 73.3,26.8 73.3,73.6         26.5,73.6 26.5,26.8       " />
						<polygon
   id="_139"
   class="st23"
   points="26.3,26.7 73.4,26.7 73.4,73.8 26.3,73.8 26.3,26.7 26.6,27 73.1,27 73.1,73.4         26.6,73.4 26.6,27       " />
						<polygon
   id="_140"
   class="st23"
   points="26.5,26.8 73.3,26.8 73.3,73.6 26.5,73.6 26.5,26.8 26.8,27.1 73,27.1 73,73.3         26.8,73.3 26.8,27.1       " />
						<polygon
   id="_141"
   class="st23"
   points="26.6,27 73.1,27 73.1,73.4 26.6,73.4 26.6,27 26.9,27.3 72.8,27.3 72.8,73.2         26.9,73.2 26.9,27.3       " />
						<polygon
   id="_142"
   class="st23"
   points="26.8,27.1 73,27.1 73,73.3 26.8,73.3 26.8,27.1 27,27.4 72.7,27.4 72.7,73 27,73         27,27.4       " />
						<polygon
   id="_143"
   class="st23"
   points="26.9,27.3 72.8,27.3 72.8,73.2 26.9,73.2 26.9,27.3 27.2,27.5 72.5,27.5 72.5,72.9         27.2,72.9 27.2,27.5       " />
						<polygon
   id="_144"
   class="st23"
   points="27,27.4 72.7,27.4 72.7,73 27,73 27,27.4 27.3,27.7 72.4,27.7 72.4,72.7 27.3,72.7         27.3,27.7       " />
						<polygon
   id="_145"
   class="st23"
   points="27.2,27.5 72.5,27.5 72.5,72.9 27.2,72.9 27.2,27.5 27.5,27.8 72.2,27.8 72.2,72.6         27.5,72.6 27.5,27.8       " />
						<polygon
   id="_146"
   class="st23"
   points="27.3,27.7 72.4,27.7 72.4,72.7 27.3,72.7 27.3,27.7 27.6,28 72.1,28 72.1,72.4         27.6,72.4 27.6,28       " />
						<polygon
   id="_147"
   class="st23"
   points="27.5,27.8 72.2,27.8 72.2,72.6 27.5,72.6 27.5,27.8 27.8,28.1 71.9,28.1 71.9,72.3         27.8,72.3 27.8,28.1       " />
						<polygon
   id="_148"
   class="st23"
   points="27.6,28 72.1,28 72.1,72.4 27.6,72.4 27.6,28 27.9,28.3 71.8,28.3 71.8,72.1         27.9,72.1 27.9,28.3       " />
						<polygon
   id="_149"
   class="st23"
   points="27.8,28.1 71.9,28.1 71.9,72.3 27.8,72.3 27.8,28.1 28.1,28.4 71.7,28.4 71.7,72         28.1,72 28.1,28.4       " />
						<polygon
   id="_150"
   class="st23"
   points="27.9,28.3 71.8,28.3 71.8,72.1 27.9,72.1 27.9,28.3 28.2,28.6 71.5,28.6 71.5,71.8         28.2,71.8 28.2,28.6       " />
						<polygon
   id="_151"
   class="st23"
   points="28.1,28.4 71.7,28.4 71.7,72 28.1,72 28.1,28.4 28.4,28.7 71.4,28.7 71.4,71.7         28.4,71.7 28.4,28.7       " />
						<polygon
   id="_152"
   class="st23"
   points="28.2,28.6 71.5,28.6 71.5,71.8 28.2,71.8 28.2,28.6 28.5,28.9 71.2,28.9 71.2,71.5         28.5,71.5 28.5,28.9       " />
						<polygon
   id="_153"
   class="st23"
   points="28.4,28.7 71.4,28.7 71.4,71.7 28.4,71.7 28.4,28.7 28.7,29 71.1,29 71.1,71.4         28.7,71.4 28.7,29       " />
						<polygon
   id="_154"
   class="st23"
   points="28.5,28.9 71.2,28.9 71.2,71.5 28.5,71.5 28.5,28.9 28.8,29.1 70.9,29.1 70.9,71.3         28.8,71.3 28.8,29.1       " />
						<polygon
   id="_155"
   class="st23"
   points="28.7,29 71.1,29 71.1,71.4 28.7,71.4 28.7,29 29,29.3 70.8,29.3 70.8,71.1 29,71.1         29,29.3       " />
						<polygon
   id="_156"
   class="st23"
   points="28.8,29.1 70.9,29.1 70.9,71.3 28.8,71.3 28.8,29.1 29.1,29.4 70.6,29.4 70.6,71         29.1,71 29.1,29.4       " />
						<polygon
   id="_157"
   class="st23"
   points="29,29.3 70.8,29.3 70.8,71.1 29,71.1 29,29.3 29.3,29.6 70.5,29.6 70.5,70.8         29.3,70.8 29.3,29.6       " />
						<polygon
   id="_158"
   class="st23"
   points="29.1,29.4 70.6,29.4 70.6,71 29.1,71 29.1,29.4 29.4,29.7 70.3,29.7 70.3,70.7         29.4,70.7 29.4,29.7       " />
						<polygon
   id="_159"
   class="st23"
   points="29.3,29.6 70.5,29.6 70.5,70.8 29.3,70.8 29.3,29.6 29.5,29.9 70.2,29.9 70.2,70.5         29.5,70.5 29.5,29.9       " />
						<polygon
   id="_160"
   class="st23"
   points="29.4,29.7 70.3,29.7 70.3,70.7 29.4,70.7 29.4,29.7 29.7,30 70,30 70,70.4 29.7,70.4         29.7,30       " />
						<polygon
   id="_161"
   class="st23"
   points="29.5,29.9 70.2,29.9 70.2,70.5 29.5,70.5 29.5,29.9 29.8,30.2 69.9,30.2 69.9,70.2         29.8,70.2 29.8,30.2       " />
						<polygon
   id="_162"
   class="st23"
   points="29.7,30 70,30 70,70.4 29.7,70.4 29.7,30 30,30.3 69.8,30.3 69.8,70.1 30,70.1         30,30.3       " />
						<polygon
   id="_163"
   class="st23"
   points="29.8,30.2 69.9,30.2 69.9,70.2 29.8,70.2 29.8,30.2 30.1,30.5 69.6,30.5 69.6,69.9         30.1,69.9 30.1,30.5       " />
						<polygon
   id="_164"
   class="st23"
   points="30,30.3 69.8,30.3 69.8,70.1 30,70.1 30,30.3 30.3,30.6 69.5,30.6 69.5,69.8         30.3,69.8 30.3,30.6       " />
						<polygon
   id="_165"
   class="st23"
   points="30.1,30.5 69.6,30.5 69.6,69.9 30.1,69.9 30.1,30.5 30.4,30.8 69.3,30.8 69.3,69.7         30.4,69.7 30.4,30.8       " />
						<polygon
   id="_166"
   class="st23"
   points="30.3,30.6 69.5,30.6 69.5,69.8 30.3,69.8 30.3,30.6 30.6,30.9 69.2,30.9 69.2,69.5         30.6,69.5 30.6,30.9       " />
						<polygon
   id="_167"
   class="st23"
   points="30.4,30.8 69.3,30.8 69.3,69.7 30.4,69.7 30.4,30.8 30.7,31 69,31 69,69.4 30.7,69.4         30.7,31       " />
						<polygon
   id="_168"
   class="st23"
   points="30.6,30.9 69.2,30.9 69.2,69.5 30.6,69.5 30.6,30.9 30.9,31.2 68.9,31.2 68.9,69.2         30.9,69.2 30.9,31.2       " />
						<polygon
   id="_169"
   class="st23"
   points="30.7,31 69,31 69,69.4 30.7,69.4 30.7,31 31,31.3 68.7,31.3 68.7,69.1 31,69.1         31,31.3       " />
						<polygon
   id="_170"
   class="st23"
   points="30.9,31.2 68.9,31.2 68.9,69.2 30.9,69.2 30.9,31.2 31.1,31.5 68.6,31.5 68.6,68.9         31.1,68.9 31.1,31.5       " />
						<polygon
   id="_171"
   class="st23"
   points="31,31.3 68.7,31.3 68.7,69.1 31,69.1 31,31.3 31.3,31.6 68.4,31.6 68.4,68.8         31.3,68.8 31.3,31.6       " />
						<polygon
   id="_172"
   class="st23"
   points="31.1,31.5 68.6,31.5 68.6,68.9 31.1,68.9 31.1,31.5 31.4,31.8 68.3,31.8 68.3,68.6         31.4,68.6 31.4,31.8       " />
						<polygon
   id="_173"
   class="st23"
   points="31.3,31.6 68.4,31.6 68.4,68.8 31.3,68.8 31.3,31.6 31.6,31.9 68.1,31.9 68.1,68.5         31.6,68.5 31.6,31.9       " />
						<polygon
   id="_174"
   class="st23"
   points="31.4,31.8 68.3,31.8 68.3,68.6 31.4,68.6 31.4,31.8 31.7,32.1 68,32.1 68,68.3         31.7,68.3 31.7,32.1       " />
						<polygon
   id="_175"
   class="st23"
   points="31.6,31.9 68.1,31.9 68.1,68.5 31.6,68.5 31.6,31.9 31.9,32.2 67.8,32.2 67.8,68.2         31.9,68.2 31.9,32.2       " />
						<polygon
   id="_176"
   class="st23"
   points="31.7,32.1 68,32.1 68,68.3 31.7,68.3 31.7,32.1 32,32.4 67.7,32.4 67.7,68 32,68         32,32.4       " />
						<polygon
   id="_177"
   class="st23"
   points="31.9,32.2 67.8,32.2 67.8,68.2 31.9,68.2 31.9,32.2 32.2,32.5 67.6,32.5 67.6,67.9         32.2,67.9 32.2,32.5       " />
						<polygon
   id="_178"
   class="st23"
   points="32,32.4 67.7,32.4 67.7,68 32,68 32,32.4 32.3,32.7 67.4,32.7 67.4,67.8 32.3,67.8         32.3,32.7       " />
						<polygon
   id="_179"
   class="st23"
   points="32.2,32.5 67.6,32.5 67.6,67.9 32.2,67.9 32.2,32.5 32.5,32.8 67.3,32.8 67.3,67.6         32.5,67.6 32.5,32.8       " />
						<polygon
   id="_180"
   class="st23"
   points="32.3,32.7 67.4,32.7 67.4,67.8 32.3,67.8 32.3,32.7 32.6,33 67.1,33 67.1,67.5         32.6,67.5 32.6,33       " />
						<polygon
   id="_181"
   class="st23"
   points="32.5,32.8 67.3,32.8 67.3,67.6 32.5,67.6 32.5,32.8 32.8,33.1 67,33.1 67,67.3         32.8,67.3 32.8,33.1       " />
						<polygon
   id="_182"
   class="st23"
   points="32.6,33 67.1,33 67.1,67.5 32.6,67.5 32.6,33 32.9,33.2 66.8,33.2 66.8,67.2         32.9,67.2 32.9,33.2       " />
						<polygon
   id="_183"
   class="st23"
   points="32.8,33.1 67,33.1 67,67.3 32.8,67.3 32.8,33.1 33,33.4 66.7,33.4 66.7,67 33,67         33,33.4       " />
						<polygon
   id="_184"
   class="st23"
   points="32.9,33.2 66.8,33.2 66.8,67.2 32.9,67.2 32.9,33.2 33.2,33.5 66.5,33.5 66.5,66.9         33.2,66.9 33.2,33.5       " />
						<polygon
   id="_185"
   class="st23"
   points="33,33.4 66.7,33.4 66.7,67 33,67 33,33.4 33.3,33.7 66.4,33.7 66.4,66.7 33.3,66.7         33.3,33.7       " />
						<polygon
   id="_186"
   class="st23"
   points="33.2,33.5 66.5,33.5 66.5,66.9 33.2,66.9 33.2,33.5 33.5,33.8 66.2,33.8 66.2,66.6         33.5,66.6 33.5,33.8       " />
						<polygon
   id="_187"
   class="st23"
   points="33.3,33.7 66.4,33.7 66.4,66.7 33.3,66.7 33.3,33.7 33.6,34 66.1,34 66.1,66.4         33.6,66.4 33.6,34       " />
						<polygon
   id="_188"
   class="st23"
   points="33.5,33.8 66.2,33.8 66.2,66.6 33.5,66.6 33.5,33.8 33.8,34.1 65.9,34.1 65.9,66.3         33.8,66.3 33.8,34.1       " />
						<polygon
   id="_189"
   class="st23"
   points="33.6,34 66.1,34 66.1,66.4 33.6,66.4 33.6,34 33.9,34.3 65.8,34.3 65.8,66.1         33.9,66.1 33.9,34.3       " />
						<polygon
   id="_190"
   class="st23"
   points="33.8,34.1 65.9,34.1 65.9,66.3 33.8,66.3 33.8,34.1 34.1,34.4 65.7,34.4 65.7,66         34.1,66 34.1,34.4       " />
						<polygon
   id="_191"
   class="st23"
   points="33.9,34.3 65.8,34.3 65.8,66.1 33.9,66.1 33.9,34.3 34.2,34.6 65.5,34.6 65.5,65.8         34.2,65.8 34.2,34.6       " />
						<polygon
   id="_192"
   class="st23"
   points="34.1,34.4 65.7,34.4 65.7,66 34.1,66 34.1,34.4 34.4,34.7 65.4,34.7 65.4,65.7         34.4,65.7 34.4,34.7       " />
						<polygon
   id="_193"
   class="st23"
   points="34.2,34.6 65.5,34.6 65.5,65.8 34.2,65.8 34.2,34.6 34.5,34.8 65.2,34.8 65.2,65.6         34.5,65.6 34.5,34.8       " />
						<polygon
   id="_194"
   class="st23"
   points="34.4,34.7 65.4,34.7 65.4,65.7 34.4,65.7 34.4,34.7 34.7,35 65.1,35 65.1,65.4         34.7,65.4 34.7,35       " />
						<polygon
   id="_195"
   class="st23"
   points="34.5,34.8 65.2,34.8 65.2,65.6 34.5,65.6 34.5,34.8 34.8,35.1 64.9,35.1 64.9,65.3         34.8,65.3 34.8,35.1       " />
						<polygon
   id="_196"
   class="st23"
   points="34.7,35 65.1,35 65.1,65.4 34.7,65.4 34.7,35 35,35.3 64.8,35.3 64.8,65.1 35,65.1         35,35.3       " />
						<polygon
   id="_197"
   class="st23"
   points="34.8,35.1 64.9,35.1 64.9,65.3 34.8,65.3 34.8,35.1 35.1,35.4 64.6,35.4 64.6,65         35.1,65 35.1,35.4       " />
						<polygon
   id="_198"
   class="st23"
   points="35,35.3 64.8,35.3 64.8,65.1 35,65.1 35,35.3 35.2,35.6 64.5,35.6 64.5,64.8         35.2,64.8 35.2,35.6       " />
						<polygon
   id="_199"
   class="st23"
   points="35.1,35.4 64.6,35.4 64.6,65 35.1,65 35.1,35.4 35.4,35.7 64.3,35.7 64.3,64.7         35.4,64.7 35.4,35.7       " />
						<polygon
   id="_200"
   class="st23"
   points="35.2,35.6 64.5,35.6 64.5,64.8 35.2,64.8 35.2,35.6 35.5,35.9 64.2,35.9 64.2,64.5         35.5,64.5 35.5,35.9       " />
						<polygon
   id="_201"
   class="st23"
   points="35.4,35.7 64.3,35.7 64.3,64.7 35.4,64.7 35.4,35.7 35.7,36 64,36 64,64.4 35.7,64.4         35.7,36       " />
						<polygon
   id="_202"
   class="st23"
   points="35.5,35.9 64.2,35.9 64.2,64.5 35.5,64.5 35.5,35.9 35.8,36.2 63.9,36.2 63.9,64.2         35.8,64.2 35.8,36.2       " />
						<polygon
   id="_203"
   class="st23"
   points="35.7,36 64,36 64,64.4 35.7,64.4 35.7,36 36,36.3 63.8,36.3 63.8,64.1 36,64.1         36,36.3       " />
						<polygon
   id="_204"
   class="st23"
   points="35.8,36.2 63.9,36.2 63.9,64.2 35.8,64.2 35.8,36.2 36.1,36.5 63.6,36.5 63.6,63.9         36.1,63.9 36.1,36.5       " />
						<polygon
   id="_205"
   class="st23"
   points="36,36.3 63.8,36.3 63.8,64.1 36,64.1 36,36.3 36.3,36.6 63.5,36.6 63.5,63.8         36.3,63.8 36.3,36.6       " />
						<polygon
   id="_206"
   class="st23"
   points="36.1,36.5 63.6,36.5 63.6,63.9 36.1,63.9 36.1,36.5 36.4,36.8 63.3,36.8 63.3,63.7         36.4,63.7 36.4,36.8       " />
						<polygon
   id="_207"
   class="st23"
   points="36.3,36.6 63.5,36.6 63.5,63.8 36.3,63.8 36.3,36.6 36.6,36.9 63.2,36.9 63.2,63.5         36.6,63.5 36.6,36.9       " />
						<polygon
   id="_208"
   class="st23"
   points="36.4,36.8 63.3,36.8 63.3,63.7 36.4,63.7 36.4,36.8 36.7,37 63,37 63,63.4 36.7,63.4         36.7,37       " />
						<polygon
   id="_209"
   class="st23"
   points="36.6,36.9 63.2,36.9 63.2,63.5 36.6,63.5 36.6,36.9 36.8,37.2 62.9,37.2 62.9,63.2         36.8,63.2 36.8,37.2       " />
						<polygon
   id="_210"
   class="st23"
   points="36.7,37 63,37 63,63.4 36.7,63.4 36.7,37 37,37.3 62.7,37.3 62.7,63.1 37,63.1         37,37.3       " />
						<polygon
   id="_211"
   class="st23"
   points="36.8,37.2 62.9,37.2 62.9,63.2 36.8,63.2 36.8,37.2 37.1,37.5 62.6,37.5 62.6,62.9         37.1,62.9 37.1,37.5       " />
						<polygon
   id="_212"
   class="st23"
   points="37,37.3 62.7,37.3 62.7,63.1 37,63.1 37,37.3 37.3,37.6 62.4,37.6 62.4,62.8         37.3,62.8 37.3,37.6       " />
						<polygon
   id="_213"
   class="st23"
   points="37.1,37.5 62.6,37.5 62.6,62.9 37.1,62.9 37.1,37.5 37.4,37.8 62.3,37.8 62.3,62.6         37.4,62.6 37.4,37.8       " />
						<polygon
   id="_214"
   class="st23"
   points="37.3,37.6 62.4,37.6 62.4,62.8 37.3,62.8 37.3,37.6 37.6,37.9 62.1,37.9 62.1,62.5         37.6,62.5 37.6,37.9       " />
						<polygon
   id="_215"
   class="st23"
   points="37.4,37.8 62.3,37.8 62.3,62.6 37.4,62.6 37.4,37.8 37.7,38.1 62,38.1 62,62.3         37.7,62.3 37.7,38.1       " />
						<polygon
   id="_216"
   class="st23"
   points="37.6,37.9 62.1,37.9 62.1,62.5 37.6,62.5 37.6,37.9 37.9,38.2 61.8,38.2 61.8,62.2         37.9,62.2 37.9,38.2       " />
						<polygon
   id="_217"
   class="st23"
   points="37.7,38.1 62,38.1 62,62.3 37.7,62.3 37.7,38.1 38,38.4 61.7,38.4 61.7,62 38,62         38,38.4       " />
						<polygon
   id="_218"
   class="st23"
   points="37.9,38.2 61.8,38.2 61.8,62.2 37.9,62.2 37.9,38.2 38.2,38.5 61.6,38.5 61.6,61.9         38.2,61.9 38.2,38.5       " />
						<polygon
   id="_219"
   class="st23"
   points="38,38.4 61.7,38.4 61.7,62 38,62 38,38.4 38.3,38.6 61.4,38.6 61.4,61.8 38.3,61.8         38.3,38.6       " />
						<polygon
   id="_220"
   class="st23"
   points="38.2,38.5 61.6,38.5 61.6,61.9 38.2,61.9 38.2,38.5 38.5,38.8 61.3,38.8 61.3,61.6         38.5,61.6 38.5,38.8       " />
						<polygon
   id="_221"
   class="st23"
   points="38.3,38.6 61.4,38.6 61.4,61.8 38.3,61.8 38.3,38.6 38.6,39 61.1,39 61.1,61.5         38.6,61.5 38.6,39       " />
						<polygon
   id="_222"
   class="st23"
   points="38.5,38.8 61.3,38.8 61.3,61.6 38.5,61.6 38.5,38.8 38.8,39.1 61,39.1 61,61.3         38.8,61.3 38.8,39.1       " />
						<polygon
   id="_223"
   class="st23"
   points="38.6,39 61.1,39 61.1,61.5 38.6,61.5 38.6,39 38.9,39.2 60.8,39.2 60.8,61.2         38.9,61.2 38.9,39.2       " />
						<polygon
   id="_224"
   class="st23"
   points="38.8,39.1 61,39.1 61,61.3 38.8,61.3 38.8,39.1 39,39.4 60.7,39.4 60.7,61 39,61         39,39.4       " />
						<polygon
   id="_225"
   class="st23"
   points="38.9,39.2 60.8,39.2 60.8,61.2 38.9,61.2 38.9,39.2 39.2,39.5 60.5,39.5 60.5,60.9         39.2,60.9 39.2,39.5       " />
						<polygon
   id="_226"
   class="st23"
   points="39,39.4 60.7,39.4 60.7,61 39,61 39,39.4 39.3,39.7 60.4,39.7 60.4,60.7 39.3,60.7         39.3,39.7       " />
						<polygon
   id="_227"
   class="st23"
   points="39.2,39.5 60.5,39.5 60.5,60.9 39.2,60.9 39.2,39.5 39.5,39.8 60.3,39.8 60.3,60.6         39.5,60.6 39.5,39.8       " />
						<polygon
   id="_228"
   class="st23"
   points="39.3,39.7 60.4,39.7 60.4,60.7 39.3,60.7 39.3,39.7 39.6,40 60.1,40 60.1,60.4         39.6,60.4 39.6,40       " />
						<polygon
   id="_229"
   class="st23"
   points="39.5,39.8 60.3,39.8 60.3,60.6 39.5,60.6 39.5,39.8 39.8,40.1 59.9,40.1 59.9,60.3         39.8,60.3 39.8,40.1       " />
						<polygon
   id="_230"
   class="st23"
   points="39.6,40 60.1,40 60.1,60.4 39.6,60.4 39.6,40 39.9,40.3 59.8,40.3 59.8,60.1         39.9,60.1 39.9,40.3       " />
						<polygon
   id="_231"
   class="st23"
   points="39.8,40.1 59.9,40.1 59.9,60.3 39.8,60.3 39.8,40.1 40.1,40.4 59.7,40.4 59.7,60         40.1,60 40.1,40.4       " />
						<polygon
   id="_232"
   class="st23"
   points="39.9,40.3 59.8,40.3 59.8,60.1 39.9,60.1 39.9,40.3 40.2,40.6 59.5,40.6 59.5,59.9         40.2,59.9 40.2,40.6       " />
						<polygon
   id="_233"
   class="st23"
   points="40.1,40.4 59.7,40.4 59.7,60 40.1,60 40.1,40.4 40.4,40.7 59.4,40.7 59.4,59.7         40.4,59.7 40.4,40.7       " />
						<polygon
   id="_234"
   class="st23"
   points="40.2,40.6 59.5,40.6 59.5,59.9 40.2,59.9 40.2,40.6 40.5,40.8 59.2,40.8 59.2,59.6         40.5,59.6 40.5,40.8       " />
						<polygon
   id="_235"
   class="st23"
   points="40.4,40.7 59.4,40.7 59.4,59.7 40.4,59.7 40.4,40.7 40.6,41 59.1,41 59.1,59.4         40.6,59.4 40.6,41       " />
						<polygon
   id="_236"
   class="st23"
   points="40.5,40.8 59.2,40.8 59.2,59.6 40.5,59.6 40.5,40.8 40.8,41.1 58.9,41.1 58.9,59.3         40.8,59.3 40.8,41.1       " />
						<polygon
   id="_237"
   class="st23"
   points="40.6,41 59.1,41 59.1,59.4 40.6,59.4 40.6,41 41,41.3 58.8,41.3 58.8,59.1 41,59.1         41,41.3       " />
						<polygon
   id="_238"
   class="st23"
   points="40.8,41.1 58.9,41.1 58.9,59.3 40.8,59.3 40.8,41.1 41.1,41.4 58.6,41.4 58.6,59         41.1,59 41.1,41.4       " />
						<polygon
   id="_239"
   class="st23"
   points="41,41.3 58.8,41.3 58.8,59.1 41,59.1 41,41.3 41.2,41.6 58.5,41.6 58.5,58.8         41.2,58.8 41.2,41.6       " />
						<polygon
   id="_240"
   class="st23"
   points="41.1,41.4 58.6,41.4 58.6,59 41.1,59 41.1,41.4 41.4,41.7 58.3,41.7 58.3,58.7         41.4,58.7 41.4,41.7       " />
						<polygon
   id="_241"
   class="st23"
   points="41.2,41.6 58.5,41.6 58.5,58.8 41.2,58.8 41.2,41.6 41.5,41.9 58.2,41.9 58.2,58.5         41.5,58.5 41.5,41.9       " />
						<polygon
   id="_242"
   class="st23"
   points="41.4,41.7 58.3,41.7 58.3,58.7 41.4,58.7 41.4,41.7 41.7,42 58,42 58,58.4 41.7,58.4         41.7,42       " />
						<polygon
   id="_243"
   class="st23"
   points="41.5,41.9 58.2,41.9 58.2,58.5 41.5,58.5 41.5,41.9 41.8,42.2 57.9,42.2 57.9,58.3         41.8,58.3 41.8,42.2       " />
						<polygon
   id="_244"
   class="st23"
   points="41.7,42 58,42 58,58.4 41.7,58.4 41.7,42 42,42.3 57.8,42.3 57.8,58.1 42,58.1         42,42.3       " />
						<polygon
   id="_245"
   class="st23"
   points="41.8,42.2 57.9,42.2 57.9,58.3 41.8,58.3 41.8,42.2 42.1,42.5 57.6,42.5 57.6,58         42.1,58 42.1,42.5       " />
						<polygon
   id="_246"
   class="st23"
   points="42,42.3 57.8,42.3 57.8,58.1 42,58.1 42,42.3 42.3,42.6 57.5,42.6 57.5,57.8         42.3,57.8 42.3,42.6       " />
						<polygon
   id="_247"
   class="st23"
   points="42.1,42.5 57.6,42.5 57.6,58 42.1,58 42.1,42.5 42.4,42.8 57.3,42.8 57.3,57.7         42.4,57.7 42.4,42.8       " />
						<polygon
   id="_248"
   class="st23"
   points="42.3,42.6 57.5,42.6 57.5,57.8 42.3,57.8 42.3,42.6 42.5,42.9 57.2,42.9 57.2,57.5         42.5,57.5 42.5,42.9       " />
						<polygon
   id="_249"
   class="st23"
   points="42.4,42.8 57.3,42.8 57.3,57.7 42.4,57.7 42.4,42.8 42.7,43 57,43 57,57.4 42.7,57.4         42.7,43       " />
						<polygon
   id="_250"
   class="st23"
   points="42.5,42.9 57.2,42.9 57.2,57.5 42.5,57.5 42.5,42.9 42.8,43.2 56.9,43.2 56.9,57.2         42.8,57.2 42.8,43.2       " />
						<polygon
   id="_251"
   class="st23"
   points="42.7,43 57,43 57,57.4 42.7,57.4 42.7,43 43,43.3 56.7,43.3 56.7,57.1 43,57.1         43,43.3       " />
						<polygon
   id="_252"
   class="st23"
   points="42.8,43.2 56.9,43.2 56.9,57.2 42.8,57.2 42.8,43.2 43.1,43.5 56.6,43.5 56.6,56.9         43.1,56.9 43.1,43.5       " />
						<polygon
   id="_253"
   class="st23"
   points="43,43.3 56.7,43.3 56.7,57.1 43,57.1 43,43.3 43.3,43.6 56.4,43.6 56.4,56.8         43.3,56.8 43.3,43.6       " />
						<polygon
   id="_254"
   class="st23"
   points="43.1,43.5 56.6,43.5 56.6,56.9 43.1,56.9 43.1,43.5 43.4,43.8 56.3,43.8 56.3,56.6         43.4,56.6 43.4,43.8       " />
						<polygon
   id="_255"
   class="st23"
   points="43.3,43.6 56.4,43.6 56.4,56.8 43.3,56.8 43.3,43.6 43.6,43.9 56.1,43.9 56.1,56.5         43.6,56.5 43.6,43.9       " />
						<polygon
   id="_256"
   class="st23"
   points="43.4,43.8 56.3,43.8 56.3,56.6 43.4,56.6 43.4,43.8 43.7,44.1 56,44.1 56,56.3         43.7,56.3 43.7,44.1       " />
						<polygon
   id="_257"
   class="st23"
   points="43.6,43.9 56.1,43.9 56.1,56.5 43.6,56.5 43.6,43.9 43.9,44.2 55.9,44.2 55.9,56.2         43.9,56.2 43.9,44.2       " />
						<polygon
   id="_258"
   class="st23"
   points="43.7,44.1 56,44.1 56,56.3 43.7,56.3 43.7,44.1 44,44.4 55.7,44.4 55.7,56 44,56         44,44.4       " />
						<polygon
   id="_259"
   class="st23"
   points="43.9,44.2 55.9,44.2 55.9,56.2 43.9,56.2 43.9,44.2 44.2,44.5 55.6,44.5 55.6,55.9         44.2,55.9 44.2,44.5       " />
						<polygon
   id="_260"
   class="st23"
   points="44,44.4 55.7,44.4 55.7,56 44,56 44,44.4 44.3,44.6 55.4,44.6 55.4,55.8 44.3,55.8         44.3,44.6       " />
						<polygon
   id="_261"
   class="st23"
   points="44.2,44.5 55.6,44.5 55.6,55.9 44.2,55.9 44.2,44.5 44.5,44.8 55.3,44.8 55.3,55.6         44.5,55.6 44.5,44.8       " />
						<polygon
   id="_262"
   class="st23"
   points="44.3,44.6 55.4,44.6 55.4,55.8 44.3,55.8 44.3,44.6 44.6,44.9 55.1,44.9 55.1,55.5         44.6,55.5 44.6,44.9       " />
						<polygon
   id="_263"
   class="st23"
   points="44.5,44.8 55.3,44.8 55.3,55.6 44.5,55.6 44.5,44.8 44.8,45.1 55,45.1 55,55.3         44.8,55.3 44.8,45.1       " />
						<polygon
   id="_264"
   class="st23"
   points="44.6,44.9 55.1,44.9 55.1,55.5 44.6,55.5 44.6,44.9 44.9,45.2 54.8,45.2 54.8,55.2         44.9,55.2 44.9,45.2       " />
						<polygon
   id="_265"
   class="st23"
   points="44.8,45.1 55,45.1 55,55.3 44.8,55.3 44.8,45.1 45,45.4 54.7,45.4 54.7,55 45,55         45,45.4       " />
						<polygon
   id="_266"
   class="st23"
   points="44.9,45.2 54.8,45.2 54.8,55.2 44.9,55.2 44.9,45.2 45.2,45.5 54.5,45.5 54.5,54.9         45.2,54.9 45.2,45.5       " />
						<polygon
   id="_267"
   class="st23"
   points="45,45.4 54.7,45.4 54.7,55 45,55 45,45.4 45.3,45.7 54.4,45.7 54.4,54.7 45.3,54.7         45.3,45.7       " />
						<polygon
   id="_268"
   class="st23"
   points="45.2,45.5 54.5,45.5 54.5,54.9 45.2,54.9 45.2,45.5 45.5,45.8 54.3,45.8 54.3,54.6         45.5,54.6 45.5,45.8       " />
						<polygon
   id="_269"
   class="st23"
   points="45.3,45.7 54.4,45.7 54.4,54.7 45.3,54.7 45.3,45.7 45.6,46 54.1,46 54.1,54.4         45.6,54.4 45.6,46       " />
						<polygon
   id="_270"
   class="st23"
   points="45.5,45.8 54.3,45.8 54.3,54.6 45.5,54.6 45.5,45.8 45.8,46.1 54,46.1 54,54.3         45.8,54.3 45.8,46.1       " />
						<polygon
   id="_271"
   class="st23"
   points="45.6,46 54.1,46 54.1,54.4 45.6,54.4 45.6,46 45.9,46.3 53.8,46.3 53.8,54.1         45.9,54.1 45.9,46.3       " />
						<polygon
   id="_272"
   class="st23"
   points="45.8,46.1 54,46.1 54,54.3 45.8,54.3 45.8,46.1 46.1,46.4 53.7,46.4 53.7,54 46.1,54         46.1,46.4       " />
						<polygon
   id="_273"
   class="st23"
   points="45.9,46.3 53.8,46.3 53.8,54.1 45.9,54.1 45.9,46.3 46.2,46.5 53.5,46.5 53.5,53.9         46.2,53.9 46.2,46.5       " />
						<polygon
   id="_274"
   class="st23"
   points="46.1,46.4 53.7,46.4 53.7,54 46.1,54 46.1,46.4 46.4,46.7 53.4,46.7 53.4,53.7         46.4,53.7 46.4,46.7       " />
						<polygon
   id="_275"
   class="st23"
   points="46.2,46.5 53.5,46.5 53.5,53.9 46.2,53.9 46.2,46.5 46.5,46.8 53.2,46.8 53.2,53.6         46.5,53.6 46.5,46.8       " />
						<polygon
   id="_276"
   class="st23"
   points="46.4,46.7 53.4,46.7 53.4,53.7 46.4,53.7 46.4,46.7 46.6,47 53.1,47 53.1,53.4         46.6,53.4 46.6,47       " />
						<polygon
   id="_277"
   class="st23"
   points="46.5,46.8 53.2,46.8 53.2,53.6 46.5,53.6 46.5,46.8 46.8,47.1 52.9,47.1 52.9,53.3         46.8,53.3 46.8,47.1       " />
						<polygon
   id="_278"
   class="st23"
   points="46.6,47 53.1,47 53.1,53.4 46.6,53.4 46.6,47 46.9,47.3 52.8,47.3 52.8,53.1         46.9,53.1 46.9,47.3       " />
						<polygon
   id="_279"
   class="st23"
   points="46.8,47.1 52.9,47.1 52.9,53.3 46.8,53.3 46.8,47.1 47.1,47.4 52.6,47.4 52.6,53         47.1,53 47.1,47.4       " />
						<polygon
   id="_280"
   class="st23"
   points="46.9,47.3 52.8,47.3 52.8,53.1 46.9,53.1 46.9,47.3 47.2,47.6 52.5,47.6 52.5,52.8         47.2,52.8 47.2,47.6       " />
						<polygon
   id="_281"
   class="st23"
   points="47.1,47.4 52.6,47.4 52.6,53 47.1,53 47.1,47.4 47.4,47.7 52.3,47.7 52.3,52.7         47.4,52.7 47.4,47.7       " />
						<polygon
   id="_282"
   class="st23"
   points="47.2,47.6 52.5,47.6 52.5,52.8 47.2,52.8 47.2,47.6 47.5,47.9 52.2,47.9 52.2,52.5         47.5,52.5 47.5,47.9       " />
						<polygon
   id="_283"
   class="st23"
   points="47.4,47.7 52.3,47.7 52.3,52.7 47.4,52.7 47.4,47.7 47.7,48 52.1,48 52.1,52.4         47.7,52.4 47.7,48       " />
						<polygon
   id="_284"
   class="st23"
   points="47.5,47.9 52.2,47.9 52.2,52.5 47.5,52.5 47.5,47.9 47.8,48.2 51.9,48.2 51.9,52.3         47.8,52.3 47.8,48.2       " />
						<polygon
   id="_285"
   class="st23"
   points="47.7,48 52.1,48 52.1,52.4 47.7,52.4 47.7,48 48,48.3 51.8,48.3 51.8,52.1 48,52.1         48,48.3       " />
						<polygon
   id="_286"
   class="st23"
   points="47.8,48.2 51.9,48.2 51.9,52.3 47.8,52.3 47.8,48.2 48.1,48.5 51.6,48.5 51.6,52         48.1,52 48.1,48.5       " />
						<polygon
   id="_287"
   class="st23"
   points="48,48.3 51.8,48.3 51.8,52.1 48,52.1 48,48.3 48.3,48.6 51.5,48.6 51.5,51.8         48.3,51.8 48.3,48.6       " />
						<polygon
   id="_288"
   class="st23"
   points="48.1,48.5 51.6,48.5 51.6,52 48.1,52 48.1,48.5 48.4,48.7 51.3,48.7 51.3,51.7         48.4,51.7 48.4,48.7       " />
						<polygon
   id="_289"
   class="st23"
   points="48.3,48.6 51.5,48.6 51.5,51.8 48.3,51.8 48.3,48.6 48.5,48.9 51.2,48.9 51.2,51.5         48.5,51.5 48.5,48.9       " />
						<polygon
   id="_290"
   class="st23"
   points="48.4,48.7 51.3,48.7 51.3,51.7 48.4,51.7 48.4,48.7 48.7,49 51,49 51,51.4 48.7,51.4         48.7,49       " />
						<polygon
   id="_291"
   class="st23"
   points="48.5,48.9 51.2,48.9 51.2,51.5 48.5,51.5 48.5,48.9 48.8,49.2 50.9,49.2 50.9,51.2         48.8,51.2 48.8,49.2       " />
						<polygon
   id="_292"
   class="st23"
   points="48.7,49 51,49 51,51.4 48.7,51.4 48.7,49 49,49.3 50.7,49.3 50.7,51.1 49,51.1         49,49.3       " />
						<polygon
   id="_293"
   class="st23"
   points="48.8,49.2 50.9,49.2 50.9,51.2 48.8,51.2 48.8,49.2 49.1,49.5 50.6,49.5 50.6,50.9         49.1,50.9 49.1,49.5       " />
						<polygon
   id="_294"
   class="st23"
   points="49,49.3 50.7,49.3 50.7,51.1 49,51.1 49,49.3 49.3,49.6 50.5,49.6 50.5,50.8         49.3,50.8 49.3,49.6       " />
						<polygon
   id="_295"
   class="st23"
   points="49.1,49.5 50.6,49.5 50.6,50.9 49.1,50.9 49.1,49.5 49.4,49.8 50.3,49.8 50.3,50.6         49.4,50.6 49.4,49.8       " />
						<polygon
   id="_296"
   class="st23"
   points="49.3,49.6 50.5,49.6 50.5,50.8 49.3,50.8 49.3,49.6 49.6,49.9 50.2,49.9 50.2,50.5         49.6,50.5 49.6,49.9       " />
						<polygon
   id="_297"
   class="st23"
   points="49.4,49.8 50.3,49.8 50.3,50.6 49.4,50.6 49.4,49.8 49.7,50.1 50,50.1 50,50.3         49.7,50.3 49.7,50.1       " />
						<polygon
   id="_298"
   class="st23"
   points="49.6,49.9 50.2,49.9 50.2,50.5 49.6,50.5 49.6,49.9 49.9,50.2 49.9,50.2 49.9,50.2         49.9,50.2 49.9,50.2       " />
						<polygon
   id="_299"
   class="st23"
   points="49.7,50.1 50,50.1 50,50.3 49.7,50.3       " />
					</g>
				</g>
			</g>
			<path
   class="st24"
   d="M15.6,94.1h68.5c5.3,0,9.6-4.3,9.6-9.6V15.9c0-5.3-4.3-9.6-9.6-9.6H15.6c-5.3,0-9.6,4.3-9.6,9.6v68.5     C6,89.8,10.3,94.1,15.6,94.1z"
   id="path330" />
		</g>
	</g>
</g>
<g
   id="g5345"
   transform="translate(-89.999997)"><path
     class="fil50 str0"
     d="m 145.37247,78.957996 c 4.16969,-0.753841 8.03312,-2.37931 11.37829,-4.699726 0.0589,0.08245 0.12956,0.164903 0.20024,0.235576 l 5.13553,5.135539 c 0.67139,0.671389 1.7786,0.671389 2.44999,0 l 4.91174,-4.911743 c 0.67139,-0.671389 0.67139,-1.778593 0,-2.449982 l -5.13554,-5.135539 c -0.0707,-0.07067 -0.14134,-0.129567 -0.21202,-0.176682 2.43821,-3.474734 4.13435,-7.514849 4.85285,-11.87299 0.0236,0 0.0471,0 0.0824,0 h 7.25572 c 0.95408,0 1.73147,-0.777398 1.73147,-1.731478 v -6.937689 c 0,-0.95408 -0.77739,-1.731478 -1.73147,-1.731478 H 169.036 c -0.0707,0 -0.14134,0 -0.20024,0.01178 -0.8834,-4.605495 -2.85046,-8.822291 -5.63025,-12.367698 l 4.98242,-4.982416 c 0.67139,-0.671389 0.67139,-1.778592 0,-2.449982 l -4.91174,-4.911744 c -0.67139,-0.671389 -1.77859,-0.671389 -2.44998,0 l -5.13554,5.13554 c -0.0825,0.08245 -0.1649,0.176681 -0.2238,0.270911 -3.03892,-1.872823 -6.44298,-3.203823 -10.0944,-3.863433 v -7.12615 c 0,-0.954079 -0.77739,-1.731478 -1.73147,-1.731478 h -6.93769 c -0.95408,0 -1.73148,0.777399 -1.73148,1.731478 v 7.137929 c -4.39348,0.789177 -8.43359,2.567769 -11.90833,5.088424 -0.0825,-0.141345 -0.17668,-0.28269 -0.29447,-0.400478 l -5.13554,-5.135539 c -0.67138,-0.67139 -1.77859,-0.67139 -2.44998,0 l -4.91174,4.911743 c -0.67139,0.671389 -0.67139,1.778592 0,2.449982 l 5.13554,5.135539 c 0.1649,0.164903 0.36514,0.294469 0.57716,0.37692 -2.26152,3.356947 -3.85166,7.208602 -4.55838,11.366504 -0.2238,-0.106009 -0.47115,-0.164903 -0.74206,-0.164903 h -7.25572 c -0.95408,0 -1.73148,0.777398 -1.73148,1.731478 v 6.93769 c 0,0.954079 0.7774,1.731477 1.73148,1.731477 h 7.25572 c 0.28269,0 0.54182,-0.07067 0.77739,-0.18846 0.73029,4.122566 2.32042,7.938884 4.59372,11.260495 -0.17668,0.08245 -0.34158,0.200239 -0.48293,0.341584 l -5.13554,5.135539 c -0.67139,0.671389 -0.67139,1.778593 0,2.449982 l 4.91174,4.911743 c 0.67139,0.671389 1.7786,0.671389 2.44999,0 l 5.13554,-5.135539 c 0.11778,-0.117788 0.21201,-0.235575 0.28269,-0.365142 3.43939,2.461761 7.44417,4.205017 11.76698,4.982416 v 7.043693 c 0,0.95408 0.7774,1.731478 1.73148,1.731478 h 6.93769 c 0.95407,0 1.73147,-0.777398 1.73147,-1.731478 v -7.043693 z"
     id="path13563"
     style="clip-rule:evenodd;fill:url(#linearGradient14123);fill-rule:evenodd;stroke:#cccccc;stroke-width:0.31166598;image-rendering:optimizeQuality;shape-rendering:geometricPrecision;text-rendering:geometricPrecision"
     inkscape:connector-curvature="0" /><circle
     class="fil51 str1"
     cx="140.17804"
     cy="50.076477"
     r="23.816652"
     id="circle13565"
     style="clip-rule:evenodd;fill:url(#id2-4-0);fill-rule:evenodd;stroke:#cccccc;stroke-width:0.6232931;image-rendering:optimizeQuality;shape-rendering:geometricPrecision;text-rendering:geometricPrecision" /><circle
     class="fil52 str1"
     cx="140.17804"
     cy="49.923355"
     r="18.775343"
     id="circle13567"
     style="clip-rule:evenodd;fill:url(#id4);fill-rule:evenodd;stroke:#cccccc;stroke-width:0.6232931;image-rendering:optimizeQuality;shape-rendering:geometricPrecision;text-rendering:geometricPrecision" /><circle
     class="fil53 str2"
     cx="140.09558"
     cy="50.076477"
     r="8.8929634"
     id="circle13569"
     style="clip-rule:evenodd;fill:#7fbbdf;fill-opacity:1;fill-rule:evenodd;stroke:#b3b3b3;stroke-width:0.99726874;image-rendering:optimizeQuality;shape-rendering:geometricPrecision;text-rendering:geometricPrecision" /></g></svg>