<?xml version="1.0" encoding="UTF-8" standalone="no"?>
<!-- Creator: CorelDRAW X6 -->

<svg
   xmlns:dc="http://purl.org/dc/elements/1.1/"
   xmlns:cc="http://creativecommons.org/ns#"
   xmlns:rdf="http://www.w3.org/1999/02/22-rdf-syntax-ns#"
   xmlns:svg="http://www.w3.org/2000/svg"
   xmlns="http://www.w3.org/2000/svg"
   xmlns:xlink="http://www.w3.org/1999/xlink"
   xmlns:sodipodi="http://sodipodi.sourceforge.net/DTD/sodipodi-0.dtd"
   xmlns:inkscape="http://www.inkscape.org/namespaces/inkscape"
   xml:space="preserve"
   width="100px"
   height="100px"
   version="1.1"
   style="shape-rendering:geometricPrecision; text-rendering:geometricPrecision; image-rendering:optimizeQuality; fill-rule:evenodd; clip-rule:evenodd"
   viewBox="0 0 10000 10000"
   id="svg349"
   sodipodi:docname="drawIconBlock.svg"
   inkscape:version="0.92.3 (2405546, 2018-03-11)"><metadata
   id="metadata353"><rdf:RDF><cc:Work
       rdf:about=""><dc:format>image/svg+xml</dc:format><dc:type
         rdf:resource="http://purl.org/dc/dcmitype/StillImage" /><dc:title></dc:title></cc:Work></rdf:RDF></metadata><sodipodi:namedview
   pagecolor="#ffffff"
   bordercolor="#666666"
   borderopacity="1"
   objecttolerance="10"
   gridtolerance="10"
   guidetolerance="10"
   inkscape:pageopacity="0"
   inkscape:pageshadow="2"
   inkscape:window-width="1920"
   inkscape:window-height="1017"
   id="namedview351"
   showgrid="false"
   inkscape:zoom="2.36"
   inkscape:cx="50"
   inkscape:cy="50"
   inkscape:window-x="-8"
   inkscape:window-y="-8"
   inkscape:window-maximized="1"
   inkscape:current-layer="svg349" />
 <defs
   id="defs22">
  <style
   type="text/css"
   id="style2">
   <![CDATA[
    .str0 {stroke:#CCCCCC;stroke-width:84.6667}
    .fil55 {fill:none}
    .fil2 {fill:#538A6D}
    .fil3 {fill:#538B6E}
    .fil4 {fill:#548B6E}
    .fil5 {fill:#548C6F}
    .fil6 {fill:#558D6F}
    .fil7 {fill:#558D70}
    .fil8 {fill:#558E70}
    .fil0 {fill:#568B71}
    .fil9 {fill:#568E71}
    .fil10 {fill:#568F71}
    .fil11 {fill:#568F72}
    .fil12 {fill:#569072}
    .fil13 {fill:#579072}
    .fil14 {fill:#579173}
    .fil15 {fill:#589274}
    .fil16 {fill:#589375}
    .fil17 {fill:#599375}
    .fil18 {fill:#599475}
    .fil19 {fill:#599476}
    .fil20 {fill:#599576}
    .fil21 {fill:#5A9577}
    .fil22 {fill:#5A9677}
    .fil23 {fill:#5A9678}
    .fil24 {fill:#5B9778}
    .fil25 {fill:#5B9879}
    .fil26 {fill:#5C9879}
    .fil27 {fill:#5C997A}
    .fil28 {fill:#5D9A7B}
    .fil29 {fill:#5D9B7C}
    .fil30 {fill:#5E9B7C}
    .fil31 {fill:#5E9C7D}
    .fil32 {fill:#5F9D7D}
    .fil33 {fill:#5F9D7E}
    .fil34 {fill:#5F9E7E}
    .fil35 {fill:#609E7F}
    .fil36 {fill:#609F7F}
    .fil37 {fill:#609F80}
    .fil38 {fill:#60A080}
    .fil39 {fill:#61A080}
    .fil40 {fill:#61A181}
    .fil41 {fill:#62A282}
    .fil42 {fill:#62A383}
    .fil43 {fill:#63A383}
    .fil44 {fill:#63A483}
    .fil45 {fill:#63A484}
    .fil46 {fill:#63A584}
    .fil47 {fill:#64A585}
    .fil48 {fill:#64A685}
    .fil49 {fill:#64A686}
    .fil50 {fill:#65A786}
    .fil51 {fill:#65A887}
    .fil52 {fill:#66A887}
    .fil53 {fill:#66A988}
    .fil54 {fill:#67AA89}
    .fil1 {fill:black;fill-opacity:0.000000}
    .fil57 {fill:url(#id2)}
    .fil56 {fill:url(#id3)}
   ]]>
  </style>
      <clipPath
   id="id0">
       <path
   d="M1560 9407l6853 0c528,0 960,-432 960,-960l0 -6853c0,-528 -432,-960 -960,-960l-6853 0c-528,0 -960,432 -960,960l0 6853c0,528 432,960 960,960z"
   id="path4" />
      </clipPath>
      <clipPath
   id="id1">
       <path
   d="M1560 9407l6853 0c528,0 960,-432 960,-960l0 -6853c0,-528 -432,-960 -960,-960l-6853 0c-528,0 -960,432 -960,960l0 6853c0,528 432,960 960,960z"
   id="path7" />
      </clipPath>
  <linearGradient
   id="id2"
   gradientUnits="userSpaceOnUse"
   x1="5280.54"
   y1="8487.57"
   x2="6683.16"
   y2="1878.32">
   <stop
   offset="0"
   style="stop-color:#B3B3B3"
   id="stop10" />
   <stop
   offset="1"
   style="stop-color:#ADADAD"
   id="stop12" />
  </linearGradient>
  <linearGradient
   id="id3"
   gradientUnits="userSpaceOnUse"
   x1="4767.26"
   y1="5838.34"
   x2="5008.61"
   y2="4259.88">
   <stop
   offset="0"
   style="stop-color:#E6E6E6"
   id="stop15" />
   <stop
   offset="0.34902"
   style="stop-color:#CCCCCC"
   id="stop17" />
   <stop
   offset="1"
   style="stop-color:#B3B3B3"
   id="stop19" />
  </linearGradient>
 
  
  
  
 
   
   
  <linearGradient
   inkscape:collect="always"
   xlink:href="#id3"
   id="linearGradient1498"
   x1="232.53358"
   y1="464.9028"
   x2="229.5"
   y2="0"
   gradientUnits="userSpaceOnUse" /><linearGradient
   inkscape:collect="always"
   xlink:href="#id3"
   id="linearGradient1508"
   gradientUnits="userSpaceOnUse"
   x1="232.53358"
   y1="464.9028"
   x2="229.5"
   y2="0" /><linearGradient
   inkscape:collect="always"
   xlink:href="#id3"
   id="linearGradient1510"
   gradientUnits="userSpaceOnUse"
   x1="232.53358"
   y1="464.9028"
   x2="229.5"
   y2="0" /></defs>
 <g
   id="_129080720">
   <g
   id="_343530368">
    <path
   style="fill:#568b71"
   inkscape:connector-curvature="0"
   id="path25"
   d="m 1420,38 h 7132 c 782,0 1416,634 1416,1416 v 7132 c 0,782 -634,1416 -1416,1416 H 1420 C 638,10002 4,9368 4,8586 V 1454 C 4,672 638,38 1420,38 Z"
   class="fil0" />
    <g
   id="g337">
     <g
   id="g29"
   clip-path="url(#id0)">
      <polygon
   style="fill:#000000;fill-opacity:0"
   id="polygon27"
   points="9373,9407 600,9407 600,634 9373,634 "
   class="fil1" />
     </g>
     <g
   id="g333"
   clip-path="url(#id1)">
      <g
   id="g331">
       <polygon
   style="fill:#538a6d"
   points="9373,9407 600,9407 600,634 629,663 9344,663 9344,9378 629,9378 629,663 600,634 9373,634 "
   class="fil2"
   id="1" />
       <polygon
   style="fill:#538a6d"
   points="9358,9392 615,9392 615,649 644,678 9329,678 9329,9363 644,9363 644,678 615,649 9358,649 "
   class="fil2"
   id="_1" />
       <polygon
   style="fill:#538a6d"
   points="9344,9378 629,9378 629,663 658,693 9314,693 9314,9349 658,9349 658,693 629,663 9344,663 "
   class="fil2"
   id="_2" />
       <polygon
   style="fill:#538b6e"
   points="9329,9363 644,9363 644,678 673,707 9300,707 9300,9334 673,9334 673,707 644,678 9329,678 "
   class="fil3"
   id="_3" />
       <polygon
   style="fill:#548b6e"
   points="9314,9349 658,9349 658,693 688,722 9285,722 9285,9319 688,9319 688,722 658,693 9314,693 "
   class="fil4"
   id="_4" />
       <polygon
   style="fill:#548c6f"
   points="9300,9334 673,9334 673,707 702,736 9271,736 9271,9305 702,9305 702,736 673,707 9300,707 "
   class="fil5"
   id="_5" />
       <polygon
   style="fill:#548c6f"
   points="9285,9319 688,9319 688,722 717,751 9256,751 9256,9290 717,9290 717,751 688,722 9285,722 "
   class="fil5"
   id="_6" />
       <polygon
   style="fill:#558d6f"
   points="9271,9305 702,9305 702,736 732,766 9241,766 9241,9275 732,9275 732,766 702,736 9271,736 "
   class="fil6"
   id="_7" />
       <polygon
   style="fill:#558d70"
   points="9256,9290 717,9290 717,751 746,780 9227,780 9227,9261 746,9261 746,780 717,751 9256,751 "
   class="fil7"
   id="_8" />
       <polygon
   style="fill:#558e70"
   points="9241,9275 732,9275 732,766 761,795 9212,795 9212,9246 761,9246 761,795 732,766 9241,766 "
   class="fil8"
   id="_9" />
       <polygon
   style="fill:#568e71"
   points="9227,9261 746,9261 746,780 775,810 9197,810 9197,9232 775,9232 775,810 746,780 9227,780 "
   class="fil9"
   id="_10" />
       <polygon
   style="fill:#568f71"
   points="9212,9246 761,9246 761,795 790,824 9183,824 9183,9217 790,9217 790,824 761,795 9212,795 "
   class="fil10"
   id="_11" />
       <polygon
   style="fill:#568f72"
   points="9197,9232 775,9232 775,810 805,839 9168,839 9168,9202 805,9202 805,839 775,810 9197,810 "
   class="fil11"
   id="_12" />
       <polygon
   style="fill:#569072"
   points="9183,9217 790,9217 790,824 819,853 9154,853 9154,9188 819,9188 819,853 790,824 9183,824 "
   class="fil12"
   id="_13" />
       <polygon
   style="fill:#579072"
   points="9168,9202 805,9202 805,839 834,868 9139,868 9139,9173 834,9173 834,868 805,839 9168,839 "
   class="fil13"
   id="_14" />
       <polygon
   style="fill:#579173"
   points="9154,9188 819,9188 819,853 849,883 9124,883 9124,9158 849,9158 849,883 819,853 9154,853 "
   class="fil14"
   id="_15" />
       <polygon
   style="fill:#579173"
   points="9139,9173 834,9173 834,868 863,897 9110,897 9110,9144 863,9144 863,897 834,868 9139,868 "
   class="fil14"
   id="_16" />
       <polygon
   style="fill:#589274"
   points="9124,9158 849,9158 849,883 878,912 9095,912 9095,9129 878,9129 878,912 849,883 9124,883 "
   class="fil15"
   id="_17" />
       <polygon
   style="fill:#589274"
   points="9110,9144 863,9144 863,897 892,927 9080,927 9080,9115 892,9115 892,927 863,897 9110,897 "
   class="fil15"
   id="_18" />
       <polygon
   style="fill:#589375"
   points="9095,9129 878,9129 878,912 907,941 9066,941 9066,9100 907,9100 907,941 878,912 9095,912 "
   class="fil16"
   id="_19" />
       <polygon
   style="fill:#599375"
   points="9080,9115 892,9115 892,927 922,956 9051,956 9051,9085 922,9085 922,956 892,927 9080,927 "
   class="fil17"
   id="_20" />
       <polygon
   style="fill:#599475"
   points="9066,9100 907,9100 907,941 936,970 9037,970 9037,9071 936,9071 936,970 907,941 9066,941 "
   class="fil18"
   id="_21" />
       <polygon
   style="fill:#599476"
   points="9051,9085 922,9085 922,956 951,985 9022,985 9022,9056 951,9056 951,985 922,956 9051,956 "
   class="fil19"
   id="_22" />
       <polygon
   style="fill:#599576"
   points="9037,9071 936,9071 936,970 965,1000 9007,1000 9007,9042 965,9042 965,1000 936,970 9037,970 "
   class="fil20"
   id="_23" />
       <polygon
   style="fill:#5a9577"
   points="9022,9056 951,9056 951,985 980,1014 8993,1014 8993,9027 980,9027 980,1014 951,985 9022,985 "
   class="fil21"
   id="_24" />
       <polygon
   style="fill:#5a9677"
   points="9007,9042 965,9042 965,1000 995,1029 8978,1029 8978,9012 995,9012 995,1029 965,1000 9007,1000 "
   class="fil22"
   id="_25" />
       <polygon
   style="fill:#5a9678"
   points="8993,9027 980,9027 980,1014 1009,1044 8963,1044 8963,8998 1009,8998 1009,1044 980,1014 8993,1014 "
   class="fil23"
   id="_26" />
       <polygon
   style="fill:#5b9778"
   points="8978,9012 995,9012 995,1029 1024,1058 8949,1058 8949,8983 1024,8983 1024,1058 995,1029 8978,1029 "
   class="fil24"
   id="_27" />
       <polygon
   style="fill:#5b9778"
   points="8963,8998 1009,8998 1009,1044 1039,1073 8934,1073 8934,8968 1039,8968 1039,1073 1009,1044 8963,1044 "
   class="fil24"
   id="_28" />
       <polygon
   style="fill:#5b9879"
   points="8949,8983 1024,8983 1024,1058 1053,1087 8920,1087 8920,8954 1053,8954 1053,1087 1024,1058 8949,1058 "
   class="fil25"
   id="_29" />
       <polygon
   style="fill:#5c9879"
   points="8934,8968 1039,8968 1039,1073 1068,1102 8905,1102 8905,8939 1068,8939 1068,1102 1039,1073 8934,1073 "
   class="fil26"
   id="_30" />
       <polygon
   style="fill:#5c997a"
   points="8920,8954 1053,8954 1053,1087 1082,1117 8890,1117 8890,8925 1082,8925 1082,1117 1053,1087 8920,1087 "
   class="fil27"
   id="_31" />
       <polygon
   style="fill:#5c997a"
   points="8905,8939 1068,8939 1068,1102 1097,1131 8876,1131 8876,8910 1097,8910 1097,1131 1068,1102 8905,1102 "
   class="fil27"
   id="_32" />
       <polygon
   style="fill:#5d9a7b"
   points="8890,8925 1082,8925 1082,1117 1112,1146 8861,1146 8861,8895 1112,8895 1112,1146 1082,1117 8890,1117 "
   class="fil28"
   id="_33" />
       <polygon
   style="fill:#5d9a7b"
   points="8876,8910 1097,8910 1097,1131 1126,1160 8847,1160 8847,8881 1126,8881 1126,1160 1097,1131 8876,1131 "
   class="fil28"
   id="_34" />
       <polygon
   style="fill:#5d9a7b"
   points="8861,8895 1112,8895 1112,1146 1141,1175 8832,1175 8832,8866 1141,8866 1141,1175 1112,1146 8861,1146 "
   class="fil28"
   id="_35" />
       <polygon
   style="fill:#5d9b7c"
   points="8847,8881 1126,8881 1126,1160 1156,1190 8817,1190 8817,8851 1156,8851 1156,1190 1126,1160 8847,1160 "
   class="fil29"
   id="_36" />
       <polygon
   style="fill:#5e9b7c"
   points="8832,8866 1141,8866 1141,1175 1170,1204 8803,1204 8803,8837 1170,8837 1170,1204 1141,1175 8832,1175 "
   class="fil30"
   id="_37" />
       <polygon
   style="fill:#5e9c7d"
   points="8817,8851 1156,8851 1156,1190 1185,1219 8788,1219 8788,8822 1185,8822 1185,1219 1156,1190 8817,1190 "
   class="fil31"
   id="_38" />
       <polygon
   style="fill:#5e9c7d"
   points="8803,8837 1170,8837 1170,1204 1199,1234 8773,1234 8773,8808 1199,8808 1199,1234 1170,1204 8803,1204 "
   class="fil31"
   id="_39" />
       <polygon
   style="fill:#5f9d7d"
   points="8788,8822 1185,8822 1185,1219 1214,1248 8759,1248 8759,8793 1214,8793 1214,1248 1185,1219 8788,1219 "
   class="fil32"
   id="_40" />
       <polygon
   style="fill:#5f9d7e"
   points="8773,8808 1199,8808 1199,1234 1229,1263 8744,1263 8744,8778 1229,8778 1229,1263 1199,1234 8773,1234 "
   class="fil33"
   id="_41" />
       <polygon
   style="fill:#5f9e7e"
   points="8759,8793 1214,8793 1214,1248 1243,1277 8730,1277 8730,8764 1243,8764 1243,1277 1214,1248 8759,1248 "
   class="fil34"
   id="_42" />
       <polygon
   style="fill:#609e7f"
   points="8744,8778 1229,8778 1229,1263 1258,1292 8715,1292 8715,8749 1258,8749 1258,1292 1229,1263 8744,1263 "
   class="fil35"
   id="_43" />
       <polygon
   style="fill:#609f7f"
   points="8730,8764 1243,8764 1243,1277 1273,1307 8700,1307 8700,8734 1273,8734 1273,1307 1243,1277 8730,1277 "
   class="fil36"
   id="_44" />
       <polygon
   style="fill:#609f80"
   points="8715,8749 1258,8749 1258,1292 1287,1321 8686,1321 8686,8720 1287,8720 1287,1321 1258,1292 8715,1292 "
   class="fil37"
   id="_45" />
       <polygon
   style="fill:#60a080"
   points="8700,8734 1273,8734 1273,1307 1302,1336 8671,1336 8671,8705 1302,8705 1302,1336 1273,1307 8700,1307 "
   class="fil38"
   id="_46" />
       <polygon
   style="fill:#61a080"
   points="8686,8720 1287,8720 1287,1321 1316,1351 8656,1351 8656,8691 1316,8691 1316,1351 1287,1321 8686,1321 "
   class="fil39"
   id="_47" />
       <polygon
   style="fill:#61a181"
   points="8671,8705 1302,8705 1302,1336 1331,1365 8642,1365 8642,8676 1331,8676 1331,1365 1302,1336 8671,1336 "
   class="fil40"
   id="_48" />
       <polygon
   style="fill:#61a181"
   points="8656,8691 1316,8691 1316,1351 1346,1380 8627,1380 8627,8661 1346,8661 1346,1380 1316,1351 8656,1351 "
   class="fil40"
   id="_49" />
       <polygon
   style="fill:#62a282"
   points="8642,8676 1331,8676 1331,1365 1360,1394 8613,1394 8613,8647 1360,8647 1360,1394 1331,1365 8642,1365 "
   class="fil41"
   id="_50" />
       <polygon
   style="fill:#62a282"
   points="8627,8661 1346,8661 1346,1380 1375,1409 8598,1409 8598,8632 1375,8632 1375,1409 1346,1380 8627,1380 "
   class="fil41"
   id="_51" />
       <polygon
   style="fill:#62a383"
   points="8613,8647 1360,8647 1360,1394 1390,1424 8583,1424 8583,8617 1390,8617 1390,1424 1360,1394 8613,1394 "
   class="fil42"
   id="_52" />
       <polygon
   style="fill:#63a383"
   points="8598,8632 1375,8632 1375,1409 1404,1438 8569,1438 8569,8603 1404,8603 1404,1438 1375,1409 8598,1409 "
   class="fil43"
   id="_53" />
       <polygon
   style="fill:#63a483"
   points="8583,8617 1390,8617 1390,1424 1419,1453 8554,1453 8554,8588 1419,8588 1419,1453 1390,1424 8583,1424 "
   class="fil44"
   id="_54" />
       <polygon
   style="fill:#63a484"
   points="8569,8603 1404,8603 1404,1438 1433,1468 8539,1468 8539,8574 1433,8574 1433,1468 1404,1438 8569,1438 "
   class="fil45"
   id="_55" />
       <polygon
   style="fill:#63a584"
   points="8554,8588 1419,8588 1419,1453 1448,1482 8525,1482 8525,8559 1448,8559 1448,1482 1419,1453 8554,1453 "
   class="fil46"
   id="_56" />
       <polygon
   style="fill:#64a585"
   points="8539,8574 1433,8574 1433,1468 1463,1497 8510,1497 8510,8544 1463,8544 1463,1497 1433,1468 8539,1468 "
   class="fil47"
   id="_57" />
       <polygon
   style="fill:#64a685"
   points="8525,8559 1448,8559 1448,1482 1477,1511 8496,1511 8496,8530 1477,8530 1477,1511 1448,1482 8525,1482 "
   class="fil48"
   id="_58" />
       <polygon
   style="fill:#64a686"
   points="8510,8544 1463,8544 1463,1497 1492,1526 8481,1526 8481,8515 1492,8515 1492,1526 1463,1497 8510,1497 "
   class="fil49"
   id="_59" />
       <polygon
   style="fill:#65a786"
   points="8496,8530 1477,8530 1477,1511 1507,1541 8466,1541 8466,8500 1507,8500 1507,1541 1477,1511 8496,1511 "
   class="fil50"
   id="_60" />
       <polygon
   style="fill:#65a786"
   points="8481,8515 1492,8515 1492,1526 1521,1555 8452,1555 8452,8486 1521,8486 1521,1555 1492,1526 8481,1526 "
   class="fil50"
   id="_61" />
       <polygon
   style="fill:#65a887"
   points="8466,8500 1507,8500 1507,1541 1536,1570 8437,1570 8437,8471 1536,8471 1536,1570 1507,1541 8466,1541 "
   class="fil51"
   id="_62" />
       <polygon
   style="fill:#66a887"
   points="8452,8486 1521,8486 1521,1555 1550,1585 8423,1585 8423,8457 1550,8457 1550,1585 1521,1555 8452,1555 "
   class="fil52"
   id="_63" />
       <polygon
   style="fill:#66a988"
   points="8437,8471 1536,8471 1536,1570 1565,1599 8408,1599 8408,8442 1565,8442 1565,1599 1536,1570 8437,1570 "
   class="fil53"
   id="_64" />
       <polygon
   style="fill:#66a988"
   points="8423,8457 1550,8457 1550,1584 1580,1614 8393,1614 8393,8427 1580,8427 1580,1614 1550,1584 8423,1584 "
   class="fil53"
   id="_65" />
       <polygon
   style="fill:#67aa89"
   points="8408,8442 1565,8442 1565,1599 1594,1628 8379,1628 8379,8413 1594,8413 1594,1628 1565,1599 8408,1599 "
   class="fil54"
   id="_66" />
       <polygon
   style="fill:#67aa89"
   points="8393,8427 1580,8427 1580,1614 1609,1643 8364,1643 8364,8398 1609,8398 1609,1643 1580,1614 8393,1614 "
   class="fil54"
   id="_67" />
       <polygon
   style="fill:#67aa89"
   points="8379,8413 1594,8413 1594,1628 1623,1658 8349,1658 8349,8384 1623,8384 1623,1658 1594,1628 8379,1628 "
   class="fil54"
   id="_68" />
       <polygon
   style="fill:#67aa89"
   points="8364,8398 1609,8398 1609,1643 1638,1672 8335,1672 8335,8369 1638,8369 1638,1672 1609,1643 8364,1643 "
   class="fil54"
   id="_69" />
       <polygon
   style="fill:#67aa89"
   points="8349,8384 1623,8384 1623,1658 1653,1687 8320,1687 8320,8354 1653,8354 1653,1687 1623,1658 8349,1658 "
   class="fil54"
   id="_70" />
       <polygon
   style="fill:#67aa89"
   points="8335,8369 1638,8369 1638,1672 1667,1701 8306,1701 8306,8340 1667,8340 1667,1701 1638,1672 8335,1672 "
   class="fil54"
   id="_71" />
       <polygon
   style="fill:#67aa89"
   points="8320,8354 1653,8354 1653,1687 1682,1716 8291,1716 8291,8325 1682,8325 1682,1716 1653,1687 8320,1687 "
   class="fil54"
   id="_72" />
       <polygon
   style="fill:#67aa89"
   points="8306,8340 1667,8340 1667,1701 1697,1731 8276,1731 8276,8310 1697,8310 1697,1731 1667,1701 8306,1701 "
   class="fil54"
   id="_73" />
       <polygon
   style="fill:#67aa89"
   points="8291,8325 1682,8325 1682,1716 1711,1745 8262,1745 8262,8296 1711,8296 1711,1745 1682,1716 8291,1716 "
   class="fil54"
   id="_74" />
       <polygon
   style="fill:#67aa89"
   points="8276,8310 1697,8310 1697,1731 1726,1760 8247,1760 8247,8281 1726,8281 1726,1760 1697,1731 8276,1731 "
   class="fil54"
   id="_75" />
       <polygon
   style="fill:#67aa89"
   points="8262,8296 1711,8296 1711,1745 1740,1775 8232,1775 8232,8267 1740,8267 1740,1775 1711,1745 8262,1745 "
   class="fil54"
   id="_76" />
       <polygon
   style="fill:#67aa89"
   points="8247,8281 1726,8281 1726,1760 1755,1789 8218,1789 8218,8252 1755,8252 1755,1789 1726,1760 8247,1760 "
   class="fil54"
   id="_77" />
       <polygon
   style="fill:#67aa89"
   points="8232,8267 1740,8267 1740,1775 1770,1804 8203,1804 8203,8237 1770,8237 1770,1804 1740,1775 8232,1775 "
   class="fil54"
   id="_78" />
       <polygon
   style="fill:#67aa89"
   points="8218,8252 1755,8252 1755,1789 1784,1818 8189,1818 8189,8223 1784,8223 1784,1818 1755,1789 8218,1789 "
   class="fil54"
   id="_79" />
       <polygon
   style="fill:#67aa89"
   points="8203,8237 1770,8237 1770,1804 1799,1833 8174,1833 8174,8208 1799,8208 1799,1833 1770,1804 8203,1804 "
   class="fil54"
   id="_80" />
       <polygon
   style="fill:#67aa89"
   points="8189,8223 1784,8223 1784,1818 1814,1848 8159,1848 8159,8193 1814,8193 1814,1848 1784,1818 8189,1818 "
   class="fil54"
   id="_81" />
       <polygon
   style="fill:#67aa89"
   points="8174,8208 1799,8208 1799,1833 1828,1862 8145,1862 8145,8179 1828,8179 1828,1862 1799,1833 8174,1833 "
   class="fil54"
   id="_82" />
       <polygon
   style="fill:#67aa89"
   points="8159,8193 1814,8193 1814,1848 1843,1877 8130,1877 8130,8164 1843,8164 1843,1877 1814,1848 8159,1848 "
   class="fil54"
   id="_83" />
       <polygon
   style="fill:#67aa89"
   points="8145,8179 1828,8179 1828,1862 1857,1892 8115,1892 8115,8150 1857,8150 1857,1892 1828,1862 8145,1862 "
   class="fil54"
   id="_84" />
       <polygon
   style="fill:#67aa89"
   points="8130,8164 1843,8164 1843,1877 1872,1906 8101,1906 8101,8135 1872,8135 1872,1906 1843,1877 8130,1877 "
   class="fil54"
   id="_85" />
       <polygon
   style="fill:#67aa89"
   points="8115,8150 1857,8150 1857,1892 1887,1921 8086,1921 8086,8120 1887,8120 1887,1921 1857,1892 8115,1892 "
   class="fil54"
   id="_86" />
       <polygon
   style="fill:#67aa89"
   points="8101,8135 1872,8135 1872,1906 1901,1935 8072,1935 8072,8106 1901,8106 1901,1935 1872,1906 8101,1906 "
   class="fil54"
   id="_87" />
       <polygon
   style="fill:#67aa89"
   points="8086,8120 1887,8120 1887,1921 1916,1950 8057,1950 8057,8091 1916,8091 1916,1950 1887,1921 8086,1921 "
   class="fil54"
   id="_88" />
       <polygon
   style="fill:#67aa89"
   points="8072,8106 1901,8106 1901,1935 1931,1965 8042,1965 8042,8076 1931,8076 1931,1965 1901,1935 8072,1935 "
   class="fil54"
   id="_89" />
       <polygon
   style="fill:#67aa89"
   points="8057,8091 1916,8091 1916,1950 1945,1979 8028,1979 8028,8062 1945,8062 1945,1979 1916,1950 8057,1950 "
   class="fil54"
   id="_90" />
       <polygon
   style="fill:#67aa89"
   points="8042,8076 1931,8076 1931,1965 1960,1994 8013,1994 8013,8047 1960,8047 1960,1994 1931,1965 8042,1965 "
   class="fil54"
   id="_91" />
       <polygon
   style="fill:#67aa89"
   points="8028,8062 1945,8062 1945,1979 1974,2009 7998,2009 7998,8033 1974,8033 1974,2009 1945,1979 8028,1979 "
   class="fil54"
   id="_92" />
       <polygon
   style="fill:#67aa89"
   points="8013,8047 1960,8047 1960,1994 1989,2023 7984,2023 7984,8018 1989,8018 1989,2023 1960,1994 8013,1994 "
   class="fil54"
   id="_93" />
       <polygon
   style="fill:#67aa89"
   points="7998,8033 1974,8033 1974,2009 2004,2038 7969,2038 7969,8003 2004,8003 2004,2038 1974,2009 7998,2009 "
   class="fil54"
   id="_94" />
       <polygon
   style="fill:#67aa89"
   points="7984,8018 1989,8018 1989,2023 2018,2052 7955,2052 7955,7989 2018,7989 2018,2052 1989,2023 7984,2023 "
   class="fil54"
   id="_95" />
       <polygon
   style="fill:#67aa89"
   points="7969,8003 2004,8003 2004,2038 2033,2067 7940,2067 7940,7974 2033,7974 2033,2067 2004,2038 7969,2038 "
   class="fil54"
   id="_96" />
       <polygon
   style="fill:#67aa89"
   points="7955,7989 2018,7989 2018,2052 2047,2082 7925,2082 7925,7960 2047,7960 2047,2082 2018,2052 7955,2052 "
   class="fil54"
   id="_97" />
       <polygon
   style="fill:#67aa89"
   points="7940,7974 2033,7974 2033,2067 2062,2096 7911,2096 7911,7945 2062,7945 2062,2096 2033,2067 7940,2067 "
   class="fil54"
   id="_98" />
       <polygon
   style="fill:#67aa89"
   points="7925,7960 2047,7960 2047,2082 2077,2111 7896,2111 7896,7930 2077,7930 2077,2111 2047,2082 7925,2082 "
   class="fil54"
   id="_99" />
       <polygon
   style="fill:#67aa89"
   points="7911,7945 2062,7945 2062,2096 2091,2126 7881,2126 7881,7916 2091,7916 2091,2126 2062,2096 7911,2096 "
   class="fil54"
   id="_100" />
       <polygon
   style="fill:#67aa89"
   points="7896,7930 2077,7930 2077,2111 2106,2140 7867,2140 7867,7901 2106,7901 2106,2140 2077,2111 7896,2111 "
   class="fil54"
   id="_101" />
       <polygon
   style="fill:#67aa89"
   points="7881,7916 2091,7916 2091,2126 2121,2155 7852,2155 7852,7886 2121,7886 2121,2155 2091,2126 7881,2126 "
   class="fil54"
   id="_102" />
       <polygon
   style="fill:#67aa89"
   points="7867,7901 2106,7901 2106,2140 2135,2169 7838,2169 7838,7872 2135,7872 2135,2169 2106,2140 7867,2140 "
   class="fil54"
   id="_103" />
       <polygon
   style="fill:#67aa89"
   points="7852,7886 2121,7886 2121,2155 2150,2184 7823,2184 7823,7857 2150,7857 2150,2184 2121,2155 7852,2155 "
   class="fil54"
   id="_104" />
       <polygon
   style="fill:#67aa89"
   points="7838,7872 2135,7872 2135,2169 2164,2199 7808,2199 7808,7843 2164,7843 2164,2199 2135,2169 7838,2169 "
   class="fil54"
   id="_105" />
       <polygon
   style="fill:#67aa89"
   points="7823,7857 2150,7857 2150,2184 2179,2213 7794,2213 7794,7828 2179,7828 2179,2213 2150,2184 7823,2184 "
   class="fil54"
   id="_106" />
       <polygon
   style="fill:#67aa89"
   points="7808,7843 2164,7843 2164,2199 2194,2228 7779,2228 7779,7813 2194,7813 2194,2228 2164,2199 7808,2199 "
   class="fil54"
   id="_107" />
       <polygon
   style="fill:#67aa89"
   points="7794,7828 2179,7828 2179,2213 2208,2242 7765,2242 7765,7799 2208,7799 2208,2242 2179,2213 7794,2213 "
   class="fil54"
   id="_108" />
       <polygon
   style="fill:#67aa89"
   points="7779,7813 2194,7813 2194,2228 2223,2257 7750,2257 7750,7784 2223,7784 2223,2257 2194,2228 7779,2228 "
   class="fil54"
   id="_109" />
       <polygon
   style="fill:#67aa89"
   points="7765,7799 2208,7799 2208,2242 2238,2272 7735,2272 7735,7769 2238,7769 2238,2272 2208,2242 7765,2242 "
   class="fil54"
   id="_110" />
       <polygon
   style="fill:#67aa89"
   points="7750,7784 2223,7784 2223,2257 2252,2286 7721,2286 7721,7755 2252,7755 2252,2286 2223,2257 7750,2257 "
   class="fil54"
   id="_111" />
       <polygon
   style="fill:#67aa89"
   points="7735,7769 2238,7769 2238,2272 2267,2301 7706,2301 7706,7740 2267,7740 2267,2301 2238,2272 7735,2272 "
   class="fil54"
   id="_112" />
       <polygon
   style="fill:#67aa89"
   points="7721,7755 2252,7755 2252,2286 2281,2316 7691,2316 7691,7726 2281,7726 2281,2316 2252,2286 7721,2286 "
   class="fil54"
   id="_113" />
       <polygon
   style="fill:#67aa89"
   points="7706,7740 2267,7740 2267,2301 2296,2330 7677,2330 7677,7711 2296,7711 2296,2330 2267,2301 7706,2301 "
   class="fil54"
   id="_114" />
       <polygon
   style="fill:#67aa89"
   points="7691,7726 2281,7726 2281,2316 2311,2345 7662,2345 7662,7696 2311,7696 2311,2345 2281,2316 7691,2316 "
   class="fil54"
   id="_115" />
       <polygon
   style="fill:#67aa89"
   points="7677,7711 2296,7711 2296,2330 2325,2359 7648,2359 7648,7682 2325,7682 2325,2359 2296,2330 7677,2330 "
   class="fil54"
   id="_116" />
       <polygon
   style="fill:#67aa89"
   points="7662,7696 2311,7696 2311,2345 2340,2374 7633,2374 7633,7667 2340,7667 2340,2374 2311,2345 7662,2345 "
   class="fil54"
   id="_117" />
       <polygon
   style="fill:#67aa89"
   points="7648,7682 2325,7682 2325,2359 2355,2389 7618,2389 7618,7652 2355,7652 2355,2389 2325,2359 7648,2359 "
   class="fil54"
   id="_118" />
       <polygon
   style="fill:#67aa89"
   points="7633,7667 2340,7667 2340,2374 2369,2403 7604,2403 7604,7638 2369,7638 2369,2403 2340,2374 7633,2374 "
   class="fil54"
   id="_119" />
       <polygon
   style="fill:#67aa89"
   points="7618,7652 2355,7652 2355,2389 2384,2418 7589,2418 7589,7623 2384,7623 2384,2418 2355,2389 7618,2389 "
   class="fil54"
   id="_120" />
       <polygon
   style="fill:#67aa89"
   points="7604,7638 2369,7638 2369,2403 2398,2433 7574,2433 7574,7609 2398,7609 2398,2433 2369,2403 7604,2403 "
   class="fil54"
   id="_121" />
       <polygon
   style="fill:#67aa89"
   points="7589,7623 2384,7623 2384,2418 2413,2447 7560,2447 7560,7594 2413,7594 2413,2447 2384,2418 7589,2418 "
   class="fil54"
   id="_122" />
       <polygon
   style="fill:#67aa89"
   points="7574,7609 2398,7609 2398,2433 2428,2462 7545,2462 7545,7579 2428,7579 2428,2462 2398,2433 7574,2433 "
   class="fil54"
   id="_123" />
       <polygon
   style="fill:#67aa89"
   points="7560,7594 2413,7594 2413,2447 2442,2476 7531,2476 7531,7565 2442,7565 2442,2476 2413,2447 7560,2447 "
   class="fil54"
   id="_124" />
       <polygon
   style="fill:#67aa89"
   points="7545,7579 2428,7579 2428,2462 2457,2491 7516,2491 7516,7550 2457,7550 2457,2491 2428,2462 7545,2462 "
   class="fil54"
   id="_125" />
       <polygon
   style="fill:#67aa89"
   points="7531,7565 2442,7565 2442,2476 2472,2506 7501,2506 7501,7535 2472,7535 2472,2506 2442,2476 7531,2476 "
   class="fil54"
   id="_126" />
       <polygon
   style="fill:#67aa89"
   points="7516,7550 2457,7550 2457,2491 2486,2520 7487,2520 7487,7521 2486,7521 2486,2520 2457,2491 7516,2491 "
   class="fil54"
   id="_127" />
       <polygon
   style="fill:#67aa89"
   points="7501,7535 2472,7535 2472,2506 2501,2535 7472,2535 7472,7506 2501,7506 2501,2535 2472,2506 7501,2506 "
   class="fil54"
   id="_128" />
       <polygon
   style="fill:#67aa89"
   points="7487,7521 2486,7521 2486,2520 2515,2550 7457,2550 7457,7492 2515,7492 2515,2550 2486,2520 7487,2520 "
   class="fil54"
   id="_129" />
       <polygon
   style="fill:#67aa89"
   points="7472,7506 2501,7506 2501,2535 2530,2564 7443,2564 7443,7477 2530,7477 2530,2564 2501,2535 7472,2535 "
   class="fil54"
   id="_130" />
       <polygon
   style="fill:#67aa89"
   points="7457,7492 2515,7492 2515,2550 2545,2579 7428,2579 7428,7462 2545,7462 2545,2579 2515,2550 7457,2550 "
   class="fil54"
   id="_131" />
       <polygon
   style="fill:#67aa89"
   points="7443,7477 2530,7477 2530,2564 2559,2593 7414,2593 7414,7448 2559,7448 2559,2593 2530,2564 7443,2564 "
   class="fil54"
   id="_132" />
       <polygon
   style="fill:#67aa89"
   points="7428,7462 2545,7462 2545,2579 2574,2608 7399,2608 7399,7433 2574,7433 2574,2608 2545,2579 7428,2579 "
   class="fil54"
   id="_133" />
       <polygon
   style="fill:#67aa89"
   points="7414,7448 2559,7448 2559,2593 2589,2623 7384,2623 7384,7418 2589,7418 2589,2623 2559,2593 7414,2593 "
   class="fil54"
   id="_134" />
       <polygon
   style="fill:#67aa89"
   points="7399,7433 2574,7433 2574,2608 2603,2637 7370,2637 7370,7404 2603,7404 2603,2637 2574,2608 7399,2608 "
   class="fil54"
   id="_135" />
       <polygon
   style="fill:#67aa89"
   points="7384,7418 2589,7418 2589,2623 2618,2652 7355,2652 7355,7389 2618,7389 2618,2652 2589,2623 7384,2623 "
   class="fil54"
   id="_136" />
       <polygon
   style="fill:#67aa89"
   points="7370,7404 2603,7404 2603,2637 2632,2666 7341,2666 7341,7375 2632,7375 2632,2666 2603,2637 7370,2637 "
   class="fil54"
   id="_137" />
       <polygon
   style="fill:#67aa89"
   points="7355,7389 2618,7389 2618,2652 2647,2681 7326,2681 7326,7360 2647,7360 2647,2681 2618,2652 7355,2652 "
   class="fil54"
   id="_138" />
       <polygon
   style="fill:#67aa89"
   points="7341,7375 2632,7375 2632,2666 2662,2696 7311,2696 7311,7345 2662,7345 2662,2696 2632,2666 7341,2666 "
   class="fil54"
   id="_139" />
       <polygon
   style="fill:#67aa89"
   points="7326,7360 2647,7360 2647,2681 2676,2710 7297,2710 7297,7331 2676,7331 2676,2710 2647,2681 7326,2681 "
   class="fil54"
   id="_140" />
       <polygon
   style="fill:#67aa89"
   points="7311,7345 2662,7345 2662,2696 2691,2725 7282,2725 7282,7316 2691,7316 2691,2725 2662,2696 7311,2696 "
   class="fil54"
   id="_141" />
       <polygon
   style="fill:#67aa89"
   points="7297,7331 2676,7331 2676,2710 2705,2740 7267,2740 7267,7302 2705,7302 2705,2740 2676,2710 7297,2710 "
   class="fil54"
   id="_142" />
       <polygon
   style="fill:#67aa89"
   points="7282,7316 2691,7316 2691,2725 2720,2754 7253,2754 7253,7287 2720,7287 2720,2754 2691,2725 7282,2725 "
   class="fil54"
   id="_143" />
       <polygon
   style="fill:#67aa89"
   points="7267,7302 2705,7302 2705,2740 2735,2769 7238,2769 7238,7272 2735,7272 2735,2769 2705,2740 7267,2740 "
   class="fil54"
   id="_144" />
       <polygon
   style="fill:#67aa89"
   points="7253,7287 2720,7287 2720,2754 2749,2783 7224,2783 7224,7258 2749,7258 2749,2783 2720,2754 7253,2754 "
   class="fil54"
   id="_145" />
       <polygon
   style="fill:#67aa89"
   points="7238,7272 2735,7272 2735,2769 2764,2798 7209,2798 7209,7243 2764,7243 2764,2798 2735,2769 7238,2769 "
   class="fil54"
   id="_146" />
       <polygon
   style="fill:#67aa89"
   points="7224,7258 2749,7258 2749,2783 2779,2813 7194,2813 7194,7228 2779,7228 2779,2813 2749,2783 7224,2783 "
   class="fil54"
   id="_147" />
       <polygon
   style="fill:#67aa89"
   points="7209,7243 2764,7243 2764,2798 2793,2827 7180,2827 7180,7214 2793,7214 2793,2827 2764,2798 7209,2798 "
   class="fil54"
   id="_148" />
       <polygon
   style="fill:#67aa89"
   points="7194,7228 2779,7228 2779,2813 2808,2842 7165,2842 7165,7199 2808,7199 2808,2842 2779,2813 7194,2813 "
   class="fil54"
   id="_149" />
       <polygon
   style="fill:#67aa89"
   points="7180,7214 2793,7214 2793,2827 2822,2857 7150,2857 7150,7185 2822,7185 2822,2857 2793,2827 7180,2827 "
   class="fil54"
   id="_150" />
       <polygon
   style="fill:#67aa89"
   points="7165,7199 2808,7199 2808,2842 2837,2871 7136,2871 7136,7170 2837,7170 2837,2871 2808,2842 7165,2842 "
   class="fil54"
   id="_151" />
       <polygon
   style="fill:#67aa89"
   points="7150,7185 2822,7185 2822,2857 2852,2886 7121,2886 7121,7155 2852,7155 2852,2886 2822,2857 7150,2857 "
   class="fil54"
   id="_152" />
       <polygon
   style="fill:#67aa89"
   points="7136,7170 2837,7170 2837,2871 2866,2900 7107,2900 7107,7141 2866,7141 2866,2900 2837,2871 7136,2871 "
   class="fil54"
   id="_153" />
       <polygon
   style="fill:#67aa89"
   points="7121,7155 2852,7155 2852,2886 2881,2915 7092,2915 7092,7126 2881,7126 2881,2915 2852,2886 7121,2886 "
   class="fil54"
   id="_154" />
       <polygon
   style="fill:#67aa89"
   points="7107,7141 2866,7141 2866,2900 2896,2930 7077,2930 7077,7111 2896,7111 2896,2930 2866,2900 7107,2900 "
   class="fil54"
   id="_155" />
       <polygon
   style="fill:#67aa89"
   points="7092,7126 2881,7126 2881,2915 2910,2944 7063,2944 7063,7097 2910,7097 2910,2944 2881,2915 7092,2915 "
   class="fil54"
   id="_156" />
       <polygon
   style="fill:#67aa89"
   points="7077,7111 2896,7111 2896,2930 2925,2959 7048,2959 7048,7082 2925,7082 2925,2959 2896,2930 7077,2930 "
   class="fil54"
   id="_157" />
       <polygon
   style="fill:#67aa89"
   points="7063,7097 2910,7097 2910,2944 2939,2974 7033,2974 7033,7068 2939,7068 2939,2974 2910,2944 7063,2944 "
   class="fil54"
   id="_158" />
       <polygon
   style="fill:#67aa89"
   points="7048,7082 2925,7082 2925,2959 2954,2988 7019,2988 7019,7053 2954,7053 2954,2988 2925,2959 7048,2959 "
   class="fil54"
   id="_159" />
       <polygon
   style="fill:#67aa89"
   points="7033,7068 2939,7068 2939,2974 2969,3003 7004,3003 7004,7038 2969,7038 2969,3003 2939,2974 7033,2974 "
   class="fil54"
   id="_160" />
       <polygon
   style="fill:#67aa89"
   points="7019,7053 2954,7053 2954,2988 2983,3017 6990,3017 6990,7024 2983,7024 2983,3017 2954,2988 7019,2988 "
   class="fil54"
   id="_161" />
       <polygon
   style="fill:#67aa89"
   points="7004,7038 2969,7038 2969,3003 2998,3032 6975,3032 6975,7009 2998,7009 2998,3032 2969,3003 7004,3003 "
   class="fil54"
   id="_162" />
       <polygon
   style="fill:#67aa89"
   points="6990,7024 2983,7024 2983,3017 3013,3047 6960,3047 6960,6994 3013,6994 3013,3047 2983,3017 6990,3017 "
   class="fil54"
   id="_163" />
       <polygon
   style="fill:#67aa89"
   points="6975,7009 2998,7009 2998,3032 3027,3061 6946,3061 6946,6980 3027,6980 3027,3061 2998,3032 6975,3032 "
   class="fil54"
   id="_164" />
       <polygon
   style="fill:#67aa89"
   points="6960,6994 3013,6994 3013,3047 3042,3076 6931,3076 6931,6965 3042,6965 3042,3076 3013,3047 6960,3047 "
   class="fil54"
   id="_165" />
       <polygon
   style="fill:#67aa89"
   points="6946,6980 3027,6980 3027,3061 3056,3091 6916,3091 6916,6951 3056,6951 3056,3091 3027,3061 6946,3061 "
   class="fil54"
   id="_166" />
       <polygon
   style="fill:#67aa89"
   points="6931,6965 3042,6965 3042,3076 3071,3105 6902,3105 6902,6936 3071,6936 3071,3105 3042,3076 6931,3076 "
   class="fil54"
   id="_167" />
       <polygon
   style="fill:#67aa89"
   points="6916,6951 3056,6951 3056,3091 3086,3120 6887,3120 6887,6921 3086,6921 3086,3120 3056,3091 6916,3091 "
   class="fil54"
   id="_168" />
       <polygon
   style="fill:#67aa89"
   points="6902,6936 3071,6936 3071,3105 3100,3134 6873,3134 6873,6907 3100,6907 3100,3134 3071,3105 6902,3105 "
   class="fil54"
   id="_169" />
       <polygon
   style="fill:#67aa89"
   points="6887,6921 3086,6921 3086,3120 3115,3149 6858,3149 6858,6892 3115,6892 3115,3149 3086,3120 6887,3120 "
   class="fil54"
   id="_170" />
       <polygon
   style="fill:#67aa89"
   points="6873,6907 3100,6907 3100,3134 3129,3164 6843,3164 6843,6878 3129,6878 3129,3164 3100,3134 6873,3134 "
   class="fil54"
   id="_171" />
       <polygon
   style="fill:#67aa89"
   points="6858,6892 3115,6892 3115,3149 3144,3178 6829,3178 6829,6863 3144,6863 3144,3178 3115,3149 6858,3149 "
   class="fil54"
   id="_172" />
       <polygon
   style="fill:#67aa89"
   points="6843,6878 3129,6878 3129,3164 3159,3193 6814,3193 6814,6848 3159,6848 3159,3193 3129,3164 6843,3164 "
   class="fil54"
   id="_173" />
       <polygon
   style="fill:#67aa89"
   points="6829,6863 3144,6863 3144,3178 3173,3208 6800,3208 6800,6834 3173,6834 3173,3208 3144,3178 6829,3178 "
   class="fil54"
   id="_174" />
       <polygon
   style="fill:#67aa89"
   points="6814,6848 3159,6848 3159,3193 3188,3222 6785,3222 6785,6819 3188,6819 3188,3222 3159,3193 6814,3193 "
   class="fil54"
   id="_175" />
       <polygon
   style="fill:#67aa89"
   points="6800,6834 3173,6834 3173,3208 3203,3237 6770,3237 6770,6804 3203,6804 3203,3237 3173,3208 6800,3208 "
   class="fil54"
   id="_176" />
       <polygon
   style="fill:#67aa89"
   points="6785,6819 3188,6819 3188,3222 3217,3251 6756,3251 6756,6790 3217,6790 3217,3251 3188,3222 6785,3222 "
   class="fil54"
   id="_177" />
       <polygon
   style="fill:#67aa89"
   points="6770,6804 3203,6804 3203,3237 3232,3266 6741,3266 6741,6775 3232,6775 3232,3266 3203,3237 6770,3237 "
   class="fil54"
   id="_178" />
       <polygon
   style="fill:#67aa89"
   points="6756,6790 3217,6790 3217,3251 3246,3281 6726,3281 6726,6761 3246,6761 3246,3281 3217,3251 6756,3251 "
   class="fil54"
   id="_179" />
       <polygon
   style="fill:#67aa89"
   points="6741,6775 3232,6775 3232,3266 3261,3295 6712,3295 6712,6746 3261,6746 3261,3295 3232,3266 6741,3266 "
   class="fil54"
   id="_180" />
       <polygon
   style="fill:#67aa89"
   points="6726,6761 3246,6761 3246,3281 3276,3310 6697,3310 6697,6731 3276,6731 3276,3310 3246,3281 6726,3281 "
   class="fil54"
   id="_181" />
       <polygon
   style="fill:#67aa89"
   points="6712,6746 3261,6746 3261,3295 3290,3324 6683,3324 6683,6717 3290,6717 3290,3324 3261,3295 6712,3295 "
   class="fil54"
   id="_182" />
       <polygon
   style="fill:#67aa89"
   points="6697,6731 3276,6731 3276,3310 3305,3339 6668,3339 6668,6702 3305,6702 3305,3339 3276,3310 6697,3310 "
   class="fil54"
   id="_183" />
       <polygon
   style="fill:#67aa89"
   points="6683,6717 3290,6717 3290,3324 3320,3354 6653,3354 6653,6687 3320,6687 3320,3354 3290,3324 6683,3324 "
   class="fil54"
   id="_184" />
       <polygon
   style="fill:#67aa89"
   points="6668,6702 3305,6702 3305,3339 3334,3368 6639,3368 6639,6673 3334,6673 3334,3368 3305,3339 6668,3339 "
   class="fil54"
   id="_185" />
       <polygon
   style="fill:#67aa89"
   points="6653,6687 3320,6687 3320,3354 3349,3383 6624,3383 6624,6658 3349,6658 3349,3383 3320,3354 6653,3354 "
   class="fil54"
   id="_186" />
       <polygon
   style="fill:#67aa89"
   points="6639,6673 3334,6673 3334,3368 3363,3398 6609,3398 6609,6644 3363,6644 3363,3398 3334,3368 6639,3368 "
   class="fil54"
   id="_187" />
       <polygon
   style="fill:#67aa89"
   points="6624,6658 3349,6658 3349,3383 3378,3412 6595,3412 6595,6629 3378,6629 3378,3412 3349,3383 6624,3383 "
   class="fil54"
   id="_188" />
       <polygon
   style="fill:#67aa89"
   points="6609,6644 3363,6644 3363,3398 3393,3427 6580,3427 6580,6614 3393,6614 3393,3427 3363,3398 6609,3398 "
   class="fil54"
   id="_189" />
       <polygon
   style="fill:#67aa89"
   points="6595,6629 3378,6629 3378,3412 3407,3441 6566,3441 6566,6600 3407,6600 3407,3441 3378,3412 6595,3412 "
   class="fil54"
   id="_190" />
       <polygon
   style="fill:#67aa89"
   points="6580,6614 3393,6614 3393,3427 3422,3456 6551,3456 6551,6585 3422,6585 3422,3456 3393,3427 6580,3427 "
   class="fil54"
   id="_191" />
       <polygon
   style="fill:#67aa89"
   points="6566,6600 3407,6600 3407,3441 3437,3471 6536,3471 6536,6570 3437,6570 3437,3471 3407,3441 6566,3441 "
   class="fil54"
   id="_192" />
       <polygon
   style="fill:#67aa89"
   points="6551,6585 3422,6585 3422,3456 3451,3485 6522,3485 6522,6556 3451,6556 3451,3485 3422,3456 6551,3456 "
   class="fil54"
   id="_193" />
       <polygon
   style="fill:#67aa89"
   points="6536,6570 3437,6570 3437,3471 3466,3500 6507,3500 6507,6541 3466,6541 3466,3500 3437,3471 6536,3471 "
   class="fil54"
   id="_194" />
       <polygon
   style="fill:#67aa89"
   points="6522,6556 3451,6556 3451,3485 3480,3515 6492,3515 6492,6527 3480,6527 3480,3515 3451,3485 6522,3485 "
   class="fil54"
   id="_195" />
       <polygon
   style="fill:#67aa89"
   points="6507,6541 3466,6541 3466,3500 3495,3529 6478,3529 6478,6512 3495,6512 3495,3529 3466,3500 6507,3500 "
   class="fil54"
   id="_196" />
       <polygon
   style="fill:#67aa89"
   points="6492,6527 3480,6527 3480,3515 3510,3544 6463,3544 6463,6497 3510,6497 3510,3544 3480,3515 6492,3515 "
   class="fil54"
   id="_197" />
       <polygon
   style="fill:#67aa89"
   points="6478,6512 3495,6512 3495,3529 3524,3558 6449,3558 6449,6483 3524,6483 3524,3558 3495,3529 6478,3529 "
   class="fil54"
   id="_198" />
       <polygon
   style="fill:#67aa89"
   points="6463,6497 3510,6497 3510,3544 3539,3573 6434,3573 6434,6468 3539,6468 3539,3573 3510,3544 6463,3544 "
   class="fil54"
   id="_199" />
       <polygon
   style="fill:#67aa89"
   points="6449,6483 3524,6483 3524,3558 3554,3588 6419,3588 6419,6453 3554,6453 3554,3588 3524,3558 6449,3558 "
   class="fil54"
   id="_200" />
       <polygon
   style="fill:#67aa89"
   points="6434,6468 3539,6468 3539,3573 3568,3602 6405,3602 6405,6439 3568,6439 3568,3602 3539,3573 6434,3573 "
   class="fil54"
   id="_201" />
       <polygon
   style="fill:#67aa89"
   points="6419,6453 3554,6453 3554,3588 3583,3617 6390,3617 6390,6424 3583,6424 3583,3617 3554,3588 6419,3588 "
   class="fil54"
   id="_202" />
       <polygon
   style="fill:#67aa89"
   points="6405,6439 3568,6439 3568,3602 3597,3632 6375,3632 6375,6410 3597,6410 3597,3632 3568,3602 6405,3602 "
   class="fil54"
   id="_203" />
       <polygon
   style="fill:#67aa89"
   points="6390,6424 3583,6424 3583,3617 3612,3646 6361,3646 6361,6395 3612,6395 3612,3646 3583,3617 6390,3617 "
   class="fil54"
   id="_204" />
       <polygon
   style="fill:#67aa89"
   points="6375,6410 3597,6410 3597,3632 3627,3661 6346,3661 6346,6380 3627,6380 3627,3661 3597,3632 6375,3632 "
   class="fil54"
   id="_205" />
       <polygon
   style="fill:#67aa89"
   points="6361,6395 3612,6395 3612,3646 3641,3675 6332,3675 6332,6366 3641,6366 3641,3675 3612,3646 6361,3646 "
   class="fil54"
   id="_206" />
       <polygon
   style="fill:#67aa89"
   points="6346,6380 3627,6380 3627,3661 3656,3690 6317,3690 6317,6351 3656,6351 3656,3690 3627,3661 6346,3661 "
   class="fil54"
   id="_207" />
       <polygon
   style="fill:#67aa89"
   points="6332,6366 3641,6366 3641,3675 3671,3705 6302,3705 6302,6337 3671,6337 3671,3705 3641,3675 6332,3675 "
   class="fil54"
   id="_208" />
       <polygon
   style="fill:#67aa89"
   points="6317,6351 3656,6351 3656,3690 3685,3719 6288,3719 6288,6322 3685,6322 3685,3719 3656,3690 6317,3690 "
   class="fil54"
   id="_209" />
       <polygon
   style="fill:#67aa89"
   points="6302,6337 3671,6337 3671,3705 3700,3734 6273,3734 6273,6307 3700,6307 3700,3734 3671,3705 6302,3705 "
   class="fil54"
   id="_210" />
       <polygon
   style="fill:#67aa89"
   points="6288,6322 3685,6322 3685,3719 3714,3748 6259,3748 6259,6293 3714,6293 3714,3748 3685,3719 6288,3719 "
   class="fil54"
   id="_211" />
       <polygon
   style="fill:#67aa89"
   points="6273,6307 3700,6307 3700,3734 3729,3763 6244,3763 6244,6278 3729,6278 3729,3763 3700,3734 6273,3734 "
   class="fil54"
   id="_212" />
       <polygon
   style="fill:#67aa89"
   points="6259,6293 3714,6293 3714,3748 3744,3778 6229,3778 6229,6263 3744,6263 3744,3778 3714,3748 6259,3748 "
   class="fil54"
   id="_213" />
       <polygon
   style="fill:#67aa89"
   points="6244,6278 3729,6278 3729,3763 3758,3792 6215,3792 6215,6249 3758,6249 3758,3792 3729,3763 6244,3763 "
   class="fil54"
   id="_214" />
       <polygon
   style="fill:#67aa89"
   points="6229,6263 3744,6263 3744,3778 3773,3807 6200,3807 6200,6234 3773,6234 3773,3807 3744,3778 6229,3778 "
   class="fil54"
   id="_215" />
       <polygon
   style="fill:#67aa89"
   points="6215,6249 3758,6249 3758,3792 3787,3822 6185,3822 6185,6220 3787,6220 3787,3822 3758,3792 6215,3792 "
   class="fil54"
   id="_216" />
       <polygon
   style="fill:#67aa89"
   points="6200,6234 3773,6234 3773,3807 3802,3836 6171,3836 6171,6205 3802,6205 3802,3836 3773,3807 6200,3807 "
   class="fil54"
   id="_217" />
       <polygon
   style="fill:#67aa89"
   points="6185,6220 3787,6220 3787,3822 3817,3851 6156,3851 6156,6190 3817,6190 3817,3851 3787,3822 6185,3822 "
   class="fil54"
   id="_218" />
       <polygon
   style="fill:#67aa89"
   points="6171,6205 3802,6205 3802,3836 3831,3865 6142,3865 6142,6176 3831,6176 3831,3865 3802,3836 6171,3836 "
   class="fil54"
   id="_219" />
       <polygon
   style="fill:#67aa89"
   points="6156,6190 3817,6190 3817,3851 3846,3880 6127,3880 6127,6161 3846,6161 3846,3880 3817,3851 6156,3851 "
   class="fil54"
   id="_220" />
       <polygon
   style="fill:#67aa89"
   points="6142,6176 3831,6176 3831,3865 3861,3895 6112,3895 6112,6146 3861,6146 3861,3895 3831,3865 6142,3865 "
   class="fil54"
   id="_221" />
       <polygon
   style="fill:#67aa89"
   points="6127,6161 3846,6161 3846,3880 3875,3909 6098,3909 6098,6132 3875,6132 3875,3909 3846,3880 6127,3880 "
   class="fil54"
   id="_222" />
       <polygon
   style="fill:#67aa89"
   points="6112,6146 3861,6146 3861,3895 3890,3924 6083,3924 6083,6117 3890,6117 3890,3924 3861,3895 6112,3895 "
   class="fil54"
   id="_223" />
       <polygon
   style="fill:#67aa89"
   points="6098,6132 3875,6132 3875,3909 3904,3939 6068,3939 6068,6103 3904,6103 3904,3939 3875,3909 6098,3909 "
   class="fil54"
   id="_224" />
       <polygon
   style="fill:#67aa89"
   points="6083,6117 3890,6117 3890,3924 3919,3953 6054,3953 6054,6088 3919,6088 3919,3953 3890,3924 6083,3924 "
   class="fil54"
   id="_225" />
       <polygon
   style="fill:#67aa89"
   points="6068,6103 3904,6103 3904,3939 3934,3968 6039,3968 6039,6073 3934,6073 3934,3968 3904,3939 6068,3939 "
   class="fil54"
   id="_226" />
       <polygon
   style="fill:#67aa89"
   points="6054,6088 3919,6088 3919,3953 3948,3982 6025,3982 6025,6059 3948,6059 3948,3982 3919,3953 6054,3953 "
   class="fil54"
   id="_227" />
       <polygon
   style="fill:#67aa89"
   points="6039,6073 3934,6073 3934,3968 3963,3997 6010,3997 6010,6044 3963,6044 3963,3997 3934,3968 6039,3968 "
   class="fil54"
   id="_228" />
       <polygon
   style="fill:#67aa89"
   points="6025,6059 3948,6059 3948,3982 3978,4012 5995,4012 5995,6029 3978,6029 3978,4012 3948,3982 6025,3982 "
   class="fil54"
   id="_229" />
       <polygon
   style="fill:#67aa89"
   points="6010,6044 3963,6044 3963,3997 3992,4026 5981,4026 5981,6015 3992,6015 3992,4026 3963,3997 6010,3997 "
   class="fil54"
   id="_230" />
       <polygon
   style="fill:#67aa89"
   points="5995,6029 3978,6029 3978,4012 4007,4041 5966,4041 5966,6000 4007,6000 4007,4041 3978,4012 5995,4012 "
   class="fil54"
   id="_231" />
       <polygon
   style="fill:#67aa89"
   points="5981,6015 3992,6015 3992,4026 4021,4056 5951,4056 5951,5986 4021,5986 4021,4056 3992,4026 5981,4026 "
   class="fil54"
   id="_232" />
       <polygon
   style="fill:#67aa89"
   points="5966,6000 4007,6000 4007,4041 4036,4070 5937,4070 5937,5971 4036,5971 4036,4070 4007,4041 5966,4041 "
   class="fil54"
   id="_233" />
       <polygon
   style="fill:#67aa89"
   points="5951,5986 4021,5986 4021,4056 4051,4085 5922,4085 5922,5956 4051,5956 4051,4085 4021,4056 5951,4056 "
   class="fil54"
   id="_234" />
       <polygon
   style="fill:#67aa89"
   points="5937,5971 4036,5971 4036,4070 4065,4099 5908,4099 5908,5942 4065,5942 4065,4099 4036,4070 5937,4070 "
   class="fil54"
   id="_235" />
       <polygon
   style="fill:#67aa89"
   points="5922,5956 4051,5956 4051,4085 4080,4114 5893,4114 5893,5927 4080,5927 4080,4114 4051,4085 5922,4085 "
   class="fil54"
   id="_236" />
       <polygon
   style="fill:#67aa89"
   points="5908,5942 4065,5942 4065,4099 4095,4129 5878,4129 5878,5912 4095,5912 4095,4129 4065,4099 5908,4099 "
   class="fil54"
   id="_237" />
       <polygon
   style="fill:#67aa89"
   points="5893,5927 4080,5927 4080,4114 4109,4143 5864,4143 5864,5898 4109,5898 4109,4143 4080,4114 5893,4114 "
   class="fil54"
   id="_238" />
       <polygon
   style="fill:#67aa89"
   points="5878,5912 4095,5912 4095,4129 4124,4158 5849,4158 5849,5883 4124,5883 4124,4158 4095,4129 5878,4129 "
   class="fil54"
   id="_239" />
       <polygon
   style="fill:#67aa89"
   points="5864,5898 4109,5898 4109,4143 4138,4173 5834,4173 5834,5869 4138,5869 4138,4173 4109,4143 5864,4143 "
   class="fil54"
   id="_240" />
       <polygon
   style="fill:#67aa89"
   points="5849,5883 4124,5883 4124,4158 4153,4187 5820,4187 5820,5854 4153,5854 4153,4187 4124,4158 5849,4158 "
   class="fil54"
   id="_241" />
       <polygon
   style="fill:#67aa89"
   points="5834,5869 4138,5869 4138,4173 4168,4202 5805,4202 5805,5839 4168,5839 4168,4202 4138,4173 5834,4173 "
   class="fil54"
   id="_242" />
       <polygon
   style="fill:#67aa89"
   points="5820,5854 4153,5854 4153,4187 4182,4216 5791,4216 5791,5825 4182,5825 4182,4216 4153,4187 5820,4187 "
   class="fil54"
   id="_243" />
       <polygon
   style="fill:#67aa89"
   points="5805,5839 4168,5839 4168,4202 4197,4231 5776,4231 5776,5810 4197,5810 4197,4231 4168,4202 5805,4202 "
   class="fil54"
   id="_244" />
       <polygon
   style="fill:#67aa89"
   points="5791,5825 4182,5825 4182,4216 4211,4246 5761,4246 5761,5796 4211,5796 4211,4246 4182,4216 5791,4216 "
   class="fil54"
   id="_245" />
       <polygon
   style="fill:#67aa89"
   points="5776,5810 4197,5810 4197,4231 4226,4260 5747,4260 5747,5781 4226,5781 4226,4260 4197,4231 5776,4231 "
   class="fil54"
   id="_246" />
       <polygon
   style="fill:#67aa89"
   points="5761,5796 4211,5796 4211,4246 4241,4275 5732,4275 5732,5766 4241,5766 4241,4275 4211,4246 5761,4246 "
   class="fil54"
   id="_247" />
       <polygon
   style="fill:#67aa89"
   points="5747,5781 4226,5781 4226,4260 4255,4289 5718,4289 5718,5752 4255,5752 4255,4289 4226,4260 5747,4260 "
   class="fil54"
   id="_248" />
       <polygon
   style="fill:#67aa89"
   points="5732,5766 4241,5766 4241,4275 4270,4304 5703,4304 5703,5737 4270,5737 4270,4304 4241,4275 5732,4275 "
   class="fil54"
   id="_249" />
       <polygon
   style="fill:#67aa89"
   points="5718,5752 4255,5752 4255,4289 4285,4319 5688,4319 5688,5722 4285,5722 4285,4319 4255,4289 5718,4289 "
   class="fil54"
   id="_250" />
       <polygon
   style="fill:#67aa89"
   points="5703,5737 4270,5737 4270,4304 4299,4333 5674,4333 5674,5708 4299,5708 4299,4333 4270,4304 5703,4304 "
   class="fil54"
   id="_251" />
       <polygon
   style="fill:#67aa89"
   points="5688,5722 4285,5722 4285,4319 4314,4348 5659,4348 5659,5693 4314,5693 4314,4348 4285,4319 5688,4319 "
   class="fil54"
   id="_252" />
       <polygon
   style="fill:#67aa89"
   points="5674,5708 4299,5708 4299,4333 4328,4363 5644,4363 5644,5679 4328,5679 4328,4363 4299,4333 5674,4333 "
   class="fil54"
   id="_253" />
       <polygon
   style="fill:#67aa89"
   points="5659,5693 4314,5693 4314,4348 4343,4377 5630,4377 5630,5664 4343,5664 4343,4377 4314,4348 5659,4348 "
   class="fil54"
   id="_254" />
       <polygon
   style="fill:#67aa89"
   points="5644,5679 4328,5679 4328,4363 4358,4392 5615,4392 5615,5649 4358,5649 4358,4392 4328,4363 5644,4363 "
   class="fil54"
   id="_255" />
       <polygon
   style="fill:#67aa89"
   points="5630,5664 4343,5664 4343,4377 4372,4406 5601,4406 5601,5635 4372,5635 4372,4406 4343,4377 5630,4377 "
   class="fil54"
   id="_256" />
       <polygon
   style="fill:#67aa89"
   points="5615,5649 4358,5649 4358,4392 4387,4421 5586,4421 5586,5620 4387,5620 4387,4421 4358,4392 5615,4392 "
   class="fil54"
   id="_257" />
       <polygon
   style="fill:#67aa89"
   points="5601,5635 4372,5635 4372,4406 4402,4436 5571,4436 5571,5605 4402,5605 4402,4436 4372,4406 5601,4406 "
   class="fil54"
   id="_258" />
       <polygon
   style="fill:#67aa89"
   points="5586,5620 4387,5620 4387,4421 4416,4450 5557,4450 5557,5591 4416,5591 4416,4450 4387,4421 5586,4421 "
   class="fil54"
   id="_259" />
       <polygon
   style="fill:#67aa89"
   points="5571,5605 4402,5605 4402,4436 4431,4465 5542,4465 5542,5576 4431,5576 4431,4465 4402,4436 5571,4436 "
   class="fil54"
   id="_260" />
       <polygon
   style="fill:#67aa89"
   points="5557,5591 4416,5591 4416,4450 4445,4480 5527,4480 5527,5562 4445,5562 4445,4480 4416,4450 5557,4450 "
   class="fil54"
   id="_261" />
       <polygon
   style="fill:#67aa89"
   points="5542,5576 4431,5576 4431,4465 4460,4494 5513,4494 5513,5547 4460,5547 4460,4494 4431,4465 5542,4465 "
   class="fil54"
   id="_262" />
       <polygon
   style="fill:#67aa89"
   points="5527,5562 4445,5562 4445,4480 4475,4509 5498,4509 5498,5532 4475,5532 4475,4509 4445,4480 5527,4480 "
   class="fil54"
   id="_263" />
       <polygon
   style="fill:#67aa89"
   points="5513,5547 4460,5547 4460,4494 4489,4523 5484,4523 5484,5518 4489,5518 4489,4523 4460,4494 5513,4494 "
   class="fil54"
   id="_264" />
       <polygon
   style="fill:#67aa89"
   points="5498,5532 4475,5532 4475,4509 4504,4538 5469,4538 5469,5503 4504,5503 4504,4538 4475,4509 5498,4509 "
   class="fil54"
   id="_265" />
       <polygon
   style="fill:#67aa89"
   points="5484,5518 4489,5518 4489,4523 4519,4553 5454,4553 5454,5488 4519,5488 4519,4553 4489,4523 5484,4523 "
   class="fil54"
   id="_266" />
       <polygon
   style="fill:#67aa89"
   points="5469,5503 4504,5503 4504,4538 4533,4567 5440,4567 5440,5474 4533,5474 4533,4567 4504,4538 5469,4538 "
   class="fil54"
   id="_267" />
       <polygon
   style="fill:#67aa89"
   points="5454,5488 4519,5488 4519,4553 4548,4582 5425,4582 5425,5459 4548,5459 4548,4582 4519,4553 5454,4553 "
   class="fil54"
   id="_268" />
       <polygon
   style="fill:#67aa89"
   points="5440,5474 4533,5474 4533,4567 4562,4597 5410,4597 5410,5445 4562,5445 4562,4597 4533,4567 5440,4567 "
   class="fil54"
   id="_269" />
       <polygon
   style="fill:#67aa89"
   points="5425,5459 4548,5459 4548,4582 4577,4611 5396,4611 5396,5430 4577,5430 4577,4611 4548,4582 5425,4582 "
   class="fil54"
   id="_270" />
       <polygon
   style="fill:#67aa89"
   points="5410,5445 4562,5445 4562,4597 4592,4626 5381,4626 5381,5415 4592,5415 4592,4626 4562,4597 5410,4597 "
   class="fil54"
   id="_271" />
       <polygon
   style="fill:#67aa89"
   points="5396,5430 4577,5430 4577,4611 4606,4640 5367,4640 5367,5401 4606,5401 4606,4640 4577,4611 5396,4611 "
   class="fil54"
   id="_272" />
       <polygon
   style="fill:#67aa89"
   points="5381,5415 4592,5415 4592,4626 4621,4655 5352,4655 5352,5386 4621,5386 4621,4655 4592,4626 5381,4626 "
   class="fil54"
   id="_273" />
       <polygon
   style="fill:#67aa89"
   points="5367,5401 4606,5401 4606,4640 4636,4670 5337,4670 5337,5371 4636,5371 4636,4670 4606,4640 5367,4640 "
   class="fil54"
   id="_274" />
       <polygon
   style="fill:#67aa89"
   points="5352,5386 4621,5386 4621,4655 4650,4684 5323,4684 5323,5357 4650,5357 4650,4684 4621,4655 5352,4655 "
   class="fil54"
   id="_275" />
       <polygon
   style="fill:#67aa89"
   points="5337,5371 4636,5371 4636,4670 4665,4699 5308,4699 5308,5342 4665,5342 4665,4699 4636,4670 5337,4670 "
   class="fil54"
   id="_276" />
       <polygon
   style="fill:#67aa89"
   points="5323,5357 4650,5357 4650,4684 4679,4714 5293,4714 5293,5328 4679,5328 4679,4714 4650,4684 5323,4684 "
   class="fil54"
   id="_277" />
       <polygon
   style="fill:#67aa89"
   points="5308,5342 4665,5342 4665,4699 4694,4728 5279,4728 5279,5313 4694,5313 4694,4728 4665,4699 5308,4699 "
   class="fil54"
   id="_278" />
       <polygon
   style="fill:#67aa89"
   points="5293,5328 4679,5328 4679,4714 4709,4743 5264,4743 5264,5298 4709,5298 4709,4743 4679,4714 5293,4714 "
   class="fil54"
   id="_279" />
       <polygon
   style="fill:#67aa89"
   points="5279,5313 4694,5313 4694,4728 4723,4757 5250,4757 5250,5284 4723,5284 4723,4757 4694,4728 5279,4728 "
   class="fil54"
   id="_280" />
       <polygon
   style="fill:#67aa89"
   points="5264,5298 4709,5298 4709,4743 4738,4772 5235,4772 5235,5269 4738,5269 4738,4772 4709,4743 5264,4743 "
   class="fil54"
   id="_281" />
       <polygon
   style="fill:#67aa89"
   points="5250,5284 4723,5284 4723,4757 4752,4787 5220,4787 5220,5255 4752,5255 4752,4787 4723,4757 5250,4757 "
   class="fil54"
   id="_282" />
       <polygon
   style="fill:#67aa89"
   points="5235,5269 4738,5269 4738,4772 4767,4801 5206,4801 5206,5240 4767,5240 4767,4801 4738,4772 5235,4772 "
   class="fil54"
   id="_283" />
       <polygon
   style="fill:#67aa89"
   points="5220,5255 4752,5255 4752,4787 4782,4816 5191,4816 5191,5225 4782,5225 4782,4816 4752,4787 5220,4787 "
   class="fil54"
   id="_284" />
       <polygon
   style="fill:#67aa89"
   points="5206,5240 4767,5240 4767,4801 4796,4830 5177,4830 5177,5211 4796,5211 4796,4830 4767,4801 5206,4801 "
   class="fil54"
   id="_285" />
       <polygon
   style="fill:#67aa89"
   points="5191,5225 4782,5225 4782,4816 4811,4845 5162,4845 5162,5196 4811,5196 4811,4845 4782,4816 5191,4816 "
   class="fil54"
   id="_286" />
       <polygon
   style="fill:#67aa89"
   points="5177,5211 4796,5211 4796,4830 4826,4860 5147,4860 5147,5181 4826,5181 4826,4860 4796,4830 5177,4830 "
   class="fil54"
   id="_287" />
       <polygon
   style="fill:#67aa89"
   points="5162,5196 4811,5196 4811,4845 4840,4874 5133,4874 5133,5167 4840,5167 4840,4874 4811,4845 5162,4845 "
   class="fil54"
   id="_288" />
       <polygon
   style="fill:#67aa89"
   points="5147,5181 4826,5181 4826,4860 4855,4889 5118,4889 5118,5152 4855,5152 4855,4889 4826,4860 5147,4860 "
   class="fil54"
   id="_289" />
       <polygon
   style="fill:#67aa89"
   points="5133,5167 4840,5167 4840,4874 4869,4904 5103,4904 5103,5138 4869,5138 4869,4904 4840,4874 5133,4874 "
   class="fil54"
   id="_290" />
       <polygon
   style="fill:#67aa89"
   points="5118,5152 4855,5152 4855,4889 4884,4918 5089,4918 5089,5123 4884,5123 4884,4918 4855,4889 5118,4889 "
   class="fil54"
   id="_291" />
       <polygon
   style="fill:#67aa89"
   points="5103,5138 4869,5138 4869,4904 4899,4933 5074,4933 5074,5108 4899,5108 4899,4933 4869,4904 5103,4904 "
   class="fil54"
   id="_292" />
       <polygon
   style="fill:#67aa89"
   points="5089,5123 4884,5123 4884,4918 4913,4947 5060,4947 5060,5094 4913,5094 4913,4947 4884,4918 5089,4918 "
   class="fil54"
   id="_293" />
       <polygon
   style="fill:#67aa89"
   points="5074,5108 4899,5108 4899,4933 4928,4962 5045,4962 5045,5079 4928,5079 4928,4962 4899,4933 5074,4933 "
   class="fil54"
   id="_294" />
       <polygon
   style="fill:#67aa89"
   points="5060,5094 4913,5094 4913,4947 4943,4977 5030,4977 5030,5064 4943,5064 4943,4977 4913,4947 5060,4947 "
   class="fil54"
   id="_295" />
       <polygon
   style="fill:#67aa89"
   points="5045,5079 4928,5079 4928,4962 4957,4991 5016,4991 5016,5050 4957,5050 4957,4991 4928,4962 5045,4962 "
   class="fil54"
   id="_296" />
       <polygon
   style="fill:#67aa89"
   points="5030,5064 4943,5064 4943,4977 4972,5006 5001,5006 5001,5035 4972,5035 4972,5006 4943,4977 5030,4977 "
   class="fil54"
   id="_297" />
       <polygon
   style="fill:#67aa89"
   points="5016,5050 4957,5050 4957,4991 4986,5021 4986,5021 4986,5021 4986,5021 4986,5021 4957,4991 5016,4991 "
   class="fil54"
   id="_298" />
       <polygon
   style="fill:#67aa89"
   points="5001,5035 4972,5035 4972,5006 5001,5006 "
   class="fil54"
   id="_299" />
      </g>
     </g>
     <path
   style="fill:none"
   inkscape:connector-curvature="0"
   id="path335"
   d="m 1560,9407 h 6853 c 528,0 960,-432 960,-960 V 1594 c 0,-528 -432,-960 -960,-960 H 1560 c -528,0 -960,432 -960,960 v 6853 c 0,528 432,960 960,960 z"
   class="fil55" />
    </g>
   </g>
  </g>
 <g
   id="">
  <metadata
   id="CorelCorpID_1Corel-Layer" />
 </g>
<g
   id="g5"
   transform="matrix(14.760131,0,0,14.760131,1500.95,1619.2499)"
   style="fill:url(#linearGradient1498);fill-opacity:1;stroke:#cccccc;stroke-width:5.73843145;stroke-miterlimit:4;stroke-dasharray:none;stroke-opacity:1"><g
     id="palette"
     style="fill:url(#linearGradient1510);fill-opacity:1;stroke:#cccccc;stroke-width:5.73843145;stroke-miterlimit:4;stroke-dasharray:none;stroke-opacity:1"><path
       d="M 229.5,0 C 102,0 0,102 0,229.5 0,357 102,459 229.5,459 c 20.4,0 38.25,-17.85 38.25,-38.25 0,-10.2 -2.55,-17.85 -10.2,-25.5 -5.1,-7.65 -10.2,-15.3 -10.2,-25.5 0,-20.4 17.851,-38.25 38.25,-38.25 h 45.9 C 402.9,331.5 459,275.4 459,204 459,91.8 357,0 229.5,0 Z M 89.25,229.5 C 68.85,229.5 51,211.65 51,191.25 51,170.85 68.85,153 89.25,153 c 20.4,0 38.25,17.85 38.25,38.25 0,20.4 -17.85,38.25 -38.25,38.25 z m 76.5,-102 c -20.4,0 -38.25,-17.85 -38.25,-38.25 0,-20.4 17.85,-38.25 38.25,-38.25 20.4,0 38.25,17.85 38.25,38.25 0,20.4 -17.85,38.25 -38.25,38.25 z m 127.5,0 C 272.85,127.5 255,109.65 255,89.25 255,68.85 272.85,51 293.25,51 c 20.4,0 38.25,17.85 38.25,38.25 0,20.4 -17.85,38.25 -38.25,38.25 z m 76.5,102 c -20.4,0 -38.25,-17.85 -38.25,-38.25 0,-20.4 17.85,-38.25 38.25,-38.25 20.4,0 38.25,17.85 38.25,38.25 0,20.4 -17.85,38.25 -38.25,38.25 z"
       id="path2-9"
       inkscape:connector-curvature="0"
       style="fill:url(#linearGradient1508);fill-opacity:1;stroke:#cccccc;stroke-width:5.73843145;stroke-miterlimit:4;stroke-dasharray:none;stroke-opacity:1" /></g></g></svg>