<?xml version="1.0" encoding="UTF-8" standalone="no"?>
<!-- Creator: CorelDRAW X6 -->

<svg
   xmlns:dc="http://purl.org/dc/elements/1.1/"
   xmlns:cc="http://creativecommons.org/ns#"
   xmlns:rdf="http://www.w3.org/1999/02/22-rdf-syntax-ns#"
   xmlns:svg="http://www.w3.org/2000/svg"
   xmlns="http://www.w3.org/2000/svg"
   xmlns:sodipodi="http://sodipodi.sourceforge.net/DTD/sodipodi-0.dtd"
   xmlns:inkscape="http://www.inkscape.org/namespaces/inkscape"
   xml:space="preserve"
   width="150px"
   height="150px"
   version="1.1"
   style="shape-rendering:geometricPrecision; text-rendering:geometricPrecision; image-rendering:optimizeQuality; fill-rule:evenodd; clip-rule:evenodd"
   viewBox="0 0 15000 15000"
   id="svg5155"
   sodipodi:docname="mosfetBlock.svg"
   inkscape:version="0.92.1 r15371"><metadata
   id="metadata5159"><rdf:RDF><cc:Work
       rdf:about=""><dc:format>image/svg+xml</dc:format><dc:type
         rdf:resource="http://purl.org/dc/dcmitype/StillImage" /><dc:title></dc:title></cc:Work></rdf:RDF></metadata><sodipodi:namedview
   pagecolor="#ffffff"
   bordercolor="#666666"
   borderopacity="1"
   objecttolerance="10"
   gridtolerance="10"
   guidetolerance="10"
   inkscape:pageopacity="0"
   inkscape:pageshadow="2"
   inkscape:window-width="1920"
   inkscape:window-height="1017"
   id="namedview5157"
   showgrid="false"
   inkscape:zoom="3.1466667"
   inkscape:cx="79.501783"
   inkscape:cy="85.535632"
   inkscape:window-x="-8"
   inkscape:window-y="-8"
   inkscape:window-maximized="1"
   inkscape:current-layer="svg5155" />
 <defs
   id="defs4831">
  <style
   type="text/css"
   id="style4818">
   <![CDATA[
    .str0 {stroke:#992931;stroke-width:127}
    .fil48 {fill:none}
    .fil0 {fill:#5E4377}
    .fil2 {fill:#5E4378}
    .fil3 {fill:#5F4378}
    .fil4 {fill:#5F4479}
    .fil5 {fill:#60447A}
    .fil6 {fill:#61457B}
    .fil7 {fill:#61457C}
    .fil8 {fill:#62457C}
    .fil9 {fill:#62467D}
    .fil10 {fill:#63467D}
    .fil11 {fill:#63467E}
    .fil12 {fill:#64477F}
    .fil13 {fill:#654780}
    .fil14 {fill:#654881}
    .fil15 {fill:#664881}
    .fil16 {fill:#664882}
    .fil17 {fill:#674882}
    .fil18 {fill:#674983}
    .fil19 {fill:#684984}
    .fil20 {fill:#694A85}
    .fil21 {fill:#694A86}
    .fil22 {fill:#6A4A86}
    .fil23 {fill:#6A4B87}
    .fil24 {fill:#6B4B88}
    .fil25 {fill:#6B4C89}
    .fil26 {fill:#6C4C89}
    .fil27 {fill:#6C4C8A}
    .fil28 {fill:#6D4D8B}
    .fil29 {fill:#6E4D8C}
    .fil30 {fill:#6E4E8D}
    .fil31 {fill:#6F4E8D}
    .fil32 {fill:#6F4E8E}
    .fil33 {fill:#704E8E}
    .fil34 {fill:#704F8F}
    .fil35 {fill:#714F90}
    .fil36 {fill:#725091}
    .fil37 {fill:#725092}
    .fil38 {fill:#735092}
    .fil39 {fill:#735193}
    .fil40 {fill:#745193}
    .fil41 {fill:#745194}
    .fil42 {fill:#755295}
    .fil43 {fill:#765296}
    .fil44 {fill:#765397}
    .fil45 {fill:#775397}
    .fil46 {fill:#775398}
    .fil47 {fill:#785499}
    .fil49 {fill:#B8333C}
    .fil1 {fill:black;fill-opacity:0.000000}
    .fil50 {fill:url(#id2)}
   ]]>
  </style>
      <clipPath
   id="id0">
       <path
   d="M2377 14068l10257 0c790,0 1437,-647 1437,-1437l0 -10257c0,-790 -647,-1437 -1437,-1437l-10257 0c-790,0 -1437,647 -1437,1437l0 10257c0,790 647,1437 1437,1437z"
   id="path4820" />
      </clipPath>
      <clipPath
   id="id1">
       <path
   d="M2377 14068l10257 0c790,0 1437,-647 1437,-1437l0 -10257c0,-790 -647,-1437 -1437,-1437l-10257 0c-790,0 -1437,647 -1437,1437l0 10257c0,790 647,1437 1437,1437z"
   id="path4823" />
      </clipPath>
  <linearGradient
   id="id2"
   gradientUnits="userSpaceOnUse"
   x1="8145.1"
   y1="11822.4"
   x2="8145.1"
   y2="3388.96">
   <stop
   offset="0"
   style="stop-color:#999999"
   id="stop4826" />
   <stop
   offset="1"
   style="stop-color:#E6E6E6"
   id="stop4828" />
  </linearGradient>
 
  
  
  
  
 </defs>
 <g
   id="_342005152">
   <g
   id="_348901048">
    <path
   style="fill:#5e4377"
   inkscape:connector-curvature="0"
   id="path4834"
   d="m 2168,45 h 10675 c 1170,0 2119,949 2119,2119 v 10675 c 0,1170 -949,2119 -2119,2119 H 2168 C 998,14958 49,14009 49,12839 V 2164 C 49,994 998,45 2168,45 Z"
   class="fil0" />
    <g
   id="g5146">
     <g
   id="g4838"
   clip-path="url(#id0)">
      <polygon
   style="fill:#000000;fill-opacity:0"
   id="polygon4836"
   points="14071,14068 941,14068 941,937 14071,937 "
   class="fil1" />
     </g>
     <g
   id="g5142"
   clip-path="url(#id1)">
      <g
   id="g5140">
       <polygon
   style="fill:#5e4377"
   points="14071,14068 941,14068 941,937 984,981 14028,981 14028,14024 984,14024 984,981 941,937 14071,937 "
   class="fil0"
   id="1" />
       <polygon
   style="fill:#5e4377"
   points="14049,14046 962,14046 962,959 1006,1003 14006,1003 14006,14002 1006,14002 1006,1003 962,959 14049,959 "
   class="fil0"
   id="_1" />
       <polygon
   style="fill:#5e4378"
   points="14028,14024 984,14024 984,981 1028,1025 13984,1025 13984,13980 1028,13980 1028,1025 984,981 14028,981 "
   class="fil2"
   id="_2" />
       <polygon
   style="fill:#5f4378"
   points="14006,14002 1006,14002 1006,1003 1050,1047 13962,1047 13962,13959 1050,13959 1050,1047 1006,1003 14006,1003 "
   class="fil3"
   id="_3" />
       <polygon
   style="fill:#5f4479"
   points="13984,13980 1028,13980 1028,1025 1072,1068 13940,1068 13940,13937 1072,13937 1072,1068 1028,1025 13984,1025 "
   class="fil4"
   id="_4" />
       <polygon
   style="fill:#60447a"
   points="13962,13959 1050,13959 1050,1047 1094,1090 13918,1090 13918,13915 1094,13915 1094,1090 1050,1047 13962,1047 "
   class="fil5"
   id="_5" />
       <polygon
   style="fill:#60447a"
   points="13940,13937 1072,13937 1072,1068 1116,1112 13896,1112 13896,13893 1116,13893 1116,1112 1072,1068 13940,1068 "
   class="fil5"
   id="_6" />
       <polygon
   style="fill:#61457b"
   points="13918,13915 1094,13915 1094,1090 1138,1134 13874,1134 13874,13871 1138,13871 1138,1134 1094,1090 13918,1090 "
   class="fil6"
   id="_7" />
       <polygon
   style="fill:#61457c"
   points="13896,13893 1116,13893 1116,1112 1159,1156 13853,1156 13853,13849 1159,13849 1159,1156 1116,1112 13896,1112 "
   class="fil7"
   id="_8" />
       <polygon
   style="fill:#62457c"
   points="13874,13871 1138,13871 1138,1134 1181,1178 13831,1178 13831,13827 1181,13827 1181,1178 1138,1134 13874,1134 "
   class="fil8"
   id="_9" />
       <polygon
   style="fill:#62467d"
   points="13853,13849 1159,13849 1159,1156 1203,1200 13809,1200 13809,13805 1203,13805 1203,1200 1159,1156 13853,1156 "
   class="fil9"
   id="_10" />
       <polygon
   style="fill:#63467d"
   points="13831,13827 1181,13827 1181,1178 1225,1222 13787,1222 13787,13783 1225,13783 1225,1222 1181,1178 13831,1178 "
   class="fil10"
   id="_11" />
       <polygon
   style="fill:#63467e"
   points="13809,13805 1203,13805 1203,1200 1247,1244 13765,1244 13765,13762 1247,13762 1247,1244 1203,1200 13809,1200 "
   class="fil11"
   id="_12" />
       <polygon
   style="fill:#64477f"
   points="13787,13783 1225,13783 1225,1222 1269,1265 13743,1265 13743,13740 1269,13740 1269,1265 1225,1222 13787,1222 "
   class="fil12"
   id="_13" />
       <polygon
   style="fill:#64477f"
   points="13765,13762 1247,13762 1247,1244 1291,1287 13721,1287 13721,13718 1291,13718 1291,1287 1247,1244 13765,1244 "
   class="fil12"
   id="_14" />
       <polygon
   style="fill:#654780"
   points="13743,13740 1269,13740 1269,1265 1313,1309 13699,1309 13699,13696 1313,13696 1313,1309 1269,1265 13743,1265 "
   class="fil13"
   id="_15" />
       <polygon
   style="fill:#654881"
   points="13721,13718 1291,13718 1291,1287 1335,1331 13677,1331 13677,13674 1335,13674 1335,1331 1291,1287 13721,1287 "
   class="fil14"
   id="_16" />
       <polygon
   style="fill:#664881"
   points="13699,13696 1313,13696 1313,1309 1356,1353 13656,1353 13656,13652 1356,13652 1356,1353 1313,1309 13699,1309 "
   class="fil15"
   id="_17" />
       <polygon
   style="fill:#664882"
   points="13677,13674 1335,13674 1335,1331 1378,1375 13634,1375 13634,13630 1378,13630 1378,1375 1335,1331 13677,1331 "
   class="fil16"
   id="_18" />
       <polygon
   style="fill:#674882"
   points="13656,13652 1356,13652 1356,1353 1400,1397 13612,1397 13612,13608 1400,13608 1400,1397 1356,1353 13656,1353 "
   class="fil17"
   id="_19" />
       <polygon
   style="fill:#674983"
   points="13634,13630 1378,13630 1378,1375 1422,1419 13590,1419 13590,13587 1422,13587 1422,1419 1378,1375 13634,1375 "
   class="fil18"
   id="_20" />
       <polygon
   style="fill:#684984"
   points="13612,13608 1400,13608 1400,1397 1444,1441 13568,1441 13568,13565 1444,13565 1444,1441 1400,1397 13612,1397 "
   class="fil19"
   id="_21" />
       <polygon
   style="fill:#684984"
   points="13590,13587 1422,13587 1422,1419 1466,1462 13546,1462 13546,13543 1466,13543 1466,1462 1422,1419 13590,1419 "
   class="fil19"
   id="_22" />
       <polygon
   style="fill:#694a85"
   points="13568,13565 1444,13565 1444,1441 1488,1484 13524,1484 13524,13521 1488,13521 1488,1484 1444,1441 13568,1441 "
   class="fil20"
   id="_23" />
       <polygon
   style="fill:#694a86"
   points="13546,13543 1466,13543 1466,1462 1510,1506 13502,1506 13502,13499 1510,13499 1510,1506 1466,1462 13546,1462 "
   class="fil21"
   id="_24" />
       <polygon
   style="fill:#6a4a86"
   points="13524,13521 1488,13521 1488,1484 1531,1528 13480,1528 13480,13477 1531,13477 1531,1528 1488,1484 13524,1484 "
   class="fil22"
   id="_25" />
       <polygon
   style="fill:#6a4b87"
   points="13502,13499 1510,13499 1510,1506 1553,1550 13459,1550 13459,13455 1553,13455 1553,1550 1510,1506 13502,1506 "
   class="fil23"
   id="_26" />
       <polygon
   style="fill:#6b4b88"
   points="13480,13477 1531,13477 1531,1528 1575,1572 13437,1572 13437,13433 1575,13433 1575,1572 1531,1528 13480,1528 "
   class="fil24"
   id="_27" />
       <polygon
   style="fill:#6b4b88"
   points="13459,13455 1553,13455 1553,1550 1597,1594 13415,1594 13415,13411 1597,13411 1597,1594 1553,1550 13459,1550 "
   class="fil24"
   id="_28" />
       <polygon
   style="fill:#6b4c89"
   points="13437,13433 1575,13433 1575,1572 1619,1616 13393,1616 13393,13390 1619,13390 1619,1616 1575,1572 13437,1572 "
   class="fil25"
   id="_29" />
       <polygon
   style="fill:#6c4c89"
   points="13415,13411 1597,13411 1597,1594 1641,1638 13371,1638 13371,13368 1641,13368 1641,1638 1597,1594 13415,1594 "
   class="fil26"
   id="_30" />
       <polygon
   style="fill:#6c4c8a"
   points="13393,13390 1619,13390 1619,1616 1663,1659 13349,1659 13349,13346 1663,13346 1663,1659 1619,1616 13393,1616 "
   class="fil27"
   id="_31" />
       <polygon
   style="fill:#6d4d8b"
   points="13371,13368 1641,13368 1641,1638 1685,1681 13327,1681 13327,13324 1685,13324 1685,1681 1641,1638 13371,1638 "
   class="fil28"
   id="_32" />
       <polygon
   style="fill:#6d4d8b"
   points="13349,13346 1663,13346 1663,1659 1707,1703 13305,1703 13305,13302 1707,13302 1707,1703 1663,1659 13349,1659 "
   class="fil28"
   id="_33" />
       <polygon
   style="fill:#6e4d8c"
   points="13327,13324 1685,13324 1685,1681 1728,1725 13284,1725 13284,13280 1728,13280 1728,1725 1685,1681 13327,1681 "
   class="fil29"
   id="_34" />
       <polygon
   style="fill:#6e4e8d"
   points="13305,13302 1707,13302 1707,1703 1750,1747 13262,1747 13262,13258 1750,13258 1750,1747 1707,1703 13305,1703 "
   class="fil30"
   id="_35" />
       <polygon
   style="fill:#6f4e8d"
   points="13284,13280 1728,13280 1728,1725 1772,1769 13240,1769 13240,13236 1772,13236 1772,1769 1728,1725 13284,1725 "
   class="fil31"
   id="_36" />
       <polygon
   style="fill:#6f4e8e"
   points="13262,13258 1750,13258 1750,1747 1794,1791 13218,1791 13218,13214 1794,13214 1794,1791 1750,1747 13262,1747 "
   class="fil32"
   id="_37" />
       <polygon
   style="fill:#704e8e"
   points="13240,13236 1772,13236 1772,1769 1816,1813 13196,1813 13196,13193 1816,13193 1816,1813 1772,1769 13240,1769 "
   class="fil33"
   id="_38" />
       <polygon
   style="fill:#704f8f"
   points="13218,13215 1794,13215 1794,1791 1838,1834 13174,1834 13174,13171 1838,13171 1838,1834 1794,1791 13218,1791 "
   class="fil34"
   id="_39" />
       <polygon
   style="fill:#714f90"
   points="13196,13193 1816,13193 1816,1813 1860,1856 13152,1856 13152,13149 1860,13149 1860,1856 1816,1813 13196,1813 "
   class="fil35"
   id="_40" />
       <polygon
   style="fill:#714f90"
   points="13174,13171 1838,13171 1838,1834 1882,1878 13130,1878 13130,13127 1882,13127 1882,1878 1838,1834 13174,1834 "
   class="fil35"
   id="_41" />
       <polygon
   style="fill:#725091"
   points="13152,13149 1860,13149 1860,1856 1903,1900 13108,1900 13108,13105 1903,13105 1903,1900 1860,1856 13152,1856 "
   class="fil36"
   id="_42" />
       <polygon
   style="fill:#725092"
   points="13130,13127 1882,13127 1882,1878 1925,1922 13087,1922 13087,13083 1925,13083 1925,1922 1882,1878 13130,1878 "
   class="fil37"
   id="_43" />
       <polygon
   style="fill:#735092"
   points="13108,13105 1903,13105 1903,1900 1947,1944 13065,1944 13065,13061 1947,13061 1947,1944 1903,1900 13108,1900 "
   class="fil38"
   id="_44" />
       <polygon
   style="fill:#735193"
   points="13087,13083 1925,13083 1925,1922 1969,1966 13043,1966 13043,13039 1969,13039 1969,1966 1925,1922 13087,1922 "
   class="fil39"
   id="_45" />
       <polygon
   style="fill:#745193"
   points="13065,13061 1947,13061 1947,1944 1991,1988 13021,1988 13021,13018 1991,13018 1991,1988 1947,1944 13065,1944 "
   class="fil40"
   id="_46" />
       <polygon
   style="fill:#745194"
   points="13043,13039 1969,13039 1969,1966 2013,2010 12999,2010 12999,12996 2013,12996 2013,2010 1969,1966 13043,1966 "
   class="fil41"
   id="_47" />
       <polygon
   style="fill:#755295"
   points="13021,13018 1991,13018 1991,1988 2035,2031 12977,2031 12977,12974 2035,12974 2035,2031 1991,1988 13021,1988 "
   class="fil42"
   id="_48" />
       <polygon
   style="fill:#755295"
   points="12999,12996 2013,12996 2013,2010 2057,2053 12955,2053 12955,12952 2057,12952 2057,2053 2013,2010 12999,2010 "
   class="fil42"
   id="_49" />
       <polygon
   style="fill:#765296"
   points="12977,12974 2035,12974 2035,2031 2079,2075 12933,2075 12933,12930 2079,12930 2079,2075 2035,2031 12977,2031 "
   class="fil43"
   id="_50" />
       <polygon
   style="fill:#765397"
   points="12955,12952 2057,12952 2057,2053 2100,2097 12911,2097 12911,12908 2100,12908 2100,2097 2057,2053 12955,2053 "
   class="fil44"
   id="_51" />
       <polygon
   style="fill:#775397"
   points="12933,12930 2079,12930 2079,2075 2122,2119 12890,2119 12890,12886 2122,12886 2122,2119 2079,2075 12933,2075 "
   class="fil45"
   id="_52" />
       <polygon
   style="fill:#775398"
   points="12911,12908 2100,12908 2100,2097 2144,2141 12868,2141 12868,12864 2144,12864 2144,2141 2100,2097 12911,2097 "
   class="fil46"
   id="_53" />
       <polygon
   style="fill:#785499"
   points="12890,12886 2122,12886 2122,2119 2166,2163 12846,2163 12846,12842 2166,12842 2166,2163 2122,2119 12890,2119 "
   class="fil47"
   id="_54" />
       <polygon
   style="fill:#785499"
   points="12868,12864 2144,12864 2144,2141 2188,2185 12824,2185 12824,12821 2188,12821 2188,2185 2144,2141 12868,2141 "
   class="fil47"
   id="_55" />
       <polygon
   style="fill:#785499"
   points="12846,12842 2166,12842 2166,2163 2210,2206 12802,2206 12802,12799 2210,12799 2210,2206 2166,2163 12846,2163 "
   class="fil47"
   id="_56" />
       <polygon
   style="fill:#785499"
   points="12824,12821 2188,12821 2188,2185 2232,2228 12780,2228 12780,12777 2232,12777 2232,2228 2188,2185 12824,2185 "
   class="fil47"
   id="_57" />
       <polygon
   style="fill:#785499"
   points="12802,12799 2210,12799 2210,2206 2254,2250 12758,2250 12758,12755 2254,12755 2254,2250 2210,2206 12802,2206 "
   class="fil47"
   id="_58" />
       <polygon
   style="fill:#785499"
   points="12780,12777 2232,12777 2232,2228 2276,2272 12736,2272 12736,12733 2276,12733 2276,2272 2232,2228 12780,2228 "
   class="fil47"
   id="_59" />
       <polygon
   style="fill:#785499"
   points="12758,12755 2254,12755 2254,2250 2297,2294 12715,2294 12715,12711 2297,12711 2297,2294 2254,2250 12758,2250 "
   class="fil47"
   id="_60" />
       <polygon
   style="fill:#785499"
   points="12736,12733 2276,12733 2276,2272 2319,2316 12693,2316 12693,12689 2319,12689 2319,2316 2276,2272 12736,2272 "
   class="fil47"
   id="_61" />
       <polygon
   style="fill:#785499"
   points="12715,12711 2297,12711 2297,2294 2341,2338 12671,2338 12671,12667 2341,12667 2341,2338 2297,2294 12715,2294 "
   class="fil47"
   id="_62" />
       <polygon
   style="fill:#785499"
   points="12693,12689 2319,12689 2319,2316 2363,2360 12649,2360 12649,12645 2363,12645 2363,2360 2319,2316 12693,2316 "
   class="fil47"
   id="_63" />
       <polygon
   style="fill:#785499"
   points="12671,12667 2341,12667 2341,2338 2385,2382 12627,2382 12627,12624 2385,12624 2385,2382 2341,2338 12671,2338 "
   class="fil47"
   id="_64" />
       <polygon
   style="fill:#785499"
   points="12649,12645 2363,12645 2363,2360 2407,2403 12605,2403 12605,12602 2407,12602 2407,2403 2363,2360 12649,2360 "
   class="fil47"
   id="_65" />
       <polygon
   style="fill:#785499"
   points="12627,12624 2385,12624 2385,2382 2429,2425 12583,2425 12583,12580 2429,12580 2429,2425 2385,2382 12627,2382 "
   class="fil47"
   id="_66" />
       <polygon
   style="fill:#785499"
   points="12605,12602 2407,12602 2407,2403 2451,2447 12561,2447 12561,12558 2451,12558 2451,2447 2407,2403 12605,2403 "
   class="fil47"
   id="_67" />
       <polygon
   style="fill:#785499"
   points="12583,12580 2429,12580 2429,2425 2472,2469 12539,2469 12539,12536 2472,12536 2472,2469 2429,2425 12583,2425 "
   class="fil47"
   id="_68" />
       <polygon
   style="fill:#785499"
   points="12561,12558 2451,12558 2451,2447 2494,2491 12518,2491 12518,12514 2494,12514 2494,2491 2451,2447 12561,2447 "
   class="fil47"
   id="_69" />
       <polygon
   style="fill:#785499"
   points="12539,12536 2472,12536 2472,2469 2516,2513 12496,2513 12496,12492 2516,12492 2516,2513 2472,2469 12539,2469 "
   class="fil47"
   id="_70" />
       <polygon
   style="fill:#785499"
   points="12518,12514 2494,12514 2494,2491 2538,2535 12474,2535 12474,12470 2538,12470 2538,2535 2494,2491 12518,2491 "
   class="fil47"
   id="_71" />
       <polygon
   style="fill:#785499"
   points="12496,12492 2516,12492 2516,2513 2560,2557 12452,2557 12452,12449 2560,12449 2560,2557 2516,2513 12496,2513 "
   class="fil47"
   id="_72" />
       <polygon
   style="fill:#785499"
   points="12474,12470 2538,12470 2538,2535 2582,2579 12430,2579 12430,12427 2582,12427 2582,2579 2538,2535 12474,2535 "
   class="fil47"
   id="_73" />
       <polygon
   style="fill:#785499"
   points="12452,12449 2560,12449 2560,2557 2604,2600 12408,2600 12408,12405 2604,12405 2604,2600 2560,2557 12452,2557 "
   class="fil47"
   id="_74" />
       <polygon
   style="fill:#785499"
   points="12430,12427 2582,12427 2582,2579 2626,2622 12386,2622 12386,12383 2626,12383 2626,2622 2582,2579 12430,2579 "
   class="fil47"
   id="_75" />
       <polygon
   style="fill:#785499"
   points="12408,12405 2604,12405 2604,2600 2648,2644 12364,2644 12364,12361 2648,12361 2648,2644 2604,2600 12408,2600 "
   class="fil47"
   id="_76" />
       <polygon
   style="fill:#785499"
   points="12386,12383 2626,12383 2626,2622 2669,2666 12342,2666 12342,12339 2669,12339 2669,2666 2626,2622 12386,2622 "
   class="fil47"
   id="_77" />
       <polygon
   style="fill:#785499"
   points="12364,12361 2648,12361 2648,2644 2691,2688 12321,2688 12321,12317 2691,12317 2691,2688 2648,2644 12364,2644 "
   class="fil47"
   id="_78" />
       <polygon
   style="fill:#785499"
   points="12342,12339 2669,12339 2669,2666 2713,2710 12299,2710 12299,12295 2713,12295 2713,2710 2669,2666 12342,2666 "
   class="fil47"
   id="_79" />
       <polygon
   style="fill:#785499"
   points="12321,12317 2691,12317 2691,2688 2735,2732 12277,2732 12277,12273 2735,12273 2735,2732 2691,2688 12321,2688 "
   class="fil47"
   id="_80" />
       <polygon
   style="fill:#785499"
   points="12299,12295 2713,12295 2713,2710 2757,2754 12255,2754 12255,12252 2757,12252 2757,2754 2713,2710 12299,2710 "
   class="fil47"
   id="_81" />
       <polygon
   style="fill:#785499"
   points="12277,12273 2735,12273 2735,2732 2779,2775 12233,2775 12233,12230 2779,12230 2779,2775 2735,2732 12277,2732 "
   class="fil47"
   id="_82" />
       <polygon
   style="fill:#785499"
   points="12255,12252 2757,12252 2757,2754 2801,2797 12211,2797 12211,12208 2801,12208 2801,2797 2757,2754 12255,2754 "
   class="fil47"
   id="_83" />
       <polygon
   style="fill:#785499"
   points="12233,12230 2779,12230 2779,2775 2823,2819 12189,2819 12189,12186 2823,12186 2823,2819 2779,2775 12233,2775 "
   class="fil47"
   id="_84" />
       <polygon
   style="fill:#785499"
   points="12211,12208 2801,12208 2801,2797 2845,2841 12167,2841 12167,12164 2845,12164 2845,2841 2801,2797 12211,2797 "
   class="fil47"
   id="_85" />
       <polygon
   style="fill:#785499"
   points="12189,12186 2823,12186 2823,2819 2866,2863 12145,2863 12145,12142 2866,12142 2866,2863 2823,2819 12189,2819 "
   class="fil47"
   id="_86" />
       <polygon
   style="fill:#785499"
   points="12167,12164 2845,12164 2845,2841 2888,2885 12124,2885 12124,12120 2888,12120 2888,2885 2845,2841 12167,2841 "
   class="fil47"
   id="_87" />
       <polygon
   style="fill:#785499"
   points="12145,12142 2866,12142 2866,2863 2910,2907 12102,2907 12102,12098 2910,12098 2910,2907 2866,2863 12145,2863 "
   class="fil47"
   id="_88" />
       <polygon
   style="fill:#785499"
   points="12124,12120 2888,12120 2888,2885 2932,2929 12080,2929 12080,12076 2932,12076 2932,2929 2888,2885 12124,2885 "
   class="fil47"
   id="_89" />
       <polygon
   style="fill:#785499"
   points="12102,12098 2910,12098 2910,2907 2954,2951 12058,2951 12058,12055 2954,12055 2954,2951 2910,2907 12102,2907 "
   class="fil47"
   id="_90" />
       <polygon
   style="fill:#785499"
   points="12080,12076 2932,12076 2932,2929 2976,2972 12036,2972 12036,12033 2976,12033 2976,2972 2932,2929 12080,2929 "
   class="fil47"
   id="_91" />
       <polygon
   style="fill:#785499"
   points="12058,12055 2954,12055 2954,2951 2998,2994 12014,2994 12014,12011 2998,12011 2998,2994 2954,2951 12058,2951 "
   class="fil47"
   id="_92" />
       <polygon
   style="fill:#785499"
   points="12036,12033 2976,12033 2976,2972 3020,3016 11992,3016 11992,11989 3020,11989 3020,3016 2976,2972 12036,2972 "
   class="fil47"
   id="_93" />
       <polygon
   style="fill:#785499"
   points="12014,12011 2998,12011 2998,2994 3041,3038 11970,3038 11970,11967 3041,11967 3041,3038 2998,2994 12014,2994 "
   class="fil47"
   id="_94" />
       <polygon
   style="fill:#785499"
   points="11992,11989 3020,11989 3020,3016 3063,3060 11949,3060 11949,11945 3063,11945 3063,3060 3020,3016 11992,3016 "
   class="fil47"
   id="_95" />
       <polygon
   style="fill:#785499"
   points="11970,11967 3041,11967 3041,3038 3085,3082 11927,3082 11927,11923 3085,11923 3085,3082 3041,3038 11970,3038 "
   class="fil47"
   id="_96" />
       <polygon
   style="fill:#785499"
   points="11949,11945 3063,11945 3063,3060 3107,3104 11905,3104 11905,11901 3107,11901 3107,3104 3063,3060 11949,3060 "
   class="fil47"
   id="_97" />
       <polygon
   style="fill:#785499"
   points="11927,11923 3085,11923 3085,3082 3129,3126 11883,3126 11883,11880 3129,11880 3129,3126 3085,3082 11927,3082 "
   class="fil47"
   id="_98" />
       <polygon
   style="fill:#785499"
   points="11905,11901 3107,11901 3107,3104 3151,3148 11861,3148 11861,11858 3151,11858 3151,3148 3107,3104 11905,3104 "
   class="fil47"
   id="_99" />
       <polygon
   style="fill:#785499"
   points="11883,11880 3129,11880 3129,3126 3173,3169 11839,3169 11839,11836 3173,11836 3173,3169 3129,3126 11883,3126 "
   class="fil47"
   id="_100" />
       <polygon
   style="fill:#785499"
   points="11861,11858 3151,11858 3151,3148 3195,3191 11817,3191 11817,11814 3195,11814 3195,3191 3151,3148 11861,3148 "
   class="fil47"
   id="_101" />
       <polygon
   style="fill:#785499"
   points="11839,11836 3173,11836 3173,3169 3217,3213 11795,3213 11795,11792 3217,11792 3217,3213 3173,3169 11839,3169 "
   class="fil47"
   id="_102" />
       <polygon
   style="fill:#785499"
   points="11817,11814 3195,11814 3195,3191 3238,3235 11773,3235 11773,11770 3238,11770 3238,3235 3195,3191 11817,3191 "
   class="fil47"
   id="_103" />
       <polygon
   style="fill:#785499"
   points="11795,11792 3217,11792 3217,3213 3260,3257 11752,3257 11752,11748 3260,11748 3260,3257 3217,3213 11795,3213 "
   class="fil47"
   id="_104" />
       <polygon
   style="fill:#785499"
   points="11773,11770 3238,11770 3238,3235 3282,3279 11730,3279 11730,11726 3282,11726 3282,3279 3238,3235 11773,3235 "
   class="fil47"
   id="_105" />
       <polygon
   style="fill:#785499"
   points="11752,11748 3260,11748 3260,3257 3304,3301 11708,3301 11708,11704 3304,11704 3304,3301 3260,3257 11752,3257 "
   class="fil47"
   id="_106" />
       <polygon
   style="fill:#785499"
   points="11730,11726 3282,11726 3282,3279 3326,3323 11686,3323 11686,11683 3326,11683 3326,3323 3282,3279 11730,3279 "
   class="fil47"
   id="_107" />
       <polygon
   style="fill:#785499"
   points="11708,11704 3304,11704 3304,3301 3348,3344 11664,3344 11664,11661 3348,11661 3348,3344 3304,3301 11708,3301 "
   class="fil47"
   id="_108" />
       <polygon
   style="fill:#785499"
   points="11686,11683 3326,11683 3326,3323 3370,3366 11642,3366 11642,11639 3370,11639 3370,3366 3326,3323 11686,3323 "
   class="fil47"
   id="_109" />
       <polygon
   style="fill:#785499"
   points="11664,11661 3348,11661 3348,3344 3392,3388 11620,3388 11620,11617 3392,11617 3392,3388 3348,3344 11664,3344 "
   class="fil47"
   id="_110" />
       <polygon
   style="fill:#785499"
   points="11642,11639 3370,11639 3370,3366 3414,3410 11598,3410 11598,11595 3414,11595 3414,3410 3370,3366 11642,3366 "
   class="fil47"
   id="_111" />
       <polygon
   style="fill:#785499"
   points="11620,11617 3392,11617 3392,3388 3435,3432 11577,3432 11577,11573 3435,11573 3435,3432 3392,3388 11620,3388 "
   class="fil47"
   id="_112" />
       <polygon
   style="fill:#785499"
   points="11598,11595 3414,11595 3414,3410 3457,3454 11555,3454 11555,11551 3457,11551 3457,3454 3414,3410 11598,3410 "
   class="fil47"
   id="_113" />
       <polygon
   style="fill:#785499"
   points="11577,11573 3435,11573 3435,3432 3479,3476 11533,3476 11533,11529 3479,11529 3479,3476 3435,3432 11577,3432 "
   class="fil47"
   id="_114" />
       <polygon
   style="fill:#785499"
   points="11555,11551 3457,11551 3457,3454 3501,3498 11511,3498 11511,11507 3501,11507 3501,3498 3457,3454 11555,3454 "
   class="fil47"
   id="_115" />
       <polygon
   style="fill:#785499"
   points="11533,11529 3479,11529 3479,3476 3523,3520 11489,3520 11489,11486 3523,11486 3523,3520 3479,3476 11533,3476 "
   class="fil47"
   id="_116" />
       <polygon
   style="fill:#785499"
   points="11511,11507 3501,11507 3501,3498 3545,3541 11467,3541 11467,11464 3545,11464 3545,3541 3501,3498 11511,3498 "
   class="fil47"
   id="_117" />
       <polygon
   style="fill:#785499"
   points="11489,11486 3523,11486 3523,3520 3567,3563 11445,3563 11445,11442 3567,11442 3567,3563 3523,3520 11489,3520 "
   class="fil47"
   id="_118" />
       <polygon
   style="fill:#785499"
   points="11467,11464 3545,11464 3545,3541 3589,3585 11423,3585 11423,11420 3589,11420 3589,3585 3545,3541 11467,3541 "
   class="fil47"
   id="_119" />
       <polygon
   style="fill:#785499"
   points="11445,11442 3567,11442 3567,3563 3611,3607 11401,3607 11401,11398 3611,11398 3611,3607 3567,3563 11445,3563 "
   class="fil47"
   id="_120" />
       <polygon
   style="fill:#785499"
   points="11423,11420 3589,11420 3589,3585 3632,3629 11380,3629 11380,11376 3632,11376 3632,3629 3589,3585 11423,3585 "
   class="fil47"
   id="_121" />
       <polygon
   style="fill:#785499"
   points="11401,11398 3611,11398 3611,3607 3654,3651 11358,3651 11358,11354 3654,11354 3654,3651 3611,3607 11401,3607 "
   class="fil47"
   id="_122" />
       <polygon
   style="fill:#785499"
   points="11380,11376 3632,11376 3632,3629 3676,3673 11336,3673 11336,11332 3676,11332 3676,3673 3632,3629 11380,3629 "
   class="fil47"
   id="_123" />
       <polygon
   style="fill:#785499"
   points="11358,11354 3654,11354 3654,3651 3698,3695 11314,3695 11314,11311 3698,11311 3698,3695 3654,3651 11358,3651 "
   class="fil47"
   id="_124" />
       <polygon
   style="fill:#785499"
   points="11336,11332 3676,11332 3676,3673 3720,3717 11292,3717 11292,11289 3720,11289 3720,3717 3676,3673 11336,3673 "
   class="fil47"
   id="_125" />
       <polygon
   style="fill:#785499"
   points="11314,11311 3698,11311 3698,3695 3742,3738 11270,3738 11270,11267 3742,11267 3742,3738 3698,3695 11314,3695 "
   class="fil47"
   id="_126" />
       <polygon
   style="fill:#785499"
   points="11292,11289 3720,11289 3720,3717 3764,3760 11248,3760 11248,11245 3764,11245 3764,3760 3720,3717 11292,3717 "
   class="fil47"
   id="_127" />
       <polygon
   style="fill:#785499"
   points="11270,11267 3742,11267 3742,3738 3786,3782 11226,3782 11226,11223 3786,11223 3786,3782 3742,3738 11270,3738 "
   class="fil47"
   id="_128" />
       <polygon
   style="fill:#785499"
   points="11248,11245 3764,11245 3764,3760 3807,3804 11204,3804 11204,11201 3807,11201 3807,3804 3764,3760 11248,3760 "
   class="fil47"
   id="_129" />
       <polygon
   style="fill:#785499"
   points="11226,11223 3786,11223 3786,3782 3829,3826 11183,3826 11183,11179 3829,11179 3829,3826 3786,3782 11226,3782 "
   class="fil47"
   id="_130" />
       <polygon
   style="fill:#785499"
   points="11204,11201 3807,11201 3807,3804 3851,3848 11161,3848 11161,11157 3851,11157 3851,3848 3807,3804 11204,3804 "
   class="fil47"
   id="_131" />
       <polygon
   style="fill:#785499"
   points="11183,11179 3829,11179 3829,3826 3873,3870 11139,3870 11139,11135 3873,11135 3873,3870 3829,3826 11183,3826 "
   class="fil47"
   id="_132" />
       <polygon
   style="fill:#785499"
   points="11161,11157 3851,11157 3851,3848 3895,3892 11117,3892 11117,11114 3895,11114 3895,3892 3851,3848 11161,3848 "
   class="fil47"
   id="_133" />
       <polygon
   style="fill:#785499"
   points="11139,11135 3873,11135 3873,3870 3917,3913 11095,3913 11095,11092 3917,11092 3917,3913 3873,3870 11139,3870 "
   class="fil47"
   id="_134" />
       <polygon
   style="fill:#785499"
   points="11117,11114 3895,11114 3895,3892 3939,3935 11073,3935 11073,11070 3939,11070 3939,3935 3895,3892 11117,3892 "
   class="fil47"
   id="_135" />
       <polygon
   style="fill:#785499"
   points="11095,11092 3917,11092 3917,3913 3961,3957 11051,3957 11051,11048 3961,11048 3961,3957 3917,3913 11095,3913 "
   class="fil47"
   id="_136" />
       <polygon
   style="fill:#785499"
   points="11073,11070 3939,11070 3939,3935 3983,3979 11029,3979 11029,11026 3983,11026 3983,3979 3939,3935 11073,3935 "
   class="fil47"
   id="_137" />
       <polygon
   style="fill:#785499"
   points="11051,11048 3961,11048 3961,3957 4004,4001 11008,4001 11008,11004 4004,11004 4004,4001 3961,3957 11051,3957 "
   class="fil47"
   id="_138" />
       <polygon
   style="fill:#785499"
   points="11029,11026 3983,11026 3983,3979 4026,4023 10986,4023 10986,10982 4026,10982 4026,4023 3983,3979 11029,3979 "
   class="fil47"
   id="_139" />
       <polygon
   style="fill:#785499"
   points="11008,11004 4004,11004 4004,4001 4048,4045 10964,4045 10964,10960 4048,10960 4048,4045 4004,4001 11008,4001 "
   class="fil47"
   id="_140" />
       <polygon
   style="fill:#785499"
   points="10986,10982 4026,10982 4026,4023 4070,4067 10942,4067 10942,10938 4070,10938 4070,4067 4026,4023 10986,4023 "
   class="fil47"
   id="_141" />
       <polygon
   style="fill:#785499"
   points="10964,10960 4048,10960 4048,4045 4092,4089 10920,4089 10920,10917 4092,10917 4092,4089 4048,4045 10964,4045 "
   class="fil47"
   id="_142" />
       <polygon
   style="fill:#785499"
   points="10942,10938 4070,10938 4070,4067 4114,4110 10898,4110 10898,10895 4114,10895 4114,4110 4070,4067 10942,4067 "
   class="fil47"
   id="_143" />
       <polygon
   style="fill:#785499"
   points="10920,10917 4092,10917 4092,4089 4136,4132 10876,4132 10876,10873 4136,10873 4136,4132 4092,4089 10920,4089 "
   class="fil47"
   id="_144" />
       <polygon
   style="fill:#785499"
   points="10898,10895 4114,10895 4114,4110 4158,4154 10854,4154 10854,10851 4158,10851 4158,4154 4114,4110 10898,4110 "
   class="fil47"
   id="_145" />
       <polygon
   style="fill:#785499"
   points="10876,10873 4136,10873 4136,4132 4180,4176 10832,4176 10832,10829 4180,10829 4180,4176 4136,4132 10876,4132 "
   class="fil47"
   id="_146" />
       <polygon
   style="fill:#785499"
   points="10854,10851 4158,10851 4158,4154 4201,4198 10811,4198 10811,10807 4201,10807 4201,4198 4158,4154 10854,4154 "
   class="fil47"
   id="_147" />
       <polygon
   style="fill:#785499"
   points="10832,10829 4180,10829 4180,4176 4223,4220 10789,4220 10789,10785 4223,10785 4223,4220 4180,4176 10832,4176 "
   class="fil47"
   id="_148" />
       <polygon
   style="fill:#785499"
   points="10811,10807 4201,10807 4201,4198 4245,4242 10767,4242 10767,10763 4245,10763 4245,4242 4201,4198 10811,4198 "
   class="fil47"
   id="_149" />
       <polygon
   style="fill:#785499"
   points="10789,10785 4223,10785 4223,4220 4267,4264 10745,4264 10745,10742 4267,10742 4267,4264 4223,4220 10789,4220 "
   class="fil47"
   id="_150" />
       <polygon
   style="fill:#785499"
   points="10767,10763 4245,10763 4245,4242 4289,4286 10723,4286 10723,10720 4289,10720 4289,4286 4245,4242 10767,4242 "
   class="fil47"
   id="_151" />
       <polygon
   style="fill:#785499"
   points="10745,10742 4267,10742 4267,4264 4311,4307 10701,4307 10701,10698 4311,10698 4311,4307 4267,4264 10745,4264 "
   class="fil47"
   id="_152" />
       <polygon
   style="fill:#785499"
   points="10723,10720 4289,10720 4289,4286 4333,4329 10679,4329 10679,10676 4333,10676 4333,4329 4289,4286 10723,4286 "
   class="fil47"
   id="_153" />
       <polygon
   style="fill:#785499"
   points="10701,10698 4311,10698 4311,4307 4355,4351 10657,4351 10657,10654 4355,10654 4355,4351 4311,4307 10701,4307 "
   class="fil47"
   id="_154" />
       <polygon
   style="fill:#785499"
   points="10679,10676 4333,10676 4333,4329 4376,4373 10635,4373 10635,10632 4376,10632 4376,4373 4333,4329 10679,4329 "
   class="fil47"
   id="_155" />
       <polygon
   style="fill:#785499"
   points="10657,10654 4355,10654 4355,4351 4398,4395 10614,4395 10614,10610 4398,10610 4398,4395 4355,4351 10657,4351 "
   class="fil47"
   id="_156" />
       <polygon
   style="fill:#785499"
   points="10635,10632 4376,10632 4376,4373 4420,4417 10592,4417 10592,10588 4420,10588 4420,4417 4376,4373 10635,4373 "
   class="fil47"
   id="_157" />
       <polygon
   style="fill:#785499"
   points="10614,10610 4398,10610 4398,4395 4442,4439 10570,4439 10570,10566 4442,10566 4442,4439 4398,4395 10614,4395 "
   class="fil47"
   id="_158" />
       <polygon
   style="fill:#785499"
   points="10592,10588 4420,10588 4420,4417 4464,4461 10548,4461 10548,10545 4464,10545 4464,4461 4420,4417 10592,4417 "
   class="fil47"
   id="_159" />
       <polygon
   style="fill:#785499"
   points="10570,10566 4442,10566 4442,4439 4486,4483 10526,4483 10526,10523 4486,10523 4486,4483 4442,4439 10570,4439 "
   class="fil47"
   id="_160" />
       <polygon
   style="fill:#785499"
   points="10548,10545 4464,10545 4464,4461 4508,4504 10504,4504 10504,10501 4508,10501 4508,4504 4464,4461 10548,4461 "
   class="fil47"
   id="_161" />
       <polygon
   style="fill:#785499"
   points="10526,10523 4486,10523 4486,4483 4530,4526 10482,4526 10482,10479 4530,10479 4530,4526 4486,4483 10526,4483 "
   class="fil47"
   id="_162" />
       <polygon
   style="fill:#785499"
   points="10504,10501 4508,10501 4508,4504 4552,4548 10460,4548 10460,10457 4552,10457 4552,4548 4508,4504 10504,4504 "
   class="fil47"
   id="_163" />
       <polygon
   style="fill:#785499"
   points="10482,10479 4530,10479 4530,4526 4573,4570 10439,4570 10439,10435 4573,10435 4573,4570 4530,4526 10482,4526 "
   class="fil47"
   id="_164" />
       <polygon
   style="fill:#785499"
   points="10460,10457 4552,10457 4552,4548 4595,4592 10417,4592 10417,10413 4595,10413 4595,4592 4552,4548 10460,4548 "
   class="fil47"
   id="_165" />
       <polygon
   style="fill:#785499"
   points="10439,10435 4573,10435 4573,4570 4617,4614 10395,4614 10395,10391 4617,10391 4617,4614 4573,4570 10439,4570 "
   class="fil47"
   id="_166" />
       <polygon
   style="fill:#785499"
   points="10417,10413 4595,10413 4595,4592 4639,4636 10373,4636 10373,10369 4639,10369 4639,4636 4595,4592 10417,4592 "
   class="fil47"
   id="_167" />
       <polygon
   style="fill:#785499"
   points="10395,10391 4617,10391 4617,4614 4661,4658 10351,4658 10351,10348 4661,10348 4661,4658 4617,4614 10395,4614 "
   class="fil47"
   id="_168" />
       <polygon
   style="fill:#785499"
   points="10373,10369 4639,10369 4639,4636 4683,4679 10329,4679 10329,10326 4683,10326 4683,4679 4639,4636 10373,4636 "
   class="fil47"
   id="_169" />
       <polygon
   style="fill:#785499"
   points="10351,10348 4661,10348 4661,4658 4705,4701 10307,4701 10307,10304 4705,10304 4705,4701 4661,4658 10351,4658 "
   class="fil47"
   id="_170" />
       <polygon
   style="fill:#785499"
   points="10329,10326 4683,10326 4683,4679 4727,4723 10285,4723 10285,10282 4727,10282 4727,4723 4683,4679 10329,4679 "
   class="fil47"
   id="_171" />
       <polygon
   style="fill:#785499"
   points="10307,10304 4705,10304 4705,4701 4749,4745 10263,4745 10263,10260 4749,10260 4749,4745 4705,4701 10307,4701 "
   class="fil47"
   id="_172" />
       <polygon
   style="fill:#785499"
   points="10285,10282 4727,10282 4727,4723 4770,4767 10242,4767 10242,10238 4770,10238 4770,4767 4727,4723 10285,4723 "
   class="fil47"
   id="_173" />
       <polygon
   style="fill:#785499"
   points="10263,10260 4749,10260 4749,4745 4792,4789 10220,4789 10220,10216 4792,10216 4792,4789 4749,4745 10263,4745 "
   class="fil47"
   id="_174" />
       <polygon
   style="fill:#785499"
   points="10242,10238 4770,10238 4770,4767 4814,4811 10198,4811 10198,10194 4814,10194 4814,4811 4770,4767 10242,4767 "
   class="fil47"
   id="_175" />
       <polygon
   style="fill:#785499"
   points="10220,10216 4792,10216 4792,4789 4836,4833 10176,4833 10176,10172 4836,10172 4836,4833 4792,4789 10220,4789 "
   class="fil47"
   id="_176" />
       <polygon
   style="fill:#785499"
   points="10198,10194 4814,10194 4814,4811 4858,4855 10154,4855 10154,10151 4858,10151 4858,4855 4814,4811 10198,4811 "
   class="fil47"
   id="_177" />
       <polygon
   style="fill:#785499"
   points="10176,10173 4836,10173 4836,4833 4880,4876 10132,4876 10132,10129 4880,10129 4880,4876 4836,4833 10176,4833 "
   class="fil47"
   id="_178" />
       <polygon
   style="fill:#785499"
   points="10154,10151 4858,10151 4858,4855 4902,4898 10110,4898 10110,10107 4902,10107 4902,4898 4858,4855 10154,4855 "
   class="fil47"
   id="_179" />
       <polygon
   style="fill:#785499"
   points="10132,10129 4880,10129 4880,4876 4924,4920 10088,4920 10088,10085 4924,10085 4924,4920 4880,4876 10132,4876 "
   class="fil47"
   id="_180" />
       <polygon
   style="fill:#785499"
   points="10110,10107 4902,10107 4902,4898 4945,4942 10066,4942 10066,10063 4945,10063 4945,4942 4902,4898 10110,4898 "
   class="fil47"
   id="_181" />
       <polygon
   style="fill:#785499"
   points="10088,10085 4924,10085 4924,4920 4967,4964 10045,4964 10045,10041 4967,10041 4967,4964 4924,4920 10088,4920 "
   class="fil47"
   id="_182" />
       <polygon
   style="fill:#785499"
   points="10066,10063 4945,10063 4945,4942 4989,4986 10023,4986 10023,10019 4989,10019 4989,4986 4945,4942 10066,4942 "
   class="fil47"
   id="_183" />
       <polygon
   style="fill:#785499"
   points="10045,10041 4967,10041 4967,4964 5011,5008 10001,5008 10001,9997 5011,9997 5011,5008 4967,4964 10045,4964 "
   class="fil47"
   id="_184" />
       <polygon
   style="fill:#785499"
   points="10023,10019 4989,10019 4989,4986 5033,5030 9979,5030 9979,9976 5033,9976 5033,5030 4989,4986 10023,4986 "
   class="fil47"
   id="_185" />
       <polygon
   style="fill:#785499"
   points="10001,9997 5011,9997 5011,5008 5055,5052 9957,5052 9957,9954 5055,9954 5055,5052 5011,5008 10001,5008 "
   class="fil47"
   id="_186" />
       <polygon
   style="fill:#785499"
   points="9979,9976 5033,9976 5033,5030 5077,5073 9935,5073 9935,9932 5077,9932 5077,5073 5033,5030 9979,5030 "
   class="fil47"
   id="_187" />
       <polygon
   style="fill:#785499"
   points="9957,9954 5055,9954 5055,5052 5099,5095 9913,5095 9913,9910 5099,9910 5099,5095 5055,5052 9957,5052 "
   class="fil47"
   id="_188" />
       <polygon
   style="fill:#785499"
   points="9935,9932 5077,9932 5077,5073 5121,5117 9891,5117 9891,9888 5121,9888 5121,5117 5077,5073 9935,5073 "
   class="fil47"
   id="_189" />
       <polygon
   style="fill:#785499"
   points="9913,9910 5099,9910 5099,5095 5142,5139 9870,5139 9870,9866 5142,9866 5142,5139 5099,5095 9913,5095 "
   class="fil47"
   id="_190" />
       <polygon
   style="fill:#785499"
   points="9891,9888 5121,9888 5121,5117 5164,5161 9848,5161 9848,9844 5164,9844 5164,5161 5121,5117 9891,5117 "
   class="fil47"
   id="_191" />
       <polygon
   style="fill:#785499"
   points="9870,9866 5142,9866 5142,5139 5186,5183 9826,5183 9826,9822 5186,9822 5186,5183 5142,5139 9870,5139 "
   class="fil47"
   id="_192" />
       <polygon
   style="fill:#785499"
   points="9848,9844 5164,9844 5164,5161 5208,5205 9804,5205 9804,9800 5208,9800 5208,5205 5164,5161 9848,5161 "
   class="fil47"
   id="_193" />
       <polygon
   style="fill:#785499"
   points="9826,9822 5186,9822 5186,5183 5230,5227 9782,5227 9782,9779 5230,9779 5230,5227 5186,5183 9826,5183 "
   class="fil47"
   id="_194" />
       <polygon
   style="fill:#785499"
   points="9804,9800 5208,9800 5208,5205 5252,5248 9760,5248 9760,9757 5252,9757 5252,5248 5208,5205 9804,5205 "
   class="fil47"
   id="_195" />
       <polygon
   style="fill:#785499"
   points="9782,9779 5230,9779 5230,5227 5274,5270 9738,5270 9738,9735 5274,9735 5274,5270 5230,5227 9782,5227 "
   class="fil47"
   id="_196" />
       <polygon
   style="fill:#785499"
   points="9760,9757 5252,9757 5252,5248 5296,5292 9716,5292 9716,9713 5296,9713 5296,5292 5252,5248 9760,5248 "
   class="fil47"
   id="_197" />
       <polygon
   style="fill:#785499"
   points="9738,9735 5274,9735 5274,5270 5317,5314 9694,5314 9694,9691 5317,9691 5317,5314 5274,5270 9738,5270 "
   class="fil47"
   id="_198" />
       <polygon
   style="fill:#785499"
   points="9716,9713 5296,9713 5296,5292 5339,5336 9673,5336 9673,9669 5339,9669 5339,5336 5296,5292 9716,5292 "
   class="fil47"
   id="_199" />
       <polygon
   style="fill:#785499"
   points="9694,9691 5317,9691 5317,5314 5361,5358 9651,5358 9651,9647 5361,9647 5361,5358 5317,5314 9694,5314 "
   class="fil47"
   id="_200" />
       <polygon
   style="fill:#785499"
   points="9673,9669 5339,9669 5339,5336 5383,5380 9629,5380 9629,9625 5383,9625 5383,5380 5339,5336 9673,5336 "
   class="fil47"
   id="_201" />
       <polygon
   style="fill:#785499"
   points="9651,9647 5361,9647 5361,5358 5405,5402 9607,5402 9607,9603 5405,9603 5405,5402 5361,5358 9651,5358 "
   class="fil47"
   id="_202" />
       <polygon
   style="fill:#785499"
   points="9629,9625 5383,9625 5383,5380 5427,5424 9585,5424 9585,9582 5427,9582 5427,5424 5383,5380 9629,5380 "
   class="fil47"
   id="_203" />
       <polygon
   style="fill:#785499"
   points="9607,9603 5405,9603 5405,5402 5449,5445 9563,5445 9563,9560 5449,9560 5449,5445 5405,5402 9607,5402 "
   class="fil47"
   id="_204" />
       <polygon
   style="fill:#785499"
   points="9585,9582 5427,9582 5427,5424 5471,5467 9541,5467 9541,9538 5471,9538 5471,5467 5427,5424 9585,5424 "
   class="fil47"
   id="_205" />
       <polygon
   style="fill:#785499"
   points="9563,9560 5449,9560 5449,5445 5493,5489 9519,5489 9519,9516 5493,9516 5493,5489 5449,5445 9563,5445 "
   class="fil47"
   id="_206" />
       <polygon
   style="fill:#785499"
   points="9541,9538 5471,9538 5471,5467 5514,5511 9497,5511 9497,9494 5514,9494 5514,5511 5471,5467 9541,5467 "
   class="fil47"
   id="_207" />
       <polygon
   style="fill:#785499"
   points="9519,9516 5493,9516 5493,5489 5536,5533 9476,5533 9476,9472 5536,9472 5536,5533 5493,5489 9519,5489 "
   class="fil47"
   id="_208" />
       <polygon
   style="fill:#785499"
   points="9497,9494 5514,9494 5514,5511 5558,5555 9454,5555 9454,9450 5558,9450 5558,5555 5514,5511 9497,5511 "
   class="fil47"
   id="_209" />
       <polygon
   style="fill:#785499"
   points="9476,9472 5536,9472 5536,5533 5580,5577 9432,5577 9432,9428 5580,9428 5580,5577 5536,5533 9476,5533 "
   class="fil47"
   id="_210" />
       <polygon
   style="fill:#785499"
   points="9454,9450 5558,9450 5558,5555 5602,5599 9410,5599 9410,9407 5602,9407 5602,5599 5558,5555 9454,5555 "
   class="fil47"
   id="_211" />
       <polygon
   style="fill:#785499"
   points="9432,9428 5580,9428 5580,5577 5624,5620 9388,5620 9388,9385 5624,9385 5624,5620 5580,5577 9432,5577 "
   class="fil47"
   id="_212" />
       <polygon
   style="fill:#785499"
   points="9410,9407 5602,9407 5602,5599 5646,5642 9366,5642 9366,9363 5646,9363 5646,5642 5602,5599 9410,5599 "
   class="fil47"
   id="_213" />
       <polygon
   style="fill:#785499"
   points="9388,9385 5624,9385 5624,5620 5668,5664 9344,5664 9344,9341 5668,9341 5668,5664 5624,5620 9388,5620 "
   class="fil47"
   id="_214" />
       <polygon
   style="fill:#785499"
   points="9366,9363 5646,9363 5646,5642 5690,5686 9322,5686 9322,9319 5690,9319 5690,5686 5646,5642 9366,5642 "
   class="fil47"
   id="_215" />
       <polygon
   style="fill:#785499"
   points="9344,9341 5668,9341 5668,5664 5711,5708 9300,5708 9300,9297 5711,9297 5711,5708 5668,5664 9344,5664 "
   class="fil47"
   id="_216" />
       <polygon
   style="fill:#785499"
   points="9322,9319 5690,9319 5690,5686 5733,5730 9279,5730 9279,9275 5733,9275 5733,5730 5690,5686 9322,5686 "
   class="fil47"
   id="_217" />
       <polygon
   style="fill:#785499"
   points="9300,9297 5711,9297 5711,5708 5755,5752 9257,5752 9257,9253 5755,9253 5755,5752 5711,5708 9300,5708 "
   class="fil47"
   id="_218" />
       <polygon
   style="fill:#785499"
   points="9279,9275 5733,9275 5733,5730 5777,5774 9235,5774 9235,9231 5777,9231 5777,5774 5733,5730 9279,5730 "
   class="fil47"
   id="_219" />
       <polygon
   style="fill:#785499"
   points="9257,9253 5755,9253 5755,5752 5799,5796 9213,5796 9213,9210 5799,9210 5799,5796 5755,5752 9257,5752 "
   class="fil47"
   id="_220" />
       <polygon
   style="fill:#785499"
   points="9235,9231 5777,9231 5777,5774 5821,5817 9191,5817 9191,9188 5821,9188 5821,5817 5777,5774 9235,5774 "
   class="fil47"
   id="_221" />
       <polygon
   style="fill:#785499"
   points="9213,9210 5799,9210 5799,5796 5843,5839 9169,5839 9169,9166 5843,9166 5843,5839 5799,5796 9213,5796 "
   class="fil47"
   id="_222" />
       <polygon
   style="fill:#785499"
   points="9191,9188 5821,9188 5821,5817 5865,5861 9147,5861 9147,9144 5865,9144 5865,5861 5821,5817 9191,5817 "
   class="fil47"
   id="_223" />
       <polygon
   style="fill:#785499"
   points="9169,9166 5843,9166 5843,5839 5886,5883 9125,5883 9125,9122 5886,9122 5886,5883 5843,5839 9169,5839 "
   class="fil47"
   id="_224" />
       <polygon
   style="fill:#785499"
   points="9147,9144 5865,9144 5865,5861 5908,5905 9104,5905 9104,9100 5908,9100 5908,5905 5865,5861 9147,5861 "
   class="fil47"
   id="_225" />
       <polygon
   style="fill:#785499"
   points="9125,9122 5886,9122 5886,5883 5930,5927 9082,5927 9082,9078 5930,9078 5930,5927 5886,5883 9125,5883 "
   class="fil47"
   id="_226" />
       <polygon
   style="fill:#785499"
   points="9104,9100 5908,9100 5908,5905 5952,5949 9060,5949 9060,9056 5952,9056 5952,5949 5908,5905 9104,5905 "
   class="fil47"
   id="_227" />
       <polygon
   style="fill:#785499"
   points="9082,9078 5930,9078 5930,5927 5974,5971 9038,5971 9038,9035 5974,9035 5974,5971 5930,5927 9082,5927 "
   class="fil47"
   id="_228" />
       <polygon
   style="fill:#785499"
   points="9060,9056 5952,9056 5952,5949 5996,5993 9016,5993 9016,9013 5996,9013 5996,5993 5952,5949 9060,5949 "
   class="fil47"
   id="_229" />
       <polygon
   style="fill:#785499"
   points="9038,9035 5974,9035 5974,5971 6018,6014 8994,6014 8994,8991 6018,8991 6018,6014 5974,5971 9038,5971 "
   class="fil47"
   id="_230" />
       <polygon
   style="fill:#785499"
   points="9016,9013 5996,9013 5996,5993 6040,6036 8972,6036 8972,8969 6040,8969 6040,6036 5996,5993 9016,5993 "
   class="fil47"
   id="_231" />
       <polygon
   style="fill:#785499"
   points="8994,8991 6018,8991 6018,6014 6062,6058 8950,6058 8950,8947 6062,8947 6062,6058 6018,6014 8994,6014 "
   class="fil47"
   id="_232" />
       <polygon
   style="fill:#785499"
   points="8972,8969 6040,8969 6040,6036 6083,6080 8928,6080 8928,8925 6083,8925 6083,6080 6040,6036 8972,6036 "
   class="fil47"
   id="_233" />
       <polygon
   style="fill:#785499"
   points="8950,8947 6062,8947 6062,6058 6105,6102 8907,6102 8907,8903 6105,8903 6105,6102 6062,6058 8950,6058 "
   class="fil47"
   id="_234" />
       <polygon
   style="fill:#785499"
   points="8928,8925 6083,8925 6083,6080 6127,6124 8885,6124 8885,8881 6127,8881 6127,6124 6083,6080 8928,6080 "
   class="fil47"
   id="_235" />
       <polygon
   style="fill:#785499"
   points="8907,8903 6105,8903 6105,6102 6149,6146 8863,6146 8863,8859 6149,8859 6149,6146 6105,6102 8907,6102 "
   class="fil47"
   id="_236" />
       <polygon
   style="fill:#785499"
   points="8885,8881 6127,8881 6127,6124 6171,6168 8841,6168 8841,8838 6171,8838 6171,6168 6127,6124 8885,6124 "
   class="fil47"
   id="_237" />
       <polygon
   style="fill:#785499"
   points="8863,8859 6149,8859 6149,6146 6193,6189 8819,6189 8819,8816 6193,8816 6193,6189 6149,6146 8863,6146 "
   class="fil47"
   id="_238" />
       <polygon
   style="fill:#785499"
   points="8841,8838 6171,8838 6171,6168 6215,6211 8797,6211 8797,8794 6215,8794 6215,6211 6171,6168 8841,6168 "
   class="fil47"
   id="_239" />
       <polygon
   style="fill:#785499"
   points="8819,8816 6193,8816 6193,6189 6237,6233 8775,6233 8775,8772 6237,8772 6237,6233 6193,6189 8819,6189 "
   class="fil47"
   id="_240" />
       <polygon
   style="fill:#785499"
   points="8797,8794 6215,8794 6215,6211 6259,6255 8753,6255 8753,8750 6259,8750 6259,6255 6215,6211 8797,6211 "
   class="fil47"
   id="_241" />
       <polygon
   style="fill:#785499"
   points="8775,8772 6237,8772 6237,6233 6280,6277 8731,6277 8731,8728 6280,8728 6280,6277 6237,6233 8775,6233 "
   class="fil47"
   id="_242" />
       <polygon
   style="fill:#785499"
   points="8753,8750 6259,8750 6259,6255 6302,6299 8710,6299 8710,8706 6302,8706 6302,6299 6259,6255 8753,6255 "
   class="fil47"
   id="_243" />
       <polygon
   style="fill:#785499"
   points="8731,8728 6280,8728 6280,6277 6324,6321 8688,6321 8688,8684 6324,8684 6324,6321 6280,6277 8731,6277 "
   class="fil47"
   id="_244" />
       <polygon
   style="fill:#785499"
   points="8710,8706 6302,8706 6302,6299 6346,6343 8666,6343 8666,8662 6346,8662 6346,6343 6302,6299 8710,6299 "
   class="fil47"
   id="_245" />
       <polygon
   style="fill:#785499"
   points="8688,8684 6324,8684 6324,6321 6368,6365 8644,6365 8644,8641 6368,8641 6368,6365 6324,6321 8688,6321 "
   class="fil47"
   id="_246" />
       <polygon
   style="fill:#785499"
   points="8666,8662 6346,8662 6346,6343 6390,6386 8622,6386 8622,8619 6390,8619 6390,6386 6346,6343 8666,6343 "
   class="fil47"
   id="_247" />
       <polygon
   style="fill:#785499"
   points="8644,8641 6368,8641 6368,6365 6412,6408 8600,6408 8600,8597 6412,8597 6412,6408 6368,6365 8644,6365 "
   class="fil47"
   id="_248" />
       <polygon
   style="fill:#785499"
   points="8622,8619 6390,8619 6390,6386 6434,6430 8578,6430 8578,8575 6434,8575 6434,6430 6390,6386 8622,6386 "
   class="fil47"
   id="_249" />
       <polygon
   style="fill:#785499"
   points="8600,8597 6412,8597 6412,6408 6456,6452 8556,6452 8556,8553 6456,8553 6456,6452 6412,6408 8600,6408 "
   class="fil47"
   id="_250" />
       <polygon
   style="fill:#785499"
   points="8578,8575 6434,8575 6434,6430 6477,6474 8535,6474 8535,8531 6477,8531 6477,6474 6434,6430 8578,6430 "
   class="fil47"
   id="_251" />
       <polygon
   style="fill:#785499"
   points="8556,8553 6455,8553 6455,6452 6499,6496 8513,6496 8513,8509 6499,8509 6499,6496 6455,6452 8556,6452 "
   class="fil47"
   id="_252" />
       <polygon
   style="fill:#785499"
   points="8535,8531 6477,8531 6477,6474 6521,6518 8491,6518 8491,8487 6521,8487 6521,6518 6477,6474 8535,6474 "
   class="fil47"
   id="_253" />
       <polygon
   style="fill:#785499"
   points="8513,8509 6499,8509 6499,6496 6543,6540 8469,6540 8469,8466 6543,8466 6543,6540 6499,6496 8513,6496 "
   class="fil47"
   id="_254" />
       <polygon
   style="fill:#785499"
   points="8491,8487 6521,8487 6521,6518 6565,6562 8447,6562 8447,8444 6565,8444 6565,6562 6521,6518 8491,6518 "
   class="fil47"
   id="_255" />
       <polygon
   style="fill:#785499"
   points="8469,8466 6543,8466 6543,6540 6587,6583 8425,6583 8425,8422 6587,8422 6587,6583 6543,6540 8469,6540 "
   class="fil47"
   id="_256" />
       <polygon
   style="fill:#785499"
   points="8447,8444 6565,8444 6565,6562 6609,6605 8403,6605 8403,8400 6609,8400 6609,6605 6565,6562 8447,6562 "
   class="fil47"
   id="_257" />
       <polygon
   style="fill:#785499"
   points="8425,8422 6587,8422 6587,6583 6631,6627 8381,6627 8381,8378 6631,8378 6631,6627 6587,6583 8425,6583 "
   class="fil47"
   id="_258" />
       <polygon
   style="fill:#785499"
   points="8403,8400 6609,8400 6609,6605 6652,6649 8359,6649 8359,8356 6652,8356 6652,6649 6609,6605 8403,6605 "
   class="fil47"
   id="_259" />
       <polygon
   style="fill:#785499"
   points="8381,8378 6631,8378 6631,6627 6674,6671 8338,6671 8338,8334 6674,8334 6674,6671 6631,6627 8381,6627 "
   class="fil47"
   id="_260" />
       <polygon
   style="fill:#785499"
   points="8359,8356 6652,8356 6652,6649 6696,6693 8316,6693 8316,8312 6696,8312 6696,6693 6652,6649 8359,6649 "
   class="fil47"
   id="_261" />
       <polygon
   style="fill:#785499"
   points="8338,8334 6674,8334 6674,6671 6718,6715 8294,6715 8294,8290 6718,8290 6718,6715 6674,6671 8338,6671 "
   class="fil47"
   id="_262" />
       <polygon
   style="fill:#785499"
   points="8316,8312 6696,8312 6696,6693 6740,6737 8272,6737 8272,8269 6740,8269 6740,6737 6696,6693 8316,6693 "
   class="fil47"
   id="_263" />
       <polygon
   style="fill:#785499"
   points="8294,8290 6718,8290 6718,6715 6762,6758 8250,6758 8250,8247 6762,8247 6762,6758 6718,6715 8294,6715 "
   class="fil47"
   id="_264" />
       <polygon
   style="fill:#785499"
   points="8272,8269 6740,8269 6740,6737 6784,6780 8228,6780 8228,8225 6784,8225 6784,6780 6740,6737 8272,6737 "
   class="fil47"
   id="_265" />
       <polygon
   style="fill:#785499"
   points="8250,8247 6762,8247 6762,6758 6806,6802 8206,6802 8206,8203 6806,8203 6806,6802 6762,6758 8250,6758 "
   class="fil47"
   id="_266" />
       <polygon
   style="fill:#785499"
   points="8228,8225 6784,8225 6784,6780 6828,6824 8184,6824 8184,8181 6828,8181 6828,6824 6784,6780 8228,6780 "
   class="fil47"
   id="_267" />
       <polygon
   style="fill:#785499"
   points="8206,8203 6806,8203 6806,6802 6849,6846 8163,6846 8163,8159 6849,8159 6849,6846 6806,6802 8206,6802 "
   class="fil47"
   id="_268" />
       <polygon
   style="fill:#785499"
   points="8184,8181 6828,8181 6828,6824 6871,6868 8141,6868 8141,8137 6871,8137 6871,6868 6828,6824 8184,6824 "
   class="fil47"
   id="_269" />
       <polygon
   style="fill:#785499"
   points="8163,8159 6849,8159 6849,6846 6893,6890 8119,6890 8119,8115 6893,8115 6893,6890 6849,6846 8163,6846 "
   class="fil47"
   id="_270" />
       <polygon
   style="fill:#785499"
   points="8141,8137 6871,8137 6871,6868 6915,6912 8097,6912 8097,8093 6915,8093 6915,6912 6871,6868 8141,6868 "
   class="fil47"
   id="_271" />
       <polygon
   style="fill:#785499"
   points="8119,8115 6893,8115 6893,6890 6937,6934 8075,6934 8075,8072 6937,8072 6937,6934 6893,6890 8119,6890 "
   class="fil47"
   id="_272" />
       <polygon
   style="fill:#785499"
   points="8097,8093 6915,8093 6915,6912 6959,6955 8053,6955 8053,8050 6959,8050 6959,6955 6915,6912 8097,6912 "
   class="fil47"
   id="_273" />
       <polygon
   style="fill:#785499"
   points="8075,8072 6937,8072 6937,6934 6981,6977 8031,6977 8031,8028 6981,8028 6981,6977 6937,6934 8075,6934 "
   class="fil47"
   id="_274" />
       <polygon
   style="fill:#785499"
   points="8053,8050 6959,8050 6959,6955 7003,6999 8009,6999 8009,8006 7003,8006 7003,6999 6959,6955 8053,6955 "
   class="fil47"
   id="_275" />
       <polygon
   style="fill:#785499"
   points="8031,8028 6981,8028 6981,6977 7025,7021 7987,7021 7987,7984 7025,7984 7025,7021 6981,6977 8031,6977 "
   class="fil47"
   id="_276" />
       <polygon
   style="fill:#785499"
   points="8009,8006 7003,8006 7003,6999 7046,7043 7966,7043 7966,7962 7046,7962 7046,7043 7003,6999 8009,6999 "
   class="fil47"
   id="_277" />
       <polygon
   style="fill:#785499"
   points="7987,7984 7025,7984 7025,7021 7068,7065 7944,7065 7944,7940 7068,7940 7068,7065 7025,7021 7987,7021 "
   class="fil47"
   id="_278" />
       <polygon
   style="fill:#785499"
   points="7966,7962 7046,7962 7046,7043 7090,7087 7922,7087 7922,7918 7090,7918 7090,7087 7046,7043 7966,7043 "
   class="fil47"
   id="_279" />
       <polygon
   style="fill:#785499"
   points="7944,7940 7068,7940 7068,7065 7112,7109 7900,7109 7900,7897 7112,7897 7112,7109 7068,7065 7944,7065 "
   class="fil47"
   id="_280" />
       <polygon
   style="fill:#785499"
   points="7922,7918 7090,7918 7090,7087 7134,7131 7878,7131 7878,7875 7134,7875 7134,7131 7090,7087 7922,7087 "
   class="fil47"
   id="_281" />
       <polygon
   style="fill:#785499"
   points="7900,7897 7112,7897 7112,7109 7156,7152 7856,7152 7856,7853 7156,7853 7156,7152 7112,7109 7900,7109 "
   class="fil47"
   id="_282" />
       <polygon
   style="fill:#785499"
   points="7878,7875 7134,7875 7134,7131 7178,7174 7834,7174 7834,7831 7178,7831 7178,7174 7134,7131 7878,7131 "
   class="fil47"
   id="_283" />
       <polygon
   style="fill:#785499"
   points="7856,7853 7156,7853 7156,7152 7200,7196 7812,7196 7812,7809 7200,7809 7200,7196 7156,7152 7856,7152 "
   class="fil47"
   id="_284" />
       <polygon
   style="fill:#785499"
   points="7834,7831 7178,7831 7178,7174 7221,7218 7790,7218 7790,7787 7221,7787 7221,7218 7178,7174 7834,7174 "
   class="fil47"
   id="_285" />
       <polygon
   style="fill:#785499"
   points="7812,7809 7200,7809 7200,7196 7243,7240 7769,7240 7769,7765 7243,7765 7243,7240 7200,7196 7812,7196 "
   class="fil47"
   id="_286" />
       <polygon
   style="fill:#785499"
   points="7790,7787 7221,7787 7221,7218 7265,7262 7747,7262 7747,7743 7265,7743 7265,7262 7221,7218 7790,7218 "
   class="fil47"
   id="_287" />
       <polygon
   style="fill:#785499"
   points="7769,7765 7243,7765 7243,7240 7287,7284 7725,7284 7725,7721 7287,7721 7287,7284 7243,7240 7769,7240 "
   class="fil47"
   id="_288" />
       <polygon
   style="fill:#785499"
   points="7747,7743 7265,7743 7265,7262 7309,7306 7703,7306 7703,7700 7309,7700 7309,7306 7265,7262 7747,7262 "
   class="fil47"
   id="_289" />
       <polygon
   style="fill:#785499"
   points="7725,7721 7287,7721 7287,7284 7331,7328 7681,7328 7681,7678 7331,7678 7331,7328 7287,7284 7725,7284 "
   class="fil47"
   id="_290" />
       <polygon
   style="fill:#785499"
   points="7703,7700 7309,7700 7309,7306 7353,7349 7659,7349 7659,7656 7353,7656 7353,7349 7309,7306 7703,7306 "
   class="fil47"
   id="_291" />
       <polygon
   style="fill:#785499"
   points="7681,7678 7331,7678 7331,7328 7375,7371 7637,7371 7637,7634 7375,7634 7375,7371 7331,7328 7681,7328 "
   class="fil47"
   id="_292" />
       <polygon
   style="fill:#785499"
   points="7659,7656 7353,7656 7353,7349 7397,7393 7615,7393 7615,7612 7397,7612 7397,7393 7353,7349 7659,7349 "
   class="fil47"
   id="_293" />
       <polygon
   style="fill:#785499"
   points="7637,7634 7375,7634 7375,7371 7418,7415 7594,7415 7594,7590 7418,7590 7418,7415 7375,7371 7637,7371 "
   class="fil47"
   id="_294" />
       <polygon
   style="fill:#785499"
   points="7615,7612 7397,7612 7397,7393 7440,7437 7572,7437 7572,7568 7440,7568 7440,7437 7397,7393 7615,7393 "
   class="fil47"
   id="_295" />
       <polygon
   style="fill:#785499"
   points="7594,7590 7418,7590 7418,7415 7462,7459 7550,7459 7550,7546 7462,7546 7462,7459 7418,7415 7594,7415 "
   class="fil47"
   id="_296" />
       <polygon
   style="fill:#785499"
   points="7572,7568 7440,7568 7440,7437 7484,7481 7528,7481 7528,7524 7484,7524 7484,7481 7440,7437 7572,7437 "
   class="fil47"
   id="_297" />
       <polygon
   style="fill:#785499"
   points="7550,7546 7462,7546 7462,7459 7506,7503 7506,7503 7506,7503 7506,7503 7506,7503 7462,7459 7550,7459 "
   class="fil47"
   id="_298" />
       <polygon
   style="fill:#785499"
   points="7528,7524 7484,7524 7484,7481 7528,7481 "
   class="fil47"
   id="_299" />
      </g>
     </g>
     <path
   style="fill:none"
   inkscape:connector-curvature="0"
   id="path5144"
   d="m 2377,14068 h 10257 c 790,0 1437,-647 1437,-1437 V 2374 c 0,-790 -647,-1437 -1437,-1437 H 2377 C 1587,937 940,1584 940,2374 v 10257 c 0,790 647,1437 1437,1437 z"
   class="fil48" />
    </g>
   </g>
  </g>
<g
   transform="matrix(1.6173084,0,0,1.6173084,-838.76909,-674.71579)"
   style="clip-rule:evenodd;fill-rule:evenodd;image-rendering:optimizeQuality;shape-rendering:geometricPrecision;text-rendering:geometricPrecision"
   id="g9886"><polygon
     transform="matrix(286.71042,286.71042,-286.71042,286.71042,5115.0714,-365.00497)"
     id="polygon6389"
     points="5.755,10.425 5.755,14.96 6.042,14.96 6.35,18.798 6.94,18.798 7.248,14.96 7.535,14.96 7.535,10.425 "
     style="fill:#bebebe;fill-opacity:1;stroke:#404040;stroke-width:0.30000001;stroke-miterlimit:4;stroke-dasharray:none;stroke-opacity:1" /><polygon
     transform="matrix(286.71042,286.71042,-286.71042,286.71042,5115.0714,-365.00497)"
     id="polygon6391"
     points="8.642,10.425 8.642,14.96 8.929,14.96 9.236,18.798 9.827,18.798 10.135,14.96 10.423,14.96 10.423,10.425 "
     style="fill:#bebebe;fill-opacity:1;stroke:#404040;stroke-width:0.30000001;stroke-miterlimit:4;stroke-dasharray:none;stroke-opacity:1" /><polygon
     transform="matrix(286.71042,286.71042,-286.71042,286.71042,5115.0714,-365.00497)"
     id="polygon6393"
     points="11.433,10.425 11.433,14.96 11.719,14.96 12.027,18.798 12.618,18.798 12.925,14.96 13.213,14.96 13.213,10.425 "
     style="fill:#bebebe;fill-opacity:1;stroke:#404040;stroke-width:0.30000001;stroke-miterlimit:4;stroke-dasharray:none;stroke-opacity:1" /><path
     sodipodi:nodetypes="csssccccc"
     inkscape:connector-curvature="0"
     id="path6387-6"
     d="m 7789.2194,4583.9037 c -28.9578,28.9577 -75.6915,28.671 -104.3626,0 L 5556.3187,2455.3655 c -28.6711,-28.671 -28.9578,-75.4048 0,-104.3626 l 446.6948,-446.6948 802.5025,46.7338 1387.9651,1387.9651 84.2929,755.7687 z"
     style="fill:#bebebe;fill-opacity:1;stroke:#404040;stroke-width:121.64093781;stroke-miterlimit:4;stroke-dasharray:none;stroke-opacity:1" /><path
     inkscape:connector-curvature="0"
     id="path6387-3"
     d="M 8729.6296,4152.1177 8625.267,3213.4278 c -6.0209,-50.1743 -28.671,-96.9081 -64.2231,-132.4602 L 7058.3946,1578.3183 c -38.4192,-38.4192 -89.4537,-61.356 -143.6419,-64.5099 l -984.8503,-57.0553 c -63.0763,-3.4406 -125.0058,20.0697 -169.4459,64.5098 L 3887.664,3394.0554 c -201.2707,201.2707 -201.2707,528.694 0,729.9648 l 2128.5382,2128.5381 c 200.984,200.984 528.4073,200.984 729.678,-0.2867 L 8665.4065,4332.7453 c 47.5939,-47.5939 71.1042,-114.1108 64.2231,-180.6276 z m -940.4101,431.7859 c -28.9578,28.9578 -75.6916,28.6711 -104.3626,0 L 5556.3187,2455.3655 c -28.671,-28.6711 -28.9577,-75.4049 0,-104.3626 l 446.6948,-446.6949 802.5025,46.7338 1387.9652,1387.9652 84.2928,755.7686 z"
     style="fill:#6e6e6e;fill-opacity:1;stroke:#404040;stroke-width:121.64093781;stroke-miterlimit:4;stroke-dasharray:none;stroke-opacity:1" /><circle
     transform="rotate(45)"
     id="circle6395-9"
     r="413.98465"
     cy="-2842.6731"
     cx="7169.8145"
     style="fill:#775498;fill-opacity:1;stroke:#404040;stroke-width:121.64093781;stroke-miterlimit:4;stroke-dasharray:none;stroke-opacity:1" /></g></svg>